<?xml version="1.0" standalone="no"?><!DOCTYPE svg PUBLIC "-//W3C//DTD SVG 1.1//EN" "http://www.w3.org/Graphics/SVG/1.1/DTD/svg11.dtd"><svg xmlns="http://www.w3.org/2000/svg" viewBox="0 0 618 368" version="1.1"><clipPath id="box"><rect x="0" y="0" width="618" height="368" style="fill:none;stroke:none;" /></clipPath><g clip-path="url(#box)"><rect x="0.00" y="0.00" width="618.00" height="368.00" style="fill:#FFFFFF;stroke:none;" /><path d="M0.00 332.00 L618.00 332.00 M0.00 262.00 L618.00 262.00 M0.00 191.00 L618.00 191.00 M0.00 121.00 L618.00 121.00 M0.00 51.00 L618.00 51.00 M63.00 0.00 L63.00 368.00 M135.00 0.00 L135.00 368.00 M208.00 0.00 L208.00 368.00 M280.00 0.00 L280.00 368.00 M353.00 0.00 L353.00 368.00 M426.00 0.00 L426.00 368.00 M498.00 0.00 L498.00 368.00 M571.00 0.00 L571.00 368.00 " style="fill:none;stroke:#D0D0D0;stroke-width:1;" /><path d="M280.97 0.00 L280.97 368.00 " style="fill:none;stroke:#000000;stroke-width:1;" /><path d="M274.79 402.52 L287.15 402.52 M274.79 332.33 L287.15 332.33 M274.79 262.14 L287.15 262.14 M274.79 191.95 L287.15 191.95 M274.79 121.76 L287.15 121.76 M274.79 51.57 L287.15 51.57 " style="fill:none;stroke:#000000;stroke-width:1;" /><path d="M0.00 191.95 L618.00 191.95 " style="fill:none;stroke:#000000;stroke-width:1;" /><path d="M-9.18 185.77 L-9.18 198.13 M63.36 185.77 L63.36 198.13 M135.90 185.77 L135.90 198.13 M208.44 185.77 L208.44 198.13 M280.97 185.77 L280.97 198.13 M353.51 185.77 L353.51 198.13 M426.05 185.77 L426.05 198.13 M498.59 185.77 L498.59 198.13 M571.13 185.77 L571.13 198.13 " style="fill:none;stroke:#000000;stroke-width:1;" /><text x="288.6986328125001" y="334.82812500000017" text-anchor="start" style="font:10px Droid Sans,Trebuchet MS,Arial,Helvetica,sans-serif;stroke:none;fill:#000000">-1</text><text x="288.6986328125001" y="264.6376953125001" text-anchor="start" style="font:10px Droid Sans,Trebuchet MS,Arial,Helvetica,sans-serif;stroke:none;fill:#000000">-0.5</text><text x="288.6986328125001" y="194.447265625" text-anchor="start" style="font:10px Droid Sans,Trebuchet MS,Arial,Helvetica,sans-serif;stroke:none;fill:#000000">0</text><text x="288.6986328125001" y="124.25683593749993" text-anchor="start" style="font:10px Droid Sans,Trebuchet MS,Arial,Helvetica,sans-serif;stroke:none;fill:#000000">0.5</text><text x="288.6986328125001" y="54.066406249999844" text-anchor="start" style="font:10px Droid Sans,Trebuchet MS,Arial,Helvetica,sans-serif;stroke:none;fill:#000000">1</text><text x="63.35982572115361" y="207.672265625" text-anchor="middle" style="font:10px Droid Sans,Trebuchet MS,Arial,Helvetica,sans-serif;stroke:none;fill:#000000">-1.5</text><text x="135.89776141826908" y="207.672265625" text-anchor="middle" style="font:10px Droid Sans,Trebuchet MS,Arial,Helvetica,sans-serif;stroke:none;fill:#000000">-1</text><text x="208.43569711538458" y="207.672265625" text-anchor="middle" style="font:10px Droid Sans,Trebuchet MS,Arial,Helvetica,sans-serif;stroke:none;fill:#000000">-0.5</text><text x="280.97363281250006" y="207.672265625" text-anchor="middle" style="font:10px Droid Sans,Trebuchet MS,Arial,Helvetica,sans-serif;stroke:none;fill:#000000">0</text><text x="353.51156850961553" y="207.672265625" text-anchor="middle" style="font:10px Droid Sans,Trebuchet MS,Arial,Helvetica,sans-serif;stroke:none;fill:#000000">0.5</text><text x="426.049504206731" y="207.672265625" text-anchor="middle" style="font:10px Droid Sans,Trebuchet MS,Arial,Helvetica,sans-serif;stroke:none;fill:#000000">1</text><text x="498.5874399038465" y="207.672265625" text-anchor="middle" style="font:10px Droid Sans,Trebuchet MS,Arial,Helvetica,sans-serif;stroke:none;fill:#000000">1.5</text><text x="571.125375600962" y="207.672265625" text-anchor="middle" style="font:10px Droid Sans,Trebuchet MS,Arial,Helvetica,sans-serif;stroke:none;fill:#000000">2</text><path d="M-10.00 184.00 L-0.25 57.71 L0.75 57.75 L2.75 57.84 L4.75 57.93 L6.75 58.02 L8.75 58.12 L10.75 58.21 L12.75 58.31 L14.75 58.41 L16.75 58.51 L18.75 58.62 L20.75 58.73 L22.75 58.84 L24.75 58.95 L26.75 59.06 L28.75 59.18 L30.75 59.30 L32.75 59.42 L34.75 59.55 L36.75 59.68 L38.75 59.81 L40.75 59.95 L42.75 60.08 L44.75 60.23 L46.75 60.37 L48.75 60.52 L50.75 60.67 L52.75 60.83 L54.75 60.99 L56.75 61.16 L58.75 61.33 L60.75 61.50 L62.75 61.68 L64.75 61.86 L66.75 62.05 L68.75 62.25 L70.75 62.45 L72.75 62.65 L74.75 62.86 L76.75 63.08 L78.75 63.30 L80.75 63.53 L82.75 63.77 L84.75 64.01 L86.75 64.26 L88.75 64.52 L90.75 64.78 L92.75 65.06 L94.75 65.34 L96.75 65.63 L98.75 65.93 L100.75 66.24 L102.75 66.56 L104.75 66.89 L106.75 67.24 L108.75 67.59 L110.75 67.95 L112.75 68.33 L114.75 68.72 L116.75 69.13 L118.75 69.54 L120.75 69.98 L122.75 70.43 L124.75 70.89 L126.75 71.37 L128.75 71.87 L130.75 72.39 L132.75 72.93 L134.75 73.49 L136.75 74.07 L138.75 74.68 L140.75 75.30 L142.75 75.96 L144.75 76.64 L146.75 77.35 L148.75 78.09 L150.75 78.85 L152.75 79.66 L154.75 80.50 L156.75 81.37 L158.75 82.28 L160.75 83.24 L162.75 84.24 L164.75 85.28 L166.66 86.33 L168.49 87.38 L170.24 88.42 L171.92 89.46 L173.53 90.50 L175.08 91.54 L176.57 92.58 L178.01 93.61 L179.39 94.65 L180.73 95.69 L182.02 96.72 L183.27 97.75 L184.48 98.78 L185.65 99.82 L186.78 100.85 L187.88 101.88 L188.95 102.91 L189.99 103.94 L191.00 104.96 L191.98 105.99 L192.94 107.02 L193.87 108.04 L194.78 109.07 L195.67 110.09 L196.53 111.12 L197.37 112.14 L198.19 113.17 L199.00 114.19 L199.78 115.21 L200.55 116.23 L201.30 117.26 L202.04 118.28 L202.76 119.30 L203.47 120.32 L204.16 121.34 L204.83 122.36 L205.50 123.38 L206.15 124.40 L206.79 125.42 L207.42 126.43 L208.04 127.45 L208.64 128.47 L209.24 129.49 L209.82 130.50 L210.40 131.52 L210.96 132.54 L211.52 133.55 L212.06 134.57 L212.60 135.59 L213.13 136.60 L213.66 137.62 L214.17 138.63 L214.68 139.65 L215.18 140.66 L215.67 141.67 L216.16 142.69 L216.64 143.70 L217.11 144.71 L217.58 145.73 L218.04 146.74 L218.49 147.75 L218.94 148.77 L219.38 149.78 L219.82 150.79 L220.26 151.80 L220.68 152.81 L221.11 153.82 L221.53 154.84 L221.94 155.85 L222.35 156.86 L222.75 157.87 L223.16 158.88 L223.55 159.89 L223.95 160.90 L224.34 161.91 L224.72 162.92 L225.10 163.92 L225.48 164.93 L225.86 165.94 L226.23 166.95 L226.60 167.96 L226.97 168.97 L227.33 169.97 L227.69 170.98 L228.05 171.99 L228.41 172.99 L228.76 174.00 L229.11 175.01 L229.46 176.01 L229.81 177.02 L230.15 178.02 L230.49 179.03 L230.84 180.03 L231.17 181.04 L231.51 182.04 L231.85 183.05 L232.18 184.05 L232.52 185.05 L232.85 186.06 L233.18 187.06 L233.51 188.06 L233.85 189.06 L234.18 190.06 L234.50 191.07 L234.83 192.07 L235.16 193.07 L235.49 194.07 L235.82 195.06 L236.15 196.06 L236.48 197.06 L236.81 198.06 L237.14 199.05 L237.48 200.05 L237.81 201.04 L238.15 202.04 L238.49 203.03 L238.83 204.02 L239.17 205.01 L239.52 206.00 L239.87 206.99 L240.22 207.98 L240.58 208.96 L240.95 209.94 L241.32 210.92 L241.70 211.90 L242.09 212.87 L242.49 213.84 L242.91 214.81 L243.33 215.76 L243.78 216.72 L244.25 217.66 L244.75 218.59 L245.29 219.49 L245.88 220.38 L246.55 221.21 L247.35 221.95 L248.44 222.43 L250.44 221.47 L252.44 217.66 L252.97 216.13 L253.31 215.01 L253.62 213.92 L253.90 212.85 L254.17 211.80 L254.42 210.74 L254.65 209.70 L254.88 208.66 L255.10 207.62 L255.31 206.59 L255.51 205.56 L255.71 204.53 L255.90 203.51 L256.09 202.48 L256.27 201.46 L256.45 200.45 L256.63 199.43 L256.81 198.42 L256.98 197.40 L257.15 196.39 L257.32 195.39 L257.48 194.38 L257.65 193.37 L257.81 192.37 L257.98 191.37 L258.14 190.37 L258.31 189.38 L258.47 188.38 L258.64 187.39 L258.81 186.40 L258.98 185.41 L259.15 184.43 L259.32 183.45 L259.50 182.48 L259.68 181.51 L259.87 180.55 L260.07 179.59 L260.28 178.65 L260.49 177.72 L260.73 176.81 L260.99 175.93 L261.28 175.10 L261.64 174.38 L262.13 173.93 L263.22 175.64 L263.87 178.54 L264.09 179.86 L264.26 180.96 L264.41 182.03 L264.55 183.09 L264.68 184.14 L264.81 185.18 L264.94 186.21 L265.06 187.24 L265.17 188.26 L265.29 189.27 L265.40 190.29 L265.51 191.29 L265.62 192.30 L265.73 193.29 L265.84 194.29 L265.95 195.28 L266.06 196.26 L266.17 197.24 L266.29 198.20 L266.41 199.16 L266.54 200.11 L266.67 201.04 L266.81 201.95 L266.97 202.83 L267.14 203.66 L267.36 204.37 L267.66 204.77 L268.42 202.23 L268.72 199.83 L268.84 198.63 L268.95 197.55 L269.04 196.50 L269.14 195.46 L269.22 194.43 L269.31 193.41 L269.39 192.40 L269.47 191.39 L269.56 190.40 L269.64 189.41 L269.72 188.43 L269.81 187.47 L269.90 186.51 L269.99 185.58 L270.09 184.67 L270.20 183.79 L270.32 182.98 L270.48 182.29 L270.70 182.01 L271.48 188.20 L271.61 190.02 L271.68 191.06 L271.75 192.07 L271.81 193.07 L271.88 194.06 L271.95 195.03 L272.01 195.98 L272.09 196.92 L272.16 197.82 L272.25 198.67 L272.35 199.44 L272.48 200.01 L272.71 199.63 L273.32 191.16 L273.39 189.88 L273.45 188.92 L273.51 187.99 L273.57 187.09 L273.64 186.25 L273.72 185.52 L273.84 185.07 L274.09 186.66 L274.25 189.31 L274.31 190.53 L274.36 191.57 L274.41 192.58 L274.45 193.56 L274.50 194.52 L274.55 195.44 L274.61 196.32 L274.67 197.12 L274.74 197.75 L274.87 197.75 L276.87 194.70 L277.52 195.05 L279.37 190.88 L279.81 192.90 L280.03 191.57 L280.19 192.40 L280.39 192.47 L282.39 190.58 L283.45 189.84 L284.89 194.12 L285.22 190.34 L285.31 188.20 L285.35 187.76 L285.45 188.25 L285.64 193.33 L285.68 194.37 L285.71 195.23 L285.75 196.00 L285.81 196.57 L285.91 196.28 L286.24 188.53 L286.29 187.74 L286.34 187.04 L286.42 186.69 L286.64 189.52 L286.72 191.36 L286.76 192.40 L286.81 193.39 L286.85 194.34 L286.89 195.27 L286.94 196.14 L286.99 196.95 L287.06 197.62 L287.16 197.90 L287.52 192.94 L287.60 191.38 L287.64 190.39 L287.69 189.43 L287.74 188.49 L287.79 187.59 L287.85 186.72 L287.92 185.93 L288.01 185.29 L288.14 185.12 L288.91 196.08 L288.98 197.11 L289.05 197.98 L289.13 198.81 L289.22 199.54 L289.35 200.05 L289.61 199.38 L289.99 195.16 L290.08 193.83 L290.15 192.80 L290.22 191.78 L290.29 190.79 L290.35 189.80 L290.42 188.83 L290.49 187.86 L290.56 186.92 L290.63 185.99 L290.72 185.08 L290.81 184.20 L290.91 183.37 L291.03 182.62 L291.19 182.08 L291.49 182.37 L292.51 191.83 L292.62 193.14 L292.70 194.13 L292.78 195.11 L292.87 196.09 L292.95 197.05 L293.04 198.01 L293.14 198.96 L293.23 199.90 L293.34 200.82 L293.45 201.72 L293.58 202.59 L293.73 203.41 L293.90 204.15 L294.15 204.69 L294.59 204.37 L295.96 195.62 L296.12 194.23 L296.23 193.21 L296.34 192.20 L296.45 191.20 L296.56 190.21 L296.67 189.21 L296.78 188.23 L296.89 187.24 L297.01 186.26 L297.12 185.29 L297.24 184.31 L297.36 183.35 L297.49 182.39 L297.62 181.43 L297.76 180.49 L297.91 179.55 L298.06 178.63 L298.23 177.72 L298.42 176.83 L298.63 175.97 L298.87 175.16 L299.18 174.45 L299.60 173.96 L300.47 174.66 L301.70 178.80 L302.00 180.20 L302.22 181.27 L302.42 182.31 L302.61 183.35 L302.79 184.38 L302.97 185.40 L303.14 186.42 L303.32 187.43 L303.48 188.44 L303.65 189.45 L303.82 190.46 L303.98 191.46 L304.15 192.46 L304.31 193.46 L304.48 194.46 L304.64 195.45 L304.81 196.45 L304.98 197.44 L305.14 198.43 L305.31 199.42 L305.49 200.40 L305.66 201.39 L305.84 202.37 L306.02 203.35 L306.20 204.33 L306.39 205.31 L306.58 206.29 L306.77 207.26 L306.98 208.23 L307.18 209.20 L307.40 210.17 L307.62 211.13 L307.85 212.08 L308.09 213.04 L308.35 213.99 L308.61 214.93 L308.89 215.87 L309.20 216.79 L309.52 217.71 L309.88 218.61 L310.27 219.49 L310.72 220.34 L311.25 221.15 L311.90 221.87 L312.81 222.38 L314.57 221.96 L316.57 219.63 L317.43 218.16 L318.02 217.02 L318.53 215.94 L319.01 214.88 L319.46 213.84 L319.88 212.80 L320.30 211.76 L320.70 210.74 L321.08 209.71 L321.46 208.69 L321.83 207.67 L322.20 206.66 L322.56 205.64 L322.91 204.63 L323.26 203.62 L323.60 202.61 L323.95 201.60 L324.29 200.60 L324.62 199.59 L324.96 198.58 L325.29 197.58 L325.63 196.58 L325.96 195.57 L326.29 194.57 L326.62 193.57 L326.95 192.57 L327.28 191.57 L327.61 190.57 L327.93 189.57 L328.26 188.57 L328.59 187.57 L328.92 186.57 L329.25 185.58 L329.59 184.58 L329.92 183.58 L330.25 182.59 L330.59 181.59 L330.92 180.59 L331.26 179.60 L331.60 178.60 L331.94 177.61 L332.28 176.61 L332.62 175.62 L332.97 174.62 L333.32 173.63 L333.67 172.64 L334.02 171.64 L334.37 170.65 L334.73 169.66 L335.09 168.66 L335.45 167.67 L335.82 166.68 L336.18 165.69 L336.55 164.70 L336.93 163.70 L337.30 162.71 L337.68 161.72 L338.07 160.73 L338.45 159.74 L338.84 158.75 L339.24 157.76 L339.63 156.77 L340.04 155.78 L340.44 154.79 L340.85 153.80 L341.27 152.81 L341.68 151.82 L342.11 150.83 L342.54 149.84 L342.97 148.85 L343.41 147.87 L343.85 146.88 L344.30 145.89 L344.75 144.90 L345.21 143.92 L345.68 142.93 L346.15 141.94 L346.63 140.95 L347.11 139.97 L347.60 138.98 L348.10 138.00 L348.60 137.01 L349.11 136.02 L349.63 135.04 L350.16 134.05 L350.69 133.07 L351.24 132.08 L351.79 131.10 L352.35 130.11 L352.92 129.13 L353.50 128.15 L354.09 127.16 L354.68 126.18 L355.29 125.20 L355.91 124.22 L356.54 123.23 L357.18 122.25 L357.84 121.27 L358.50 120.29 L359.18 119.31 L359.87 118.33 L360.58 117.35 L361.30 116.37 L362.03 115.39 L362.78 114.41 L363.54 113.43 L364.33 112.45 L365.13 111.47 L365.94 110.49 L366.78 109.52 L367.63 108.54 L368.51 107.56 L369.40 106.59 L370.32 105.61 L371.26 104.64 L372.23 103.66 L373.22 102.69 L374.23 101.72 L375.28 100.74 L376.35 99.77 L377.46 98.80 L378.59 97.83 L379.76 96.86 L380.97 95.89 L382.21 94.92 L383.49 93.95 L384.81 92.98 L386.18 92.01 L387.59 91.05 L389.06 90.08 L390.57 89.12 L392.14 88.15 L393.77 87.19 L395.47 86.23 L397.23 85.27 L399.06 84.31 L400.97 83.35 L402.96 82.39 L404.96 81.47 L406.96 80.60 L408.96 79.75 L410.96 78.95 L412.96 78.17 L414.96 77.43 L416.96 76.72 L418.96 76.04 L420.96 75.38 L422.96 74.75 L424.96 74.14 L426.96 73.56 L428.96 72.99 L430.96 72.45 L432.96 71.93 L434.96 71.43 L436.96 70.95 L438.96 70.48 L440.96 70.03 L442.96 69.59 L444.96 69.17 L446.96 68.77 L448.96 68.38 L450.96 68.00 L452.96 67.63 L454.96 67.28 L456.96 66.93 L458.96 66.60 L460.96 66.28 L462.96 65.97 L464.96 65.67 L466.96 65.37 L468.96 65.09 L470.96 64.82 L472.96 64.55 L474.96 64.29 L476.96 64.04 L478.96 63.80 L480.96 63.56 L482.96 63.33 L484.96 63.10 L486.96 62.89 L488.96 62.68 L490.96 62.47 L492.96 62.27 L494.96 62.08 L496.96 61.89 L498.96 61.70 L500.96 61.52 L502.96 61.35 L504.96 61.18 L506.96 61.01 L508.96 60.85 L510.96 60.69 L512.96 60.54 L514.96 60.39 L516.96 60.24 L518.96 60.10 L520.96 59.96 L522.96 59.83 L524.96 59.69 L526.96 59.56 L528.96 59.44 L530.96 59.31 L532.96 59.19 L534.96 59.08 L536.96 58.96 L538.96 58.85 L540.96 58.74 L542.96 58.63 L544.96 58.53 L546.96 58.42 L548.96 58.32 L550.96 58.22 L552.96 58.13 L554.96 58.03 L556.96 57.94 L558.96 57.85 L560.96 57.76 L562.96 57.68 L564.96 57.59 L566.96 57.51 L568.96 57.43 L570.96 57.35 L572.96 57.27 L574.96 57.19 L576.96 57.12 L578.96 57.05 L580.96 56.97 L582.96 56.90 L584.96 56.83 L586.96 56.77 L588.96 56.70 L590.96 56.64 L592.96 56.57 L594.96 56.51 L596.96 56.45 L598.96 56.39 L600.96 56.33 L602.96 56.27 L604.96 56.21 L606.96 56.15 L608.96 56.10 L610.96 56.05 L612.96 55.99 L614.96 55.94 L616.96 55.89 " style="fill:none;stroke:#000000;stroke-width:1;" /></g></svg>