<?xml version="1.0" standalone="no"?><!DOCTYPE svg PUBLIC "-//W3C//DTD SVG 1.1//EN" "http://www.w3.org/Graphics/SVG/1.1/DTD/svg11.dtd"><svg xmlns="http://www.w3.org/2000/svg" viewBox="0 0 650 400" version="1.1"><clipPath id="box"><rect x="0" y="0" width="650" height="400" style="fill:none;stroke:none;" /></clipPath><g clip-path="url(#box)"><rect x="0.00" y="0.00" width="650.00" height="400.00" style="fill:#FFFFFF;stroke:none;" /><path d="M0.00 349.00 L650.00 349.00 M0.00 283.00 L650.00 283.00 M0.00 217.00 L650.00 217.00 M0.00 152.00 L650.00 152.00 M0.00 86.00 L650.00 86.00 M0.00 20.00 L650.00 20.00 M40.00 0.00 L40.00 400.00 M105.00 0.00 L105.00 400.00 M171.00 0.00 L171.00 400.00 M236.00 0.00 L236.00 400.00 M302.00 0.00 L302.00 400.00 M368.00 0.00 L368.00 400.00 M433.00 0.00 L433.00 400.00 M499.00 0.00 L499.00 400.00 M565.00 0.00 L565.00 400.00 M630.00 0.00 L630.00 400.00 " style="fill:none;stroke:#D0D0D0;stroke-width:1;" /><path d="M302.60 0.00 L302.60 400.00 " style="fill:none;stroke:#000000;stroke-width:1;" /><path d="M296.10 414.87 L309.10 414.87 M296.10 349.22 L309.10 349.22 M296.10 283.57 L309.10 283.57 M296.10 217.93 L309.10 217.93 M296.10 152.28 L309.10 152.28 M296.10 86.64 L309.10 86.64 M296.10 20.99 L309.10 20.99 " style="fill:none;stroke:#000000;stroke-width:1;" /><path d="M0.00 86.64 L650.00 86.64 " style="fill:none;stroke:#000000;stroke-width:1;" /><path d="M-25.63 80.14 L-25.63 93.14 M40.02 80.14 L40.02 93.14 M105.66 80.14 L105.66 93.14 M171.31 80.14 L171.31 93.14 M236.96 80.14 L236.96 93.14 M302.60 80.14 L302.60 93.14 M368.25 80.14 L368.25 93.14 M433.90 80.14 L433.90 93.14 M499.54 80.14 L499.54 93.14 M565.19 80.14 L565.19 93.14 M630.83 80.14 L630.83 93.14 " style="fill:none;stroke:#000000;stroke-width:1;" /><text x="310.72800618239995" y="351.7204162474287" text-anchor="start" style="font:10px Droid Sans,Trebuchet MS,Arial,Helvetica,sans-serif;stroke:none;fill:#000000">-2</text><text x="310.72800618239995" y="286.07421232507465" text-anchor="start" style="font:10px Droid Sans,Trebuchet MS,Arial,Helvetica,sans-serif;stroke:none;fill:#000000">-1.5</text><text x="310.72800618239995" y="220.4280084027206" text-anchor="start" style="font:10px Droid Sans,Trebuchet MS,Arial,Helvetica,sans-serif;stroke:none;fill:#000000">-1</text><text x="310.72800618239995" y="154.78180448036653" text-anchor="start" style="font:10px Droid Sans,Trebuchet MS,Arial,Helvetica,sans-serif;stroke:none;fill:#000000">-0.5</text><text x="310.72800618239995" y="89.13560055801244" text-anchor="start" style="font:10px Droid Sans,Trebuchet MS,Arial,Helvetica,sans-serif;stroke:none;fill:#000000">0</text><text x="310.72800618239995" y="23.489396635658377" text-anchor="start" style="font:10px Droid Sans,Trebuchet MS,Arial,Helvetica,sans-serif;stroke:none;fill:#000000">0.5</text><text x="40.01819049298357" y="102.76060055801244" text-anchor="middle" style="font:10px Droid Sans,Trebuchet MS,Arial,Helvetica,sans-serif;stroke:none;fill:#000000">-2</text><text x="105.66439441533765" y="102.76060055801244" text-anchor="middle" style="font:10px Droid Sans,Trebuchet MS,Arial,Helvetica,sans-serif;stroke:none;fill:#000000">-1.5</text><text x="171.31059833769174" y="102.76060055801244" text-anchor="middle" style="font:10px Droid Sans,Trebuchet MS,Arial,Helvetica,sans-serif;stroke:none;fill:#000000">-1</text><text x="236.95680226004583" y="102.76060055801244" text-anchor="middle" style="font:10px Droid Sans,Trebuchet MS,Arial,Helvetica,sans-serif;stroke:none;fill:#000000">-0.5</text><text x="302.60300618239995" y="102.76060055801244" text-anchor="middle" style="font:10px Droid Sans,Trebuchet MS,Arial,Helvetica,sans-serif;stroke:none;fill:#000000">0</text><text x="368.24921010475407" y="102.76060055801244" text-anchor="middle" style="font:10px Droid Sans,Trebuchet MS,Arial,Helvetica,sans-serif;stroke:none;fill:#000000">0.5</text><text x="433.89541402710813" y="102.76060055801244" text-anchor="middle" style="font:10px Droid Sans,Trebuchet MS,Arial,Helvetica,sans-serif;stroke:none;fill:#000000">1</text><text x="499.5416179494622" y="102.76060055801244" text-anchor="middle" style="font:10px Droid Sans,Trebuchet MS,Arial,Helvetica,sans-serif;stroke:none;fill:#000000">1.5</text><text x="565.1878218718163" y="102.76060055801244" text-anchor="middle" style="font:10px Droid Sans,Trebuchet MS,Arial,Helvetica,sans-serif;stroke:none;fill:#000000">2</text><text x="630.8340257941704" y="102.76060055801244" text-anchor="middle" style="font:10px Droid Sans,Trebuchet MS,Arial,Helvetica,sans-serif;stroke:none;fill:#000000">2.5</text><path d="M171.31 218.25 L171.31 218.53 L171.32 219.07 L171.32 219.67 L171.33 220.36 L171.35 221.11 L171.37 221.89 L171.40 222.71 L171.43 223.55 L171.47 224.41 L171.52 225.28 L171.57 226.17 L171.63 227.07 L171.70 227.97 L171.77 228.89 L171.85 229.81 L171.94 230.73 L172.03 231.66 L172.13 232.59 L172.24 233.53 L172.36 234.47 L172.48 235.42 L172.61 236.36 L172.75 237.31 L172.89 238.26 L173.05 239.22 L173.21 240.17 L173.38 241.13 L173.55 242.09 L173.74 243.05 L173.93 244.01 L174.13 244.97 L174.33 245.93 L174.55 246.90 L174.77 247.86 L175.00 248.83 L175.24 249.80 L175.48 250.76 L175.74 251.73 L176.00 252.70 L176.27 253.67 L176.55 254.64 L176.84 255.62 L177.13 256.59 L177.44 257.56 L177.75 258.54 L178.07 259.51 L178.40 260.48 L178.74 261.46 L179.08 262.43 L179.44 263.41 L179.80 264.38 L180.18 265.36 L180.56 266.34 L180.95 267.31 L181.35 268.29 L181.77 269.27 L182.19 270.25 L182.61 271.22 L183.05 272.20 L183.50 273.18 L183.96 274.16 L184.43 275.14 L184.91 276.12 L185.40 277.10 L185.90 278.08 L186.41 279.06 L186.93 280.04 L187.46 281.02 L188.00 282.00 L188.56 282.98 L189.12 283.96 L189.70 284.94 L190.29 285.92 L190.89 286.90 L191.50 287.88 L192.12 288.86 L192.76 289.84 L193.40 290.82 L194.07 291.80 L194.74 292.78 L195.43 293.76 L196.13 294.74 L196.84 295.72 L197.57 296.70 L198.31 297.69 L199.07 298.67 L199.84 299.65 L200.63 300.63 L201.43 301.61 L202.25 302.59 L203.09 303.57 L203.94 304.55 L204.81 305.53 L205.70 306.51 L206.60 307.49 L207.52 308.47 L208.47 309.45 L209.43 310.43 L210.41 311.41 L211.41 312.39 L212.44 313.36 L213.49 314.34 L214.56 315.32 L215.65 316.30 L216.77 317.28 L217.91 318.25 L219.08 319.23 L220.28 320.21 L221.51 321.18 L222.77 322.16 L224.06 323.13 L225.38 324.11 L226.74 325.08 L228.13 326.06 L229.56 327.03 L231.04 328.00 L232.55 328.97 L234.11 329.94 L235.72 330.91 L237.38 331.88 L239.10 332.84 L240.88 333.81 L242.72 334.77 L244.64 335.73 L246.63 336.69 L248.63 337.61 L250.63 338.49 L252.63 339.34 L254.63 340.14 L256.63 340.91 L258.63 341.64 L260.63 342.33 L262.63 342.99 L264.63 343.61 L266.63 344.20 L268.63 344.75 L270.63 345.27 L272.63 345.75 L274.63 346.21 L276.63 346.63 L278.63 347.01 L280.63 347.37 L282.63 347.69 L284.63 347.98 L286.63 348.24 L288.63 348.47 L290.63 348.67 L292.63 348.84 L294.63 348.98 L296.63 349.08 L298.63 349.16 L300.63 349.21 L302.63 349.22 L304.63 349.20 L306.63 349.16 L308.63 349.08 L310.63 348.97 L312.63 348.84 L314.63 348.67 L316.63 348.47 L318.63 348.24 L320.63 347.98 L322.63 347.68 L324.63 347.36 L326.63 347.00 L328.63 346.62 L330.63 346.19 L332.63 345.74 L334.63 345.25 L336.63 344.73 L338.63 344.18 L340.63 343.59 L342.63 342.97 L344.63 342.31 L346.63 341.62 L348.63 340.89 L350.63 340.12 L352.63 339.32 L354.63 338.47 L356.63 337.59 L358.63 336.67 L360.63 335.70 L362.63 334.70 L364.62 333.65 L366.52 332.61 L368.35 331.57 L370.11 330.54 L371.81 329.50 L373.45 328.47 L375.03 327.43 L376.57 326.40 L378.06 325.37 L379.50 324.34 L380.91 323.31 L382.27 322.29 L383.60 321.26 L384.89 320.23 L386.15 319.21 L387.38 318.18 L388.58 317.16 L389.75 316.13 L390.89 315.11 L392.00 314.08 L393.09 313.06 L394.15 312.04 L395.19 311.02 L396.21 309.99 L397.20 308.97 L398.17 307.95 L399.13 306.93 L400.06 305.91 L400.97 304.88 L401.86 303.86 L402.74 302.84 L403.60 301.82 L404.44 300.80 L405.26 299.78 L406.06 298.76 L406.85 297.74 L407.63 296.72 L408.38 295.70 L409.13 294.68 L409.85 293.66 L410.57 292.64 L411.27 291.62 L411.95 290.60 L412.62 289.58 L413.28 288.55 L413.93 287.53 L414.56 286.51 L415.18 285.49 L415.78 284.47 L416.38 283.45 L416.96 282.43 L417.53 281.41 L418.09 280.39 L418.63 279.37 L419.17 278.35 L419.69 277.32 L420.20 276.30 L420.71 275.28 L421.20 274.26 L421.68 273.24 L422.15 272.21 L422.61 271.19 L423.06 270.17 L423.49 269.14 L423.92 268.12 L424.34 267.09 L424.75 266.07 L425.15 265.05 L425.54 264.02 L425.92 262.99 L426.29 261.97 L426.65 260.94 L427.00 259.91 L427.34 258.89 L427.68 257.86 L428.00 256.83 L428.31 255.80 L428.62 254.77 L428.92 253.74 L429.21 252.71 L429.48 251.68 L429.75 250.64 L430.02 249.61 L430.27 248.57 L430.51 247.54 L430.75 246.50 L430.98 245.46 L431.20 244.42 L431.41 243.38 L431.61 242.33 L431.80 241.29 L431.99 240.24 L432.16 239.19 L432.33 238.14 L432.49 237.08 L432.64 236.03 L432.79 234.97 L432.92 233.90 L433.05 232.83 L433.17 231.75 L433.28 230.67 L433.38 229.58 L433.47 228.48 L433.56 227.37 L433.63 226.24 L433.70 225.10 L433.76 223.92 L433.81 222.70 L433.85 221.39 L433.88 219.86 " style="fill:none;stroke:#000000;stroke-width:1;" /><path d="M171.31 217.60 L171.31 217.32 L171.32 216.79 L171.32 216.18 L171.33 215.49 L171.35 214.75 L171.37 213.96 L171.40 213.15 L171.43 212.31 L171.47 211.45 L171.52 210.57 L171.57 209.68 L171.63 208.79 L171.70 207.88 L171.77 206.97 L171.85 206.05 L171.94 205.13 L172.03 204.20 L172.13 203.26 L172.24 202.32 L172.36 201.38 L172.48 200.44 L172.61 199.49 L172.75 198.54 L172.89 197.59 L173.05 196.64 L173.21 195.69 L173.38 194.73 L173.55 193.77 L173.74 192.81 L173.93 191.85 L174.13 190.89 L174.33 189.92 L174.55 188.96 L174.77 187.99 L175.00 187.03 L175.24 186.06 L175.48 185.09 L175.74 184.12 L176.00 183.15 L176.27 182.18 L176.55 181.21 L176.84 180.24 L177.13 179.27 L177.44 178.29 L177.75 177.32 L178.07 176.35 L178.40 175.37 L178.74 174.40 L179.08 173.42 L179.44 172.45 L179.80 171.47 L180.18 170.50 L180.56 169.52 L180.95 168.54 L181.35 167.56 L181.77 166.59 L182.19 165.61 L182.61 164.63 L183.05 163.65 L183.50 162.67 L183.96 161.70 L184.43 160.72 L184.91 159.74 L185.40 158.76 L185.90 157.78 L186.41 156.80 L186.93 155.82 L187.46 154.84 L188.00 153.86 L188.56 152.88 L189.12 151.90 L189.70 150.92 L190.29 149.94 L190.89 148.96 L191.50 147.98 L192.12 147.00 L192.76 146.02 L193.40 145.04 L194.07 144.05 L194.74 143.07 L195.43 142.09 L196.13 141.11 L196.84 140.13 L197.57 139.15 L198.31 138.17 L199.07 137.19 L199.84 136.21 L200.63 135.23 L201.43 134.25 L202.25 133.27 L203.09 132.29 L203.94 131.31 L204.81 130.33 L205.70 129.35 L206.60 128.37 L207.52 127.39 L208.47 126.41 L209.43 125.43 L210.41 124.45 L211.41 123.47 L212.44 122.49 L213.49 121.51 L214.56 120.53 L215.65 119.56 L216.77 118.58 L217.91 117.60 L219.08 116.62 L220.28 115.65 L221.51 114.67 L222.77 113.70 L224.06 112.72 L225.38 111.75 L226.74 110.77 L228.13 109.80 L229.56 108.83 L231.04 107.86 L232.55 106.89 L234.11 105.92 L235.72 104.95 L237.38 103.98 L239.10 103.01 L240.88 102.05 L242.72 101.09 L244.64 100.12 L246.63 99.17 L248.63 98.24 L250.63 97.36 L252.63 96.52 L254.63 95.71 L256.63 94.95 L258.63 94.22 L260.63 93.53 L262.63 92.87 L264.63 92.25 L266.63 91.66 L268.63 91.11 L270.63 90.59 L272.63 90.10 L274.63 89.65 L276.63 89.23 L278.63 88.84 L280.63 88.49 L282.63 88.16 L284.63 87.87 L286.63 87.61 L288.63 87.38 L290.63 87.18 L292.63 87.02 L294.63 86.88 L296.63 86.77 L298.63 86.70 L300.63 86.65 L302.63 86.64 L304.63 86.65 L306.63 86.70 L308.63 86.77 L310.63 86.88 L312.63 87.02 L314.63 87.19 L316.63 87.39 L318.63 87.62 L320.63 87.88 L322.63 88.17 L324.63 88.50 L326.63 88.85 L328.63 89.24 L330.63 89.66 L332.63 90.11 L334.63 90.60 L336.63 91.12 L338.63 91.67 L340.63 92.26 L342.63 92.89 L344.63 93.54 L346.63 94.24 L348.63 94.97 L350.63 95.73 L352.63 96.54 L354.63 97.38 L356.63 98.27 L358.63 99.19 L360.63 100.15 L362.63 101.16 L364.62 102.20 L366.52 103.24 L368.35 104.28 L370.11 105.32 L371.81 106.36 L373.45 107.39 L375.03 108.42 L376.57 109.45 L378.06 110.48 L379.50 111.51 L380.91 112.54 L382.27 113.57 L383.60 114.60 L384.89 115.62 L386.15 116.65 L387.38 117.68 L388.58 118.70 L389.75 119.72 L390.89 120.75 L392.00 121.77 L393.09 122.80 L394.15 123.82 L395.19 124.84 L396.21 125.86 L397.20 126.89 L398.17 127.91 L399.13 128.93 L400.06 129.95 L400.97 130.97 L401.86 131.99 L402.74 133.01 L403.60 134.03 L404.44 135.06 L405.26 136.08 L406.06 137.10 L406.85 138.12 L407.63 139.14 L408.38 140.16 L409.13 141.18 L409.85 142.20 L410.57 143.22 L411.27 144.24 L411.95 145.26 L412.62 146.28 L413.28 147.30 L413.93 148.32 L414.56 149.34 L415.18 150.36 L415.78 151.38 L416.38 152.40 L416.96 153.43 L417.53 154.45 L418.09 155.47 L418.63 156.49 L419.17 157.51 L419.69 158.53 L420.20 159.55 L420.71 160.58 L421.20 161.60 L421.68 162.62 L422.15 163.64 L422.61 164.67 L423.06 165.69 L423.49 166.71 L423.92 167.74 L424.34 168.76 L424.75 169.79 L425.15 170.81 L425.54 171.84 L425.92 172.86 L426.29 173.89 L426.65 174.91 L427.00 175.94 L427.34 176.97 L427.68 178.00 L428.00 179.03 L428.31 180.06 L428.62 181.09 L428.92 182.12 L429.21 183.15 L429.48 184.18 L429.75 185.21 L430.02 186.25 L430.27 187.28 L430.51 188.32 L430.75 189.36 L430.98 190.40 L431.20 191.44 L431.41 192.48 L431.61 193.52 L431.80 194.57 L431.99 195.61 L432.16 196.66 L432.33 197.72 L432.49 198.77 L432.64 199.83 L432.79 200.89 L432.92 201.96 L433.05 203.03 L433.17 204.10 L433.28 205.18 L433.38 206.27 L433.47 207.37 L433.56 208.49 L433.63 209.61 L433.70 210.76 L433.76 211.94 L433.81 213.16 L433.85 214.47 L433.88 215.99 " style="fill:none;stroke:#000000;stroke-width:1;" /></g></svg>