<?xml version="1.0" standalone="no"?><!DOCTYPE svg PUBLIC "-//W3C//DTD SVG 1.1//EN" "http://www.w3.org/Graphics/SVG/1.1/DTD/svg11.dtd"><svg xmlns="http://www.w3.org/2000/svg" viewBox="0 0 618 368" version="1.1"><clipPath id="box"><rect x="0" y="0" width="618" height="368" style="fill:none;stroke:none;" /></clipPath><g clip-path="url(#box)"><rect x="0.00" y="0.00" width="618.00" height="368.00" style="fill:#FFFFFF;stroke:none;" /><path d="M0.00 368.00 L618.00 368.00 M0.00 322.00 L618.00 322.00 M0.00 276.00 L618.00 276.00 M0.00 230.00 L618.00 230.00 M0.00 184.00 L618.00 184.00 M0.00 138.00 L618.00 138.00 M0.00 92.00 L618.00 92.00 M0.00 46.00 L618.00 46.00 M0.00 0.00 L618.00 0.00 M23.00 0.00 L23.00 368.00 M71.00 0.00 L71.00 368.00 M118.00 0.00 L118.00 368.00 M166.00 0.00 L166.00 368.00 M213.00 0.00 L213.00 368.00 M261.00 0.00 L261.00 368.00 M309.00 0.00 L309.00 368.00 M356.00 0.00 L356.00 368.00 M404.00 0.00 L404.00 368.00 M451.00 0.00 L451.00 368.00 M499.00 0.00 L499.00 368.00 M546.00 0.00 L546.00 368.00 M594.00 0.00 L594.00 368.00 " style="fill:none;stroke:#D0D0D0;stroke-width:1;" /><path d="M309.00 0.00 L309.00 368.00 " style="fill:none;stroke:#000000;stroke-width:1;" /><path d="M302.82 368.00 L315.18 368.00 M302.82 322.00 L315.18 322.00 M302.82 276.00 L315.18 276.00 M302.82 230.00 L315.18 230.00 M302.82 184.00 L315.18 184.00 M302.82 138.00 L315.18 138.00 M302.82 92.00 L315.18 92.00 M302.82 46.00 L315.18 46.00 M302.82 0.00 L315.18 0.00 " style="fill:none;stroke:#000000;stroke-width:1;" /><path d="M0.00 184.00 L618.00 184.00 " style="fill:none;stroke:#000000;stroke-width:1;" /><path d="M-23.77 177.82 L-23.77 190.18 M23.77 177.82 L23.77 190.18 M71.31 177.82 L71.31 190.18 M118.85 177.82 L118.85 190.18 M166.38 177.82 L166.38 190.18 M213.92 177.82 L213.92 190.18 M261.46 177.82 L261.46 190.18 M309.00 177.82 L309.00 190.18 M356.54 177.82 L356.54 190.18 M404.08 177.82 L404.08 190.18 M451.62 177.82 L451.62 190.18 M499.15 177.82 L499.15 190.18 M546.69 177.82 L546.69 190.18 M594.23 177.82 L594.23 190.18 " style="fill:none;stroke:#000000;stroke-width:1;" /><text x="316.725" y="324.5" text-anchor="start" style="font:10px Droid Sans,Trebuchet MS,Arial,Helvetica,sans-serif;stroke:none;fill:#000000">-3</text><text x="316.725" y="278.5" text-anchor="start" style="font:10px Droid Sans,Trebuchet MS,Arial,Helvetica,sans-serif;stroke:none;fill:#000000">-2</text><text x="316.725" y="232.5" text-anchor="start" style="font:10px Droid Sans,Trebuchet MS,Arial,Helvetica,sans-serif;stroke:none;fill:#000000">-1</text><text x="316.725" y="186.5" text-anchor="start" style="font:10px Droid Sans,Trebuchet MS,Arial,Helvetica,sans-serif;stroke:none;fill:#000000">0</text><text x="316.725" y="140.5" text-anchor="start" style="font:10px Droid Sans,Trebuchet MS,Arial,Helvetica,sans-serif;stroke:none;fill:#000000">1</text><text x="316.725" y="94.5" text-anchor="start" style="font:10px Droid Sans,Trebuchet MS,Arial,Helvetica,sans-serif;stroke:none;fill:#000000">2</text><text x="316.725" y="48.5" text-anchor="start" style="font:10px Droid Sans,Trebuchet MS,Arial,Helvetica,sans-serif;stroke:none;fill:#000000">3</text><text x="23.76923076923077" y="199.725" text-anchor="middle" style="font:10px Droid Sans,Trebuchet MS,Arial,Helvetica,sans-serif;stroke:none;fill:#000000">-6</text><text x="71.3076923076923" y="199.725" text-anchor="middle" style="font:10px Droid Sans,Trebuchet MS,Arial,Helvetica,sans-serif;stroke:none;fill:#000000">-5</text><text x="118.84615384615385" y="199.725" text-anchor="middle" style="font:10px Droid Sans,Trebuchet MS,Arial,Helvetica,sans-serif;stroke:none;fill:#000000">-4</text><text x="166.3846153846154" y="199.725" text-anchor="middle" style="font:10px Droid Sans,Trebuchet MS,Arial,Helvetica,sans-serif;stroke:none;fill:#000000">-3</text><text x="213.9230769230769" y="199.725" text-anchor="middle" style="font:10px Droid Sans,Trebuchet MS,Arial,Helvetica,sans-serif;stroke:none;fill:#000000">-2</text><text x="261.46153846153845" y="199.725" text-anchor="middle" style="font:10px Droid Sans,Trebuchet MS,Arial,Helvetica,sans-serif;stroke:none;fill:#000000">-1</text><text x="309" y="199.725" text-anchor="middle" style="font:10px Droid Sans,Trebuchet MS,Arial,Helvetica,sans-serif;stroke:none;fill:#000000">0</text><text x="356.5384615384615" y="199.725" text-anchor="middle" style="font:10px Droid Sans,Trebuchet MS,Arial,Helvetica,sans-serif;stroke:none;fill:#000000">1</text><text x="404.0769230769231" y="199.725" text-anchor="middle" style="font:10px Droid Sans,Trebuchet MS,Arial,Helvetica,sans-serif;stroke:none;fill:#000000">2</text><text x="451.6153846153846" y="199.725" text-anchor="middle" style="font:10px Droid Sans,Trebuchet MS,Arial,Helvetica,sans-serif;stroke:none;fill:#000000">3</text><text x="499.1538461538462" y="199.725" text-anchor="middle" style="font:10px Droid Sans,Trebuchet MS,Arial,Helvetica,sans-serif;stroke:none;fill:#000000">4</text><text x="546.6923076923076" y="199.725" text-anchor="middle" style="font:10px Droid Sans,Trebuchet MS,Arial,Helvetica,sans-serif;stroke:none;fill:#000000">5</text><text x="594.2307692307693" y="199.725" text-anchor="middle" style="font:10px Droid Sans,Trebuchet MS,Arial,Helvetica,sans-serif;stroke:none;fill:#000000">6</text><path d="M-10.00 184.00 L-0.25 161.24 L0.75 160.27 L1.78 159.27 L2.82 158.27 L3.85 157.27 L4.88 156.27 L5.92 155.27 L6.95 154.27 L7.98 153.27 L9.02 152.27 L10.05 151.27 L11.08 150.27 L12.12 149.27 L13.15 148.27 L14.19 147.27 L15.22 146.27 L16.25 145.27 L17.29 144.27 L18.32 143.27 L19.35 142.27 L20.39 141.27 L21.42 140.27 L22.45 139.27 L23.49 138.27 L24.52 183.27 L24.54 183.25 L25.58 182.25 L26.61 181.25 L27.64 180.25 L28.68 179.25 L29.71 178.25 L30.74 177.25 L31.78 176.25 L32.81 175.25 L33.84 174.25 L34.88 173.25 L35.91 172.25 L36.94 171.25 L37.98 170.25 L39.01 169.25 L40.04 168.25 L41.08 167.25 L42.11 166.25 L43.14 165.25 L44.18 164.25 L45.21 163.25 L46.24 162.25 L47.28 161.25 L48.31 160.25 L49.35 159.25 L50.38 158.25 L51.41 157.25 L52.45 156.25 L53.48 155.25 L54.51 154.25 L55.55 153.25 L56.58 152.25 L57.61 151.25 L58.65 150.25 L59.68 149.25 L60.71 148.25 L61.75 147.25 L62.78 146.25 L63.81 145.25 L64.85 144.25 L65.88 143.25 L66.91 142.25 L67.95 141.25 L68.98 140.25 L70.01 139.25 L71.05 138.25 L72.08 183.25 L72.10 183.23 L73.14 182.23 L74.17 181.23 L75.20 180.23 L76.24 179.23 L77.27 178.23 L78.30 177.23 L79.34 176.23 L80.37 175.23 L81.40 174.23 L82.44 173.23 L83.47 172.23 L84.51 171.23 L85.54 170.23 L86.57 169.23 L87.61 168.23 L88.64 167.23 L89.67 166.23 L90.71 165.23 L91.74 164.23 L92.77 163.23 L93.81 162.23 L94.84 161.23 L95.87 160.23 L96.91 159.23 L97.94 158.23 L98.97 157.23 L100.01 156.23 L101.04 155.23 L102.07 154.23 L103.11 153.23 L104.14 152.23 L105.17 151.23 L106.21 150.23 L107.24 149.23 L108.27 148.23 L109.31 147.23 L110.34 146.23 L111.37 145.23 L112.41 144.23 L113.44 143.23 L114.48 142.23 L115.51 141.23 L116.54 140.23 L117.58 139.23 L118.61 138.23 L119.64 183.23 L119.67 183.21 L120.70 182.21 L121.73 181.21 L122.77 180.21 L123.80 179.21 L124.83 178.21 L125.87 177.21 L126.90 176.21 L127.93 175.21 L128.97 174.21 L130.00 173.21 L131.03 172.21 L132.07 171.21 L133.10 170.21 L134.13 169.21 L135.17 168.21 L136.20 167.21 L137.23 166.21 L138.27 165.21 L139.30 164.21 L140.33 163.21 L141.37 162.21 L142.40 161.21 L143.43 160.21 L144.47 159.21 L145.50 158.21 L146.53 157.21 L147.57 156.21 L148.60 155.21 L149.64 154.21 L150.67 153.21 L151.70 152.21 L152.74 151.21 L153.77 150.21 L154.80 149.21 L155.84 148.21 L156.87 147.21 L157.90 146.21 L158.94 145.21 L159.97 144.21 L161.00 143.21 L162.04 142.21 L163.07 141.21 L164.10 140.21 L165.14 139.21 L166.17 138.21 L167.20 183.21 L167.23 183.19 L168.26 182.19 L169.29 181.19 L170.33 180.19 L171.36 179.19 L172.39 178.19 L173.43 177.19 L174.46 176.19 L175.49 175.19 L176.53 174.19 L177.56 173.19 L178.59 172.19 L179.63 171.19 L180.66 170.19 L181.69 169.19 L182.73 168.19 L183.76 167.19 L184.80 166.19 L185.83 165.19 L186.86 164.19 L187.90 163.19 L188.93 162.19 L189.96 161.19 L191.00 160.19 L192.03 159.19 L193.06 158.19 L194.10 157.19 L195.13 156.19 L196.16 155.19 L197.20 154.19 L198.23 153.19 L199.26 152.19 L200.30 151.19 L201.33 150.19 L202.36 149.19 L203.40 148.19 L204.43 147.19 L205.46 146.19 L206.50 145.19 L207.53 144.19 L208.56 143.19 L209.60 142.19 L210.63 141.19 L211.66 140.19 L212.70 139.19 L213.73 138.19 L214.77 183.19 L214.79 183.16 L215.82 182.16 L216.86 181.16 L217.89 180.16 L218.92 179.16 L219.96 178.16 L220.99 177.16 L222.02 176.16 L223.06 175.16 L224.09 174.16 L225.12 173.16 L226.16 172.16 L227.19 171.16 L228.22 170.16 L229.26 169.16 L230.29 168.16 L231.32 167.16 L232.36 166.16 L233.39 165.16 L234.42 164.16 L235.46 163.16 L236.49 162.16 L237.52 161.16 L238.56 160.16 L239.59 159.16 L240.62 158.16 L241.66 157.16 L242.69 156.16 L243.72 155.16 L244.76 154.16 L245.79 153.16 L246.82 152.16 L247.86 151.16 L248.89 150.16 L249.93 149.16 L250.96 148.16 L251.99 147.16 L253.03 146.16 L254.06 145.16 L255.09 144.16 L256.13 143.16 L257.16 142.16 L258.19 141.16 L259.23 140.16 L260.26 139.16 L261.29 138.16 L262.33 183.16 L262.35 183.14 L263.38 182.14 L264.42 181.14 L265.45 180.14 L266.48 179.14 L267.52 178.14 L268.55 177.14 L269.58 176.14 L270.62 175.14 L271.65 174.14 L272.68 173.14 L273.72 172.14 L274.75 171.14 L275.78 170.14 L276.82 169.14 L277.85 168.14 L278.88 167.14 L279.92 166.14 L280.95 165.14 L281.99 164.14 L283.02 163.14 L284.05 162.14 L285.09 161.14 L286.12 160.14 L287.15 159.14 L288.19 158.14 L289.22 157.14 L290.25 156.14 L291.29 155.14 L292.32 154.14 L293.35 153.14 L294.39 152.14 L295.42 151.14 L296.45 150.14 L297.49 149.14 L298.52 148.14 L299.55 147.14 L300.59 146.14 L301.62 145.14 L302.65 144.14 L303.69 143.14 L304.72 142.14 L305.75 141.14 L306.79 140.14 L307.82 139.14 L308.85 138.14 L309.89 183.14 L309.91 183.12 L310.94 182.12 L311.98 181.12 L313.01 180.12 L314.04 179.12 L315.08 178.12 L316.11 177.12 L317.15 176.12 L318.18 175.12 L319.21 174.12 L320.25 173.12 L321.28 172.12 L322.31 171.12 L323.35 170.12 L324.38 169.12 L325.41 168.12 L326.45 167.12 L327.48 166.12 L328.51 165.12 L329.55 164.12 L330.58 163.12 L331.61 162.12 L332.65 161.12 L333.68 160.12 L334.71 159.12 L335.75 158.12 L336.78 157.12 L337.81 156.12 L338.85 155.12 L339.88 154.12 L340.91 153.12 L341.95 152.12 L342.98 151.12 L344.01 150.12 L345.05 149.12 L346.08 148.12 L347.12 147.12 L348.15 146.12 L349.18 145.12 L350.22 144.12 L351.25 143.12 L352.28 142.12 L353.32 141.12 L354.35 140.12 L355.38 139.12 L356.42 138.12 L357.45 183.12 L357.47 183.10 L358.51 182.10 L359.54 181.10 L360.57 180.10 L361.61 179.10 L362.64 178.10 L363.67 177.10 L364.71 176.10 L365.74 175.10 L366.77 174.10 L367.81 173.10 L368.84 172.10 L369.87 171.10 L370.91 170.10 L371.94 169.10 L372.97 168.10 L374.01 167.10 L375.04 166.10 L376.07 165.10 L377.11 164.10 L378.14 163.10 L379.17 162.10 L380.21 161.10 L381.24 160.10 L382.28 159.10 L383.31 158.10 L384.34 157.10 L385.38 156.10 L386.41 155.10 L387.44 154.10 L388.48 153.10 L389.51 152.10 L390.54 151.10 L391.58 150.10 L392.61 149.10 L393.64 148.10 L394.68 147.10 L395.71 146.10 L396.74 145.10 L397.78 144.10 L398.81 143.10 L399.84 142.10 L400.88 141.10 L401.91 140.10 L402.94 139.10 L403.98 138.10 L405.01 183.10 L405.03 183.07 L406.07 182.07 L407.10 181.07 L408.13 180.07 L409.17 179.07 L410.20 178.07 L411.23 177.07 L412.27 176.07 L413.30 175.07 L414.33 174.07 L415.37 173.07 L416.40 172.07 L417.44 171.07 L418.47 170.07 L419.50 169.07 L420.54 168.07 L421.57 167.07 L422.60 166.07 L423.64 165.07 L424.67 164.07 L425.70 163.07 L426.74 162.07 L427.77 161.07 L428.80 160.07 L429.84 159.07 L430.87 158.07 L431.90 157.07 L432.94 156.07 L433.97 155.07 L435.00 154.07 L436.04 153.07 L437.07 152.07 L438.10 151.07 L439.14 150.07 L440.17 149.07 L441.20 148.07 L442.24 147.07 L443.27 146.07 L444.30 145.07 L445.34 144.07 L446.37 143.07 L447.41 142.07 L448.44 141.07 L449.47 140.07 L450.51 139.07 L451.54 138.07 L452.57 183.07 L452.60 183.05 L453.63 182.05 L454.66 181.05 L455.70 180.05 L456.73 179.05 L457.76 178.05 L458.80 177.05 L459.83 176.05 L460.86 175.05 L461.90 174.05 L462.93 173.05 L463.96 172.05 L465.00 171.05 L466.03 170.05 L467.06 169.05 L468.10 168.05 L469.13 167.05 L470.16 166.05 L471.20 165.05 L472.23 164.05 L473.26 163.05 L474.30 162.05 L475.33 161.05 L476.36 160.05 L477.40 159.05 L478.43 158.05 L479.46 157.05 L480.50 156.05 L481.53 155.05 L482.57 154.05 L483.60 153.05 L484.63 152.05 L485.67 151.05 L486.70 150.05 L487.73 149.05 L488.77 148.05 L489.80 147.05 L490.83 146.05 L491.87 145.05 L492.90 144.05 L493.93 143.05 L494.97 142.05 L496.00 141.05 L497.03 140.05 L498.07 139.05 L499.10 138.05 L500.13 183.05 L500.16 183.03 L501.19 182.03 L502.22 181.03 L503.26 180.03 L504.29 179.03 L505.32 178.03 L506.36 177.03 L507.39 176.03 L508.42 175.03 L509.46 174.03 L510.49 173.03 L511.52 172.03 L512.56 171.03 L513.59 170.03 L514.62 169.03 L515.66 168.03 L516.69 167.03 L517.73 166.03 L518.76 165.03 L519.79 164.03 L520.83 163.03 L521.86 162.03 L522.89 161.03 L523.93 160.03 L524.96 159.03 L525.99 158.03 L527.03 157.03 L528.06 156.03 L529.09 155.03 L530.13 154.03 L531.16 153.03 L532.19 152.03 L533.23 151.03 L534.26 150.03 L535.29 149.03 L536.33 148.03 L537.36 147.03 L538.39 146.03 L539.43 145.03 L540.46 144.03 L541.49 143.03 L542.53 142.03 L543.56 141.03 L544.59 140.03 L545.63 139.03 L546.66 138.03 L547.70 183.03 L547.72 183.01 L548.75 182.01 L549.79 181.01 L550.82 180.01 L551.85 179.01 L552.89 178.01 L553.92 177.01 L554.95 176.01 L555.99 175.01 L557.02 174.01 L558.05 173.01 L559.09 172.01 L560.12 171.01 L561.15 170.01 L562.19 169.01 L563.22 168.01 L564.25 167.01 L565.29 166.01 L566.32 165.01 L567.35 164.01 L568.39 163.01 L569.42 162.01 L570.45 161.01 L571.49 160.01 L572.52 159.01 L573.55 158.01 L574.59 157.01 L575.62 156.01 L576.65 155.01 L577.69 154.01 L578.72 153.01 L579.75 152.01 L580.79 151.01 L581.82 150.01 L582.86 149.01 L583.89 148.01 L584.92 147.01 L585.96 146.01 L586.99 145.01 L588.02 144.01 L589.06 143.01 L590.09 142.01 L591.12 141.01 L592.16 140.01 L593.19 139.01 L594.22 138.01 L595.26 183.01 L595.28 182.99 L596.31 181.99 L597.35 180.99 L598.38 179.99 L599.41 178.99 L600.45 177.99 L601.48 176.99 L602.51 175.99 L603.55 174.99 L604.58 173.99 L605.61 172.99 L606.65 171.99 L607.68 170.99 L608.71 169.99 L609.75 168.99 L610.78 167.99 L611.81 166.99 L612.85 165.99 L613.88 164.99 L614.92 163.99 L615.95 162.99 L616.98 161.99 " style="fill:none;stroke:#000000;stroke-width:1;" /></g></svg>