<?xml version="1.0" standalone="no"?><!DOCTYPE svg PUBLIC "-//W3C//DTD SVG 1.1//EN" "http://www.w3.org/Graphics/SVG/1.1/DTD/svg11.dtd"><svg xmlns="http://www.w3.org/2000/svg" viewBox="0 0 650 400" version="1.1"><clipPath id="box"><rect x="0" y="0" width="650" height="400" style="fill:none;stroke:none;" /></clipPath><g clip-path="url(#box)"><rect x="0.00" y="0.00" width="650.00" height="400.00" style="fill:#FFFFFF;stroke:none;" /><path d="M0.00 389.00 L650.00 389.00 M0.00 314.00 L650.00 314.00 M0.00 240.00 L650.00 240.00 M0.00 165.00 L650.00 165.00 M0.00 91.00 L650.00 91.00 M0.00 16.00 L650.00 16.00 M17.00 0.00 L17.00 400.00 M92.00 0.00 L92.00 400.00 M166.00 0.00 L166.00 400.00 M241.00 0.00 L241.00 400.00 M315.00 0.00 L315.00 400.00 M390.00 0.00 L390.00 400.00 M464.00 0.00 L464.00 400.00 M539.00 0.00 L539.00 400.00 M613.00 0.00 L613.00 400.00 " style="fill:none;stroke:#D0D0D0;stroke-width:1;" /><path d="M166.53 0.00 L166.53 400.00 " style="fill:none;stroke:#000000;stroke-width:1;" /><path d="M160.03 463.72 L173.03 463.72 M160.03 389.21 L173.03 389.21 M160.03 314.70 L173.03 314.70 M160.03 240.20 L173.03 240.20 M160.03 165.69 L173.03 165.69 M160.03 91.19 L173.03 91.19 M160.03 16.68 L173.03 16.68 " style="fill:none;stroke:#000000;stroke-width:1;" /><path d="M0.00 389.21 L650.00 389.21 " style="fill:none;stroke:#000000;stroke-width:1;" /><path d="M-56.99 382.71 L-56.99 395.71 M17.51 382.71 L17.51 395.71 M92.02 382.71 L92.02 395.71 M166.53 382.71 L166.53 395.71 M241.03 382.71 L241.03 395.71 M315.54 382.71 L315.54 395.71 M390.04 382.71 L390.04 395.71 M464.55 382.71 L464.55 395.71 M539.05 382.71 L539.05 395.71 M613.56 382.71 L613.56 395.71 " style="fill:none;stroke:#000000;stroke-width:1;" /><text x="174.65026187896714" y="391.7094135284425" text-anchor="start" style="font:10px Droid Sans,Trebuchet MS,Arial,Helvetica,sans-serif;stroke:none;fill:#000000">0</text><text x="174.65026187896714" y="317.2036075592042" text-anchor="start" style="font:10px Droid Sans,Trebuchet MS,Arial,Helvetica,sans-serif;stroke:none;fill:#000000">0.2</text><text x="174.65026187896714" y="242.69780158996596" text-anchor="start" style="font:10px Droid Sans,Trebuchet MS,Arial,Helvetica,sans-serif;stroke:none;fill:#000000">0.4</text><text x="174.65026187896714" y="168.19199562072768" text-anchor="start" style="font:10px Droid Sans,Trebuchet MS,Arial,Helvetica,sans-serif;stroke:none;fill:#000000">0.6</text><text x="174.65026187896714" y="93.68618965148943" text-anchor="start" style="font:10px Droid Sans,Trebuchet MS,Arial,Helvetica,sans-serif;stroke:none;fill:#000000">0.8</text><text x="174.65026187896714" y="19.18038368225118" text-anchor="start" style="font:10px Droid Sans,Trebuchet MS,Arial,Helvetica,sans-serif;stroke:none;fill:#000000">1</text><text x="17.513649940490485" y="383.3344135284425" text-anchor="middle" style="font:10px Droid Sans,Trebuchet MS,Arial,Helvetica,sans-serif;stroke:none;fill:#000000">-0.4</text><text x="92.0194559097288" y="383.3344135284425" text-anchor="middle" style="font:10px Droid Sans,Trebuchet MS,Arial,Helvetica,sans-serif;stroke:none;fill:#000000">-0.2</text><text x="166.52526187896711" y="383.3344135284425" text-anchor="middle" style="font:10px Droid Sans,Trebuchet MS,Arial,Helvetica,sans-serif;stroke:none;fill:#000000">0</text><text x="241.03106784820542" y="383.3344135284425" text-anchor="middle" style="font:10px Droid Sans,Trebuchet MS,Arial,Helvetica,sans-serif;stroke:none;fill:#000000">0.2</text><text x="315.53687381744373" y="383.3344135284425" text-anchor="middle" style="font:10px Droid Sans,Trebuchet MS,Arial,Helvetica,sans-serif;stroke:none;fill:#000000">0.4</text><text x="390.04267978668213" y="383.3344135284425" text-anchor="middle" style="font:10px Droid Sans,Trebuchet MS,Arial,Helvetica,sans-serif;stroke:none;fill:#000000">0.6</text><text x="464.5484857559204" y="383.3344135284425" text-anchor="middle" style="font:10px Droid Sans,Trebuchet MS,Arial,Helvetica,sans-serif;stroke:none;fill:#000000">0.8</text><text x="539.0542917251587" y="383.3344135284425" text-anchor="middle" style="font:10px Droid Sans,Trebuchet MS,Arial,Helvetica,sans-serif;stroke:none;fill:#000000">1</text><text x="613.560097694397" y="383.3344135284425" text-anchor="middle" style="font:10px Droid Sans,Trebuchet MS,Arial,Helvetica,sans-serif;stroke:none;fill:#000000">1.2</text><path d="M155.73 400.00 L155.73 400.00 L156.74 399.00 L157.74 398.00 L158.74 397.00 L159.74 396.00 L160.74 395.00 L161.74 394.00 L162.74 393.00 L163.74 392.00 L164.74 391.00 L165.74 390.00 L166.74 389.00 L167.74 388.00 L168.74 387.00 L169.74 386.00 L170.74 385.00 L171.74 384.00 L172.74 383.00 L173.74 382.00 L174.74 381.00 L175.74 380.00 L176.74 379.00 L177.74 378.00 L178.74 377.00 L179.74 376.00 L180.74 375.00 L181.74 374.00 L182.74 373.00 L183.74 372.00 L184.74 371.00 L185.74 370.00 L186.74 369.00 L187.74 368.00 L188.74 367.00 L189.74 366.00 L190.74 365.00 L191.74 364.00 L192.74 363.00 L193.74 362.00 L194.74 361.00 L195.74 360.00 L196.74 359.00 L197.74 358.00 L198.74 357.00 L199.74 356.00 L200.74 355.00 L201.74 354.00 L202.74 353.00 L203.74 352.00 L204.74 351.00 L205.74 350.00 L206.74 349.00 L207.74 348.00 L208.74 347.00 L209.74 346.00 L210.74 345.00 L211.74 344.00 L212.74 343.00 L213.74 342.00 L214.74 341.00 L215.74 340.00 L216.74 339.00 L217.74 338.00 L218.74 337.00 L219.74 336.00 L220.74 335.00 L221.74 334.00 L222.74 333.00 L223.74 332.00 L224.74 331.00 L225.74 330.00 L226.74 329.00 L227.74 328.00 L228.74 327.00 L229.74 326.00 L230.74 325.00 L231.74 324.00 L232.74 323.00 L233.74 322.00 L234.74 321.00 L235.74 320.00 L236.74 319.00 L237.74 318.00 L238.74 317.00 L239.74 316.00 L240.74 315.00 L241.74 314.00 L242.74 313.00 L243.74 312.00 L244.74 311.00 L245.74 310.00 L246.74 309.00 L247.74 308.00 L248.74 307.00 L249.74 306.00 L250.74 305.00 L251.74 304.00 L252.74 303.00 L253.74 302.00 L254.74 301.00 L255.74 300.00 L256.74 299.00 L257.74 298.00 L258.74 297.00 L259.74 296.00 L260.74 295.00 L261.74 294.00 L262.74 293.00 L263.74 292.00 L264.74 291.00 L265.74 290.00 L266.74 289.00 L267.74 288.00 L268.74 287.00 L269.74 286.00 L270.74 285.00 L271.74 284.00 L272.74 283.00 L273.74 282.00 L274.74 281.00 L275.74 280.00 L276.74 279.00 L277.74 278.00 L278.74 277.00 L279.74 276.00 L280.74 275.00 L281.74 274.00 L282.74 273.00 L283.74 272.00 L284.74 271.00 L285.74 270.00 L286.74 269.00 L287.74 268.00 L288.74 267.00 L289.74 266.00 L290.74 265.00 L291.74 264.00 L292.74 263.00 L293.74 262.00 L294.74 261.00 L295.74 260.00 L296.74 259.00 L297.74 258.00 L298.74 257.00 L299.74 256.00 L300.74 255.00 L301.74 254.00 L302.74 253.00 L303.74 252.00 L304.74 251.00 L305.74 250.00 L306.74 249.00 L307.74 248.00 L308.74 247.00 L309.74 246.00 L310.74 245.00 L311.74 244.00 L312.74 243.00 L313.74 242.00 L314.74 241.00 L315.74 240.00 L316.74 239.00 L317.74 238.00 L318.74 237.00 L319.74 236.00 L320.74 235.00 L321.74 234.00 L322.74 233.00 L323.74 232.00 L324.74 231.00 L325.74 230.00 L326.74 229.00 L327.74 228.00 L328.74 227.00 L329.74 226.00 L330.74 225.00 L331.74 224.00 L332.74 223.00 L333.74 222.00 L334.74 221.00 L335.74 220.00 L336.74 219.00 L337.74 218.00 L338.74 217.00 L339.74 216.00 L340.74 215.00 L341.74 214.00 L342.74 213.00 L343.74 212.00 L344.74 211.00 L345.74 210.00 L346.74 209.00 L347.74 208.00 L348.74 207.00 L349.74 206.00 L350.74 205.00 L351.74 204.00 L352.74 203.00 L353.74 202.00 L354.74 201.00 L355.74 200.00 L356.74 199.00 L357.74 198.00 L358.74 197.00 L359.74 196.00 L360.74 195.00 L361.74 194.00 L362.74 193.00 L363.74 192.00 L364.74 191.00 L365.74 190.00 L366.74 189.00 L367.74 188.00 L368.74 187.00 L369.74 186.00 L370.74 185.00 L371.74 184.00 L372.74 183.00 L373.74 182.00 L374.74 181.00 L375.74 180.00 L376.74 179.00 L377.74 178.00 L378.74 177.00 L379.74 176.00 L380.74 175.00 L381.74 174.00 L382.74 173.00 L383.74 172.00 L384.74 171.00 L385.74 170.00 L386.74 169.00 L387.74 168.00 L388.74 167.00 L389.74 166.00 L390.74 165.00 L391.74 164.00 L392.74 163.00 L393.74 162.00 L394.74 161.00 L395.74 160.00 L396.74 159.00 L397.74 158.00 L398.74 157.00 L399.74 156.00 L400.74 155.00 L401.74 154.00 L402.74 153.00 L403.74 152.00 L404.74 151.00 L405.74 150.00 L406.74 149.00 L407.74 148.00 L408.74 147.00 L409.74 146.00 L410.74 145.00 L411.74 144.00 L412.74 143.00 L413.74 142.00 L414.74 141.00 L415.74 140.00 L416.74 139.00 L417.74 138.00 L418.74 137.00 L419.74 136.00 L420.74 135.00 L421.74 134.00 L422.74 133.00 L423.74 132.00 L424.74 131.00 L425.74 130.00 L426.74 129.00 L427.74 128.00 L428.74 127.00 L429.74 126.00 L430.74 125.00 L431.74 124.00 L432.74 123.00 L433.74 122.00 L434.74 121.00 L435.74 120.00 L436.74 119.00 L437.74 118.00 L438.74 117.00 L439.74 116.00 L440.74 115.00 L441.74 114.00 L442.74 113.00 L443.74 112.00 L444.74 111.00 L445.74 110.00 L446.74 109.00 L447.74 108.00 L448.74 107.00 L449.74 106.00 L450.74 105.00 L451.74 104.00 L452.74 103.00 L453.74 102.00 L454.74 101.00 L455.74 100.00 L456.74 99.00 L457.74 98.00 L458.74 97.00 L459.74 96.00 L460.74 95.00 L461.74 94.00 L462.74 93.00 L463.74 92.00 L464.74 91.00 L465.74 90.00 L466.74 89.00 L467.74 88.00 L468.74 87.00 L469.74 86.00 L470.74 85.00 L471.74 84.00 L472.74 83.00 L473.74 82.00 L474.74 81.00 L475.74 80.00 L476.74 79.00 L477.74 78.00 L478.74 77.00 L479.74 76.00 L480.74 75.00 L481.74 74.00 L482.74 73.00 L483.74 72.00 L484.74 71.00 L485.74 70.00 L486.74 69.00 L487.74 68.00 L488.74 67.00 L489.74 66.00 L490.74 65.00 L491.74 64.00 L492.74 63.00 L493.74 62.00 L494.74 61.00 L495.74 60.00 L496.74 59.00 L497.74 58.00 L498.74 57.00 L499.74 56.00 L500.74 55.00 L501.74 54.00 L502.74 53.00 L503.74 52.00 L504.74 51.00 L505.74 50.00 L506.74 49.00 L507.74 48.00 L508.74 47.00 L509.74 46.00 L510.74 45.00 L511.74 44.00 L512.74 43.00 L513.74 42.00 L514.74 41.00 L515.74 40.00 L516.74 39.00 L517.74 38.00 L518.74 37.00 L519.74 36.00 L520.74 35.00 L521.74 34.00 L522.74 33.00 L523.74 32.00 L524.74 31.00 L525.74 30.00 L526.74 29.00 L527.74 28.00 L528.74 27.00 L529.74 26.00 L530.74 25.00 L531.74 24.00 L532.74 23.00 L533.74 22.00 L534.74 21.00 L535.74 20.00 L536.74 19.00 L537.74 18.00 L538.74 17.00 L539.74 16.00 L540.74 15.00 L541.74 14.00 L542.74 13.00 L543.74 12.00 L544.74 11.00 L545.74 10.00 L546.74 9.00 L547.74 8.00 L548.74 7.00 L549.74 6.00 L550.74 5.00 L551.74 4.00 L552.74 3.00 L553.74 2.00 L554.74 1.00 L555.74 -0.00 " style="fill:none;stroke:#000000;stroke-width:1;" /><path d="M-10.00 200.00 L-0.25 16.68 L0.75 16.68 L2.75 16.68 L4.75 16.68 L6.75 16.68 L8.75 16.68 L10.75 16.68 L12.75 16.68 L14.75 16.68 L16.75 16.68 L18.75 16.68 L20.75 16.68 L22.75 16.68 L24.75 16.68 L26.75 16.68 L28.75 16.68 L30.75 16.68 L32.75 16.68 L34.75 16.68 L36.75 16.68 L38.75 16.68 L40.75 16.68 L42.75 16.68 L44.75 16.68 L46.75 16.68 L48.75 16.68 L50.75 16.68 L52.75 16.68 L54.75 16.68 L56.75 16.68 L58.75 16.68 L60.75 16.68 L62.75 16.68 L64.75 16.68 L66.75 16.68 L68.75 16.68 L70.75 16.68 L72.75 16.68 L74.75 16.68 L76.75 16.68 L78.75 16.68 L80.75 16.68 L82.75 16.68 L84.75 16.68 L86.75 16.68 L88.75 16.68 L90.75 16.68 L92.75 16.68 L94.75 16.68 L96.75 16.68 L98.75 16.68 L100.75 16.68 L102.75 16.68 L104.75 16.68 L106.75 16.68 L108.75 16.68 L110.75 16.68 L112.75 16.68 L114.75 16.68 L116.75 16.68 L118.75 16.68 L120.75 16.68 L122.75 16.68 L124.75 16.68 L126.75 16.68 L128.75 16.68 L130.75 16.68 L132.75 16.68 L134.75 16.68 L136.75 16.68 L138.75 16.68 L140.75 16.68 L142.75 16.68 L144.75 16.68 L146.75 16.68 L148.75 16.68 L150.75 16.68 L152.75 16.68 L154.75 16.68 L156.75 16.68 L158.75 16.68 L160.75 16.68 L162.75 16.68 L164.75 16.68 L166.75 16.68 L168.75 16.68 L170.75 16.68 L172.75 16.68 L174.75 16.68 L176.75 16.68 L178.75 16.68 L180.75 16.68 L182.75 16.68 L184.75 16.68 L186.75 16.68 L188.75 16.68 L190.75 16.68 L192.75 16.68 L194.75 16.68 L196.75 16.68 L198.75 16.68 L200.75 16.68 L202.75 16.68 L204.75 16.68 L206.75 16.68 L208.75 16.68 L210.75 16.68 L212.75 16.68 L214.75 16.68 L216.75 16.68 L218.75 16.68 L220.75 16.68 L222.75 16.68 L224.75 16.68 L226.75 16.68 L228.75 16.68 L230.75 16.68 L232.75 16.68 L234.75 16.68 L236.75 16.68 L238.75 16.68 L240.75 16.68 L242.75 16.68 L244.75 16.68 L246.75 16.68 L248.75 16.68 L250.75 16.68 L252.75 16.68 L254.75 16.68 L256.75 16.68 L258.75 16.68 L260.75 16.68 L262.75 16.68 L264.75 16.68 L266.75 16.68 L268.75 16.68 L270.75 16.68 L272.75 16.68 L274.75 16.68 L276.75 16.68 L278.75 16.68 L280.75 16.68 L282.75 16.68 L284.75 16.68 L286.75 16.68 L288.75 16.68 L290.75 16.68 L292.75 16.68 L294.75 16.68 L296.75 16.68 L298.75 16.68 L300.75 16.68 L302.75 16.68 L304.75 16.68 L306.75 16.68 L308.75 16.68 L310.75 16.68 L312.75 16.68 L314.75 16.68 L316.75 16.68 L318.75 16.68 L320.75 16.68 L322.75 16.68 L324.75 16.68 L326.75 16.68 L328.75 16.68 L330.75 16.68 L332.75 16.68 L334.75 16.68 L336.75 16.68 L338.75 16.68 L340.75 16.68 L342.75 16.68 L344.75 16.68 L346.75 16.68 L348.75 16.68 L350.75 16.68 L352.75 16.68 L354.75 16.68 L356.75 16.68 L358.75 16.68 L360.75 16.68 L362.75 16.68 L364.75 16.68 L366.75 16.68 L368.75 16.68 L370.75 16.68 L372.75 16.68 L374.75 16.68 L376.75 16.68 L378.75 16.68 L380.75 16.68 L382.75 16.68 L384.75 16.68 L386.75 16.68 L388.75 16.68 L390.75 16.68 L392.75 16.68 L394.75 16.68 L396.75 16.68 L398.75 16.68 L400.75 16.68 L402.75 16.68 L404.75 16.68 L406.75 16.68 L408.75 16.68 L410.75 16.68 L412.75 16.68 L414.75 16.68 L416.75 16.68 L418.75 16.68 L420.75 16.68 L422.75 16.68 L424.75 16.68 L426.75 16.68 L428.75 16.68 L430.75 16.68 L432.75 16.68 L434.75 16.68 L436.75 16.68 L438.75 16.68 L440.75 16.68 L442.75 16.68 L444.75 16.68 L446.75 16.68 L448.75 16.68 L450.75 16.68 L452.75 16.68 L454.75 16.68 L456.75 16.68 L458.75 16.68 L460.75 16.68 L462.75 16.68 L464.75 16.68 L466.75 16.68 L468.75 16.68 L470.75 16.68 L472.75 16.68 L474.75 16.68 L476.75 16.68 L478.75 16.68 L480.75 16.68 L482.75 16.68 L484.75 16.68 L486.75 16.68 L488.75 16.68 L490.75 16.68 L492.75 16.68 L494.75 16.68 L496.75 16.68 L498.75 16.68 L500.75 16.68 L502.75 16.68 L504.75 16.68 L506.75 16.68 L508.75 16.68 L510.75 16.68 L512.75 16.68 L514.75 16.68 L516.75 16.68 L518.75 16.68 L520.75 16.68 L522.75 16.68 L524.75 16.68 L526.75 16.68 L528.75 16.68 L530.75 16.68 L532.75 16.68 L534.75 16.68 L536.75 16.68 L538.75 16.68 L540.75 16.68 L542.75 16.68 L544.75 16.68 L546.75 16.68 L548.75 16.68 L550.75 16.68 L552.75 16.68 L554.75 16.68 L556.75 16.68 L558.75 16.68 L560.75 16.68 L562.75 16.68 L564.75 16.68 L566.75 16.68 L568.75 16.68 L570.75 16.68 L572.75 16.68 L574.75 16.68 L576.75 16.68 L578.75 16.68 L580.75 16.68 L582.75 16.68 L584.75 16.68 L586.75 16.68 L588.75 16.68 L590.75 16.68 L592.75 16.68 L594.75 16.68 L596.75 16.68 L598.75 16.68 L600.75 16.68 L602.75 16.68 L604.75 16.68 L606.75 16.68 L608.75 16.68 L610.75 16.68 L612.75 16.68 L614.75 16.68 L616.75 16.68 L618.75 16.68 L620.75 16.68 L622.75 16.68 L624.75 16.68 L626.75 16.68 L628.75 16.68 L630.75 16.68 L632.75 16.68 L634.75 16.68 L636.75 16.68 L638.75 16.68 L640.75 16.68 L642.75 16.68 L644.75 16.68 L646.75 16.68 L648.75 16.68 " style="fill:none;stroke:#000000;stroke-width:1;" /></g></svg>