<?xml version="1.0" standalone="no"?><!DOCTYPE svg PUBLIC "-//W3C//DTD SVG 1.1//EN" "http://www.w3.org/Graphics/SVG/1.1/DTD/svg11.dtd"><svg xmlns="http://www.w3.org/2000/svg" viewBox="0 0 650 400" version="1.1"><clipPath id="box"><rect x="0" y="0" width="650" height="400" style="fill:none;stroke:none;" /></clipPath><g clip-path="url(#box)"><rect x="0.00" y="0.00" width="650.00" height="400.00" style="fill:#FFFFFF;stroke:none;" /><path d="M0.00 387.00 L650.00 387.00 M0.00 326.00 L650.00 326.00 M0.00 265.00 L650.00 265.00 M0.00 204.00 L650.00 204.00 M0.00 143.00 L650.00 143.00 M0.00 81.00 L650.00 81.00 M0.00 20.00 L650.00 20.00 M29.00 0.00 L29.00 400.00 M90.00 0.00 L90.00 400.00 M151.00 0.00 L151.00 400.00 M212.00 0.00 L212.00 400.00 M273.00 0.00 L273.00 400.00 M334.00 0.00 L334.00 400.00 M395.00 0.00 L395.00 400.00 M456.00 0.00 L456.00 400.00 M517.00 0.00 L517.00 400.00 M578.00 0.00 L578.00 400.00 M639.00 0.00 L639.00 400.00 " style="fill:none;stroke:#D0D0D0;stroke-width:1;" /><path d="M395.35 0.00 L395.35 400.00 " style="fill:none;stroke:#000000;stroke-width:1;" /><path d="M388.85 448.19 L401.85 448.19 M388.85 387.16 L401.85 387.16 M388.85 326.12 L401.85 326.12 M388.85 265.09 L401.85 265.09 M388.85 204.05 L401.85 204.05 M388.85 143.01 L401.85 143.01 M388.85 81.98 L401.85 81.98 M388.85 20.94 L401.85 20.94 " style="fill:none;stroke:#000000;stroke-width:1;" /><path d="M0.00 204.05 L650.00 204.05 " style="fill:none;stroke:#000000;stroke-width:1;" /><path d="M-31.90 197.55 L-31.90 210.55 M29.14 197.55 L29.14 210.55 M90.17 197.55 L90.17 210.55 M151.21 197.55 L151.21 210.55 M212.24 197.55 L212.24 210.55 M273.28 197.55 L273.28 210.55 M334.31 197.55 L334.31 210.55 M395.35 197.55 L395.35 210.55 M456.39 197.55 L456.39 210.55 M517.42 197.55 L517.42 210.55 M578.46 197.55 L578.46 210.55 M639.49 197.55 L639.49 210.55 " style="fill:none;stroke:#000000;stroke-width:1;" /><text x="403.4749999999999" y="389.65546875000007" text-anchor="start" style="font:10px Droid Sans,Trebuchet MS,Arial,Helvetica,sans-serif;stroke:none;fill:#000000">-1.5</text><text x="403.4749999999999" y="328.62031250000007" text-anchor="start" style="font:10px Droid Sans,Trebuchet MS,Arial,Helvetica,sans-serif;stroke:none;fill:#000000">-1</text><text x="403.4749999999999" y="267.58515625" text-anchor="start" style="font:10px Droid Sans,Trebuchet MS,Arial,Helvetica,sans-serif;stroke:none;fill:#000000">-0.5</text><text x="403.4749999999999" y="206.54999999999998" text-anchor="start" style="font:10px Droid Sans,Trebuchet MS,Arial,Helvetica,sans-serif;stroke:none;fill:#000000">0</text><text x="403.4749999999999" y="145.51484374999993" text-anchor="start" style="font:10px Droid Sans,Trebuchet MS,Arial,Helvetica,sans-serif;stroke:none;fill:#000000">0.5</text><text x="403.4749999999999" y="84.47968749999991" text-anchor="start" style="font:10px Droid Sans,Trebuchet MS,Arial,Helvetica,sans-serif;stroke:none;fill:#000000">1</text><text x="403.4749999999999" y="23.444531249999873" text-anchor="start" style="font:10px Droid Sans,Trebuchet MS,Arial,Helvetica,sans-serif;stroke:none;fill:#000000">1.5</text><text x="29.139062499999685" y="220.17499999999998" text-anchor="middle" style="font:10px Droid Sans,Trebuchet MS,Arial,Helvetica,sans-serif;stroke:none;fill:#000000">-3</text><text x="90.17421874999974" y="220.17499999999998" text-anchor="middle" style="font:10px Droid Sans,Trebuchet MS,Arial,Helvetica,sans-serif;stroke:none;fill:#000000">-2.5</text><text x="151.20937499999977" y="220.17499999999998" text-anchor="middle" style="font:10px Droid Sans,Trebuchet MS,Arial,Helvetica,sans-serif;stroke:none;fill:#000000">-2</text><text x="212.2445312499998" y="220.17499999999998" text-anchor="middle" style="font:10px Droid Sans,Trebuchet MS,Arial,Helvetica,sans-serif;stroke:none;fill:#000000">-1.5</text><text x="273.27968749999985" y="220.17499999999998" text-anchor="middle" style="font:10px Droid Sans,Trebuchet MS,Arial,Helvetica,sans-serif;stroke:none;fill:#000000">-1</text><text x="334.3148437499999" y="220.17499999999998" text-anchor="middle" style="font:10px Droid Sans,Trebuchet MS,Arial,Helvetica,sans-serif;stroke:none;fill:#000000">-0.5</text><text x="395.3499999999999" y="220.17499999999998" text-anchor="middle" style="font:10px Droid Sans,Trebuchet MS,Arial,Helvetica,sans-serif;stroke:none;fill:#000000">0</text><text x="456.38515624999997" y="220.17499999999998" text-anchor="middle" style="font:10px Droid Sans,Trebuchet MS,Arial,Helvetica,sans-serif;stroke:none;fill:#000000">0.5</text><text x="517.4203125" y="220.17499999999998" text-anchor="middle" style="font:10px Droid Sans,Trebuchet MS,Arial,Helvetica,sans-serif;stroke:none;fill:#000000">1</text><text x="578.45546875" y="220.17499999999998" text-anchor="middle" style="font:10px Droid Sans,Trebuchet MS,Arial,Helvetica,sans-serif;stroke:none;fill:#000000">1.5</text><text x="639.4906250000001" y="220.17499999999998" text-anchor="middle" style="font:10px Droid Sans,Trebuchet MS,Arial,Helvetica,sans-serif;stroke:none;fill:#000000">2</text><path d="M395.35 204.05 L395.35 204.05 L395.36 204.05 L395.37 204.05 L395.40 204.05 L395.45 204.05 L395.50 204.04 L395.57 204.04 L395.65 204.03 L395.74 204.02 L395.84 204.01 L395.96 203.99 L396.08 203.97 L396.22 203.94 L396.37 203.92 L396.53 203.88 L396.71 203.85 L396.89 203.80 L397.08 203.75 L397.29 203.70 L397.51 203.64 L397.73 203.57 L397.97 203.49 L398.22 203.41 L398.48 203.32 L398.75 203.22 L399.03 203.11 L399.31 203.00 L399.61 202.87 L399.92 202.74 L400.23 202.59 L400.56 202.44 L400.89 202.27 L401.23 202.10 L401.58 201.92 L401.94 201.72 L402.30 201.51 L402.67 201.29 L403.05 201.06 L403.44 200.82 L403.83 200.57 L404.23 200.30 L404.63 200.02 L405.04 199.72 L405.45 199.42 L405.87 199.10 L406.29 198.76 L406.72 198.42 L407.15 198.06 L407.59 197.68 L408.02 197.29 L408.46 196.89 L408.91 196.47 L409.35 196.03 L409.80 195.58 L410.25 195.12 L410.70 194.64 L411.15 194.15 L411.60 193.64 L412.05 193.11 L412.50 192.57 L412.95 192.01 L413.40 191.44 L413.84 190.85 L414.29 190.24 L414.73 189.62 L415.17 188.99 L415.60 188.33 L416.03 187.66 L416.46 186.98 L416.89 186.28 L417.31 185.56 L417.72 184.82 L418.13 184.07 L418.53 183.31 L418.93 182.52 L419.31 181.72 L419.70 180.91 L420.07 180.08 L420.44 179.23 L420.80 178.37 L421.14 177.49 L421.48 176.60 L421.81 175.69 L422.13 174.76 L422.44 173.82 L422.74 172.87 L423.03 171.90 L423.31 170.91 L423.57 169.91 L423.82 168.90 L424.06 167.87 L424.29 166.82 L424.50 165.77 L424.70 164.70 L424.88 163.61 L425.05 162.51 L425.21 161.40 L425.35 160.28 L425.47 159.14 L425.58 157.99 L425.67 156.83 L425.74 155.66 L425.80 154.47 L425.84 153.28 L425.86 152.07 L425.87 150.85 L425.85 149.62 L425.82 148.38 L425.77 147.13 L425.70 145.87 L425.60 144.61 L425.49 143.33 L425.36 142.05 L425.21 140.75 L425.04 139.45 L424.85 138.14 L424.63 136.83 L424.39 135.51 L424.14 134.18 L423.86 132.84 L423.55 131.50 L423.23 130.16 L422.88 128.81 L422.51 127.45 L422.12 126.10 L421.70 124.73 L421.26 123.37 L420.80 122.00 L420.31 120.63 L419.80 119.26 L419.27 117.89 L418.71 116.52 L418.13 115.15 L417.52 113.77 L416.89 112.40 L416.23 111.03 L415.55 109.66 L414.84 108.29 L414.11 106.92 L413.35 105.56 L412.57 104.20 L411.76 102.85 L410.93 101.49 L410.08 100.15 L409.19 98.81 L408.29 97.47 L407.35 96.14 L406.40 94.82 L405.41 93.51 L404.41 92.20 L403.37 90.90 L402.32 89.61 L401.23 88.33 L400.13 87.06 L398.99 85.79 L397.84 84.54 L396.65 83.30 L395.45 82.08 L394.22 80.86 L392.96 79.66 L391.68 78.47 L390.38 77.29 L389.05 76.13 L387.70 74.98 L386.33 73.85 L384.93 72.73 L383.51 71.63 L382.06 70.55 L380.60 69.48 L379.11 68.43 L377.60 67.40 L376.06 66.39 L374.51 65.39 L372.93 64.42 L371.33 63.46 L369.71 62.52 L368.07 61.61 L366.41 60.72 L364.73 59.84 L363.03 58.99 L361.31 58.16 L359.58 57.36 L357.82 56.57 L356.04 55.81 L354.25 55.08 L352.44 54.37 L350.61 53.68 L348.76 53.02 L346.90 52.38 L345.02 51.77 L343.13 51.19 L341.22 50.63 L339.29 50.10 L337.35 49.60 L335.40 49.12 L333.43 48.67 L331.45 48.25 L329.46 47.86 L327.46 47.50 L325.44 47.16 L323.41 46.86 L321.37 46.59 L319.32 46.34 L317.26 46.12 L315.19 45.94 L313.12 45.79 L311.03 45.66 L308.94 45.57 L306.83 45.51 L304.73 45.48 L302.61 45.48 L300.49 45.51 L298.37 45.58 L296.23 45.68 L294.10 45.81 L291.96 45.97 L289.82 46.17 L287.68 46.39 L285.53 46.66 L283.38 46.95 L281.23 47.28 L279.09 47.64 L276.94 48.03 L274.79 48.45 L272.64 48.91 L270.50 49.41 L268.36 49.93 L266.22 50.49 L264.08 51.09 L261.95 51.71 L259.83 52.37 L257.71 53.06 L255.59 53.79 L253.48 54.55 L251.38 55.34 L249.29 56.17 L247.21 57.03 L245.13 57.92 L243.06 58.85 L241.01 59.80 L238.96 60.79 L236.93 61.82 L234.90 62.87 L232.89 63.96 L230.89 65.08 L228.91 66.23 L226.94 67.42 L224.98 68.63 L223.04 69.88 L221.12 71.16 L219.21 72.47 L217.31 73.81 L215.44 75.18 L213.58 76.58 L211.74 78.01 L209.92 79.47 L208.12 80.96 L206.34 82.47 L204.58 84.02 L202.84 85.60 L201.12 87.20 L199.42 88.83 L197.75 90.49 L196.10 92.18 L194.47 93.89 L192.86 95.63 L191.28 97.40 L189.73 99.19 L188.20 101.01 L186.69 102.85 L185.22 104.71 L183.76 106.60 L182.34 108.52 L180.94 110.46 L179.57 112.42 L178.23 114.40 L176.92 116.40 L175.63 118.43 L174.38 120.47 L173.16 122.54 L171.96 124.63 L170.80 126.74 L169.66 128.86 L168.56 131.00 L167.49 133.17 L166.45 135.35 L165.44 137.54 L164.47 139.76 L163.53 141.98 L162.62 144.23 L161.74 146.49 L160.90 148.76 L160.09 151.05 L159.32 153.35 L158.58 155.66 L157.87 157.99 L157.20 160.32 L156.56 162.67 L155.96 165.03 L155.39 167.39 L154.86 169.77 L154.37 172.15 L153.91 174.55 L153.48 176.95 L153.09 179.35 L152.74 181.77 L152.43 184.19 L152.15 186.61 L151.90 189.04 L151.70 191.47 L151.53 193.90 L151.39 196.34 L151.29 198.78 L151.23 201.22 L151.21 203.66 L151.22 206.10 L151.27 208.54 L151.36 210.98 L151.48 213.42 L151.64 215.86 L151.83 218.29 L152.07 220.72 L152.33 223.14 L152.64 225.56 L152.98 227.98 L153.35 230.39 L153.77 232.79 L154.22 235.18 L154.70 237.57 L155.22 239.95 L155.78 242.32 L156.37 244.68 L156.99 247.03 L157.65 249.37 L158.35 251.70 L159.08 254.02 L159.84 256.32 L160.64 258.61 L161.47 260.89 L162.34 263.15 L163.23 265.40 L164.17 267.64 L165.13 269.85 L166.13 272.06 L167.16 274.24 L168.22 276.41 L169.31 278.56 L170.43 280.69 L171.59 282.80 L172.77 284.90 L173.99 286.97 L175.23 289.02 L176.51 291.06 L177.81 293.07 L179.14 295.06 L180.50 297.02 L181.89 298.97 L183.31 300.89 L184.75 302.79 L186.22 304.66 L187.72 306.51 L189.24 308.34 L190.79 310.13 L192.36 311.91 L193.95 313.66 L195.57 315.38 L197.22 317.07 L198.89 318.74 L200.58 320.38 L202.29 322.00 L204.02 323.58 L205.77 325.14 L207.55 326.66 L209.34 328.16 L211.16 329.63 L212.99 331.07 L214.84 332.48 L216.71 333.86 L218.60 335.21 L220.51 336.53 L222.43 337.82 L224.36 339.07 L226.31 340.30 L228.28 341.49 L230.26 342.65 L232.25 343.79 L234.26 344.88 L236.28 345.95 L238.31 346.98 L240.35 347.98 L242.41 348.95 L244.47 349.89 L246.54 350.79 L248.63 351.66 L250.72 352.50 L252.81 353.30 L254.92 354.07 L257.03 354.81 L259.15 355.51 L261.28 356.18 L263.40 356.82 L265.54 357.42 L267.68 357.99 L269.82 358.53 L271.96 359.03 L274.11 359.50 L276.25 359.94 L278.40 360.34 L280.55 360.71 L282.70 361.05 L284.85 361.35 L286.99 361.63 L289.14 361.86 L291.28 362.07 L293.42 362.24 L295.56 362.38 L297.69 362.49 L299.81 362.57 L301.94 362.61 L304.05 362.62 L306.16 362.60 L308.27 362.55 L310.36 362.47 L312.45 362.36 L314.53 362.21 L316.60 362.04 L318.67 361.83 L320.72 361.60 L322.76 361.33 L324.79 361.04 L326.81 360.71 L328.82 360.36 L330.82 359.97 L332.80 359.56 L334.78 359.12 L336.73 358.66 L338.68 358.16 L340.61 357.64 L342.52 357.09 L344.42 356.51 L346.30 355.91 L348.17 355.29 L350.02 354.63 L351.86 353.95 L353.67 353.25 L355.47 352.52 L357.25 351.77 L359.02 350.99 L360.76 350.20 L362.49 349.37 L364.19 348.53 L365.88 347.67 L367.55 346.78 L369.19 345.87 L370.82 344.94 L372.42 343.99 L374.01 343.02 L375.57 342.03 L377.11 341.02 L378.63 340.00 L380.12 338.95 L381.60 337.89 L383.05 336.81 L384.48 335.72 L385.88 334.61 L387.26 333.48 L388.62 332.34 L389.96 331.18 L391.27 330.01 L392.56 328.82 L393.82 327.62 L395.06 326.41 L396.27 325.19 L397.46 323.95 L398.63 322.71 L399.77 321.45 L400.88 320.18 L401.97 318.90 L403.04 317.61 L404.08 316.32 L405.10 315.01 L406.09 313.70 L407.05 312.38 L407.99 311.05 L408.91 309.72 L409.80 308.38 L410.66 307.03 L411.50 305.68 L412.32 304.33 L413.11 302.97 L413.87 301.61 L414.61 300.25 L415.33 298.88 L416.01 297.51 L416.68 296.14 L417.32 294.76 L417.94 293.39 L418.53 292.02 L419.09 290.65 L419.64 289.27 L420.15 287.90 L420.65 286.53 L421.12 285.16 L421.57 283.80 L421.99 282.44 L422.39 281.08 L422.77 279.72 L423.12 278.37 L423.45 277.03 L423.76 275.68 L424.05 274.35 L424.31 273.02 L424.56 271.69 L424.78 270.38 L424.98 269.06 L425.16 267.76 L425.32 266.47 L425.45 265.18 L425.57 263.90 L425.67 262.63 L425.75 261.37 L425.80 260.12 L425.84 258.87 L425.86 257.64 L425.87 256.42 L425.85 255.21 L425.82 254.01 L425.76 252.82 L425.69 251.64 L425.61 250.48 L425.51 249.32 L425.39 248.18 L425.25 247.05 L425.10 245.94 L424.94 244.84 L424.76 243.75 L424.57 242.67 L424.36 241.61 L424.14 240.56 L423.90 239.53 L423.65 238.51 L423.39 237.51 L423.12 236.52 L422.84 235.54 L422.54 234.58 L422.23 233.63 L421.92 232.71 L421.59 231.79 L421.25 230.89 L420.91 230.01 L420.55 229.14 L420.19 228.29 L419.82 227.45 L419.44 226.63 L419.05 225.83 L418.66 225.04 L418.26 224.27 L417.85 223.51 L417.44 222.77 L417.02 222.05 L416.60 221.34 L416.17 220.65 L415.74 219.98 L415.31 219.32 L414.87 218.68 L414.43 218.05 L413.98 217.44 L413.54 216.85 L413.09 216.27 L412.64 215.71 L412.19 215.16 L411.74 214.63 L411.29 214.12 L410.84 213.62 L410.39 213.13 L409.94 212.66 L409.49 212.21 L409.05 211.77 L408.61 211.35 L408.16 210.94 L407.72 210.54 L407.29 210.16 L406.86 209.80 L406.43 209.45 L406.00 209.11 L405.58 208.78 L405.17 208.47 L404.76 208.17 L404.35 207.89 L403.95 207.62 L403.56 207.36 L403.17 207.11 L402.79 206.88 L402.42 206.66 L402.05 206.45 L401.69 206.25 L401.34 206.06 L401.00 205.88 L400.66 205.71 L400.34 205.56 L400.02 205.41 L399.71 205.27 L399.41 205.14 L399.12 205.02 L398.84 204.91 L398.56 204.81 L398.30 204.72 L398.05 204.63 L397.81 204.56 L397.58 204.49 L397.36 204.42 L397.15 204.36 L396.95 204.31 L396.76 204.27 L396.59 204.23 L396.42 204.19 L396.27 204.16 L396.13 204.14 L396.00 204.12 L395.88 204.10 L395.77 204.09 L395.68 204.07 L395.59 204.07 L395.52 204.06 L395.46 204.05 L395.42 204.05 L395.38 204.05 L395.36 204.05 L395.35 204.05 " style="fill:none;stroke:#0080cc;stroke-width:1;" /></g></svg>