<?xml version="1.0" standalone="no"?><!DOCTYPE svg PUBLIC "-//W3C//DTD SVG 1.1//EN" "http://www.w3.org/Graphics/SVG/1.1/DTD/svg11.dtd"><svg xmlns="http://www.w3.org/2000/svg" viewBox="0 0 586 336" version="1.1"><clipPath id="box"><rect x="0" y="0" width="586" height="336" style="fill:none;stroke:none;" /></clipPath><g clip-path="url(#box)"><rect x="0.00" y="0.00" width="586.00" height="336.00" style="fill:#FFFFFF;stroke:none;" /><path d="M0.00 329.00 L586.00 329.00 M0.00 275.00 L586.00 275.00 M0.00 221.00 L586.00 221.00 M0.00 168.00 L586.00 168.00 M0.00 114.00 L586.00 114.00 M0.00 60.00 L586.00 60.00 M0.00 6.00 L586.00 6.00 M4.00 0.00 L4.00 336.00 M62.00 0.00 L62.00 336.00 M119.00 0.00 L119.00 336.00 M177.00 0.00 L177.00 336.00 M235.00 0.00 L235.00 336.00 M293.00 0.00 L293.00 336.00 M350.00 0.00 L350.00 336.00 M408.00 0.00 L408.00 336.00 M466.00 0.00 L466.00 336.00 M523.00 0.00 L523.00 336.00 M581.00 0.00 L581.00 336.00 " style="fill:none;stroke:#D0D0D0;stroke-width:1;" /><path d="M293.00 0.00 L293.00 336.00 " style="fill:none;stroke:#000000;stroke-width:1;" /><path d="M287.14 383.04 L298.86 383.04 M287.14 329.28 L298.86 329.28 M287.14 275.52 L298.86 275.52 M287.14 221.76 L298.86 221.76 M287.14 168.00 L298.86 168.00 M287.14 114.24 L298.86 114.24 M287.14 60.48 L298.86 60.48 M287.14 6.72 L298.86 6.72 " style="fill:none;stroke:#000000;stroke-width:1;" /><path d="M0.00 168.00 L586.00 168.00 " style="fill:none;stroke:#000000;stroke-width:1;" /><path d="M-53.19 162.14 L-53.19 173.86 M4.51 162.14 L4.51 173.86 M62.21 162.14 L62.21 173.86 M119.90 162.14 L119.90 173.86 M177.60 162.14 L177.60 173.86 M235.30 162.14 L235.30 173.86 M293.00 162.14 L293.00 173.86 M350.70 162.14 L350.70 173.86 M408.40 162.14 L408.40 173.86 M466.10 162.14 L466.10 173.86 M523.79 162.14 L523.79 173.86 M581.49 162.14 L581.49 173.86 " style="fill:none;stroke:#000000;stroke-width:1;" /><text x="300.325" y="278.0200000000001" text-anchor="start" style="font:10px Droid Sans,Trebuchet MS,Arial,Helvetica,sans-serif;stroke:none;fill:#000000">-4</text><text x="300.325" y="224.26000000000005" text-anchor="start" style="font:10px Droid Sans,Trebuchet MS,Arial,Helvetica,sans-serif;stroke:none;fill:#000000">-2</text><text x="300.325" y="170.5" text-anchor="start" style="font:10px Droid Sans,Trebuchet MS,Arial,Helvetica,sans-serif;stroke:none;fill:#000000">0</text><text x="300.325" y="116.73999999999997" text-anchor="start" style="font:10px Droid Sans,Trebuchet MS,Arial,Helvetica,sans-serif;stroke:none;fill:#000000">2</text><text x="300.325" y="62.979999999999926" text-anchor="start" style="font:10px Droid Sans,Trebuchet MS,Arial,Helvetica,sans-serif;stroke:none;fill:#000000">4</text><text x="62.20615384615368" y="183.325" text-anchor="middle" style="font:10px Droid Sans,Trebuchet MS,Arial,Helvetica,sans-serif;stroke:none;fill:#000000">-8</text><text x="119.90461538461527" y="183.325" text-anchor="middle" style="font:10px Droid Sans,Trebuchet MS,Arial,Helvetica,sans-serif;stroke:none;fill:#000000">-6</text><text x="177.60307692307686" y="183.325" text-anchor="middle" style="font:10px Droid Sans,Trebuchet MS,Arial,Helvetica,sans-serif;stroke:none;fill:#000000">-4</text><text x="235.3015384615384" y="183.325" text-anchor="middle" style="font:10px Droid Sans,Trebuchet MS,Arial,Helvetica,sans-serif;stroke:none;fill:#000000">-2</text><text x="293" y="183.325" text-anchor="middle" style="font:10px Droid Sans,Trebuchet MS,Arial,Helvetica,sans-serif;stroke:none;fill:#000000">0</text><text x="350.6984615384616" y="183.325" text-anchor="middle" style="font:10px Droid Sans,Trebuchet MS,Arial,Helvetica,sans-serif;stroke:none;fill:#000000">2</text><text x="408.3969230769232" y="183.325" text-anchor="middle" style="font:10px Droid Sans,Trebuchet MS,Arial,Helvetica,sans-serif;stroke:none;fill:#000000">4</text><text x="466.0953846153847" y="183.325" text-anchor="middle" style="font:10px Droid Sans,Trebuchet MS,Arial,Helvetica,sans-serif;stroke:none;fill:#000000">6</text><text x="523.7938461538463" y="183.325" text-anchor="middle" style="font:10px Droid Sans,Trebuchet MS,Arial,Helvetica,sans-serif;stroke:none;fill:#000000">8</text><path d="M111.73 168.00 L111.73 168.00 L111.73 168.00 L111.73 167.99 L111.74 167.99 L111.74 167.98 L111.74 167.97 L111.74 167.95 L111.74 167.93 L111.74 167.91 L111.74 167.89 L111.74 167.87 L111.74 167.84 L111.74 167.81 L111.75 167.77 L111.75 167.74 L111.75 167.70 L111.75 167.66 L111.76 167.61 L111.76 167.57 L111.77 167.52 L111.77 167.46 L111.78 167.41 L111.79 167.35 L111.79 167.29 L111.80 167.23 L111.81 167.16 L111.82 167.10 L111.83 167.03 L111.84 166.95 L111.85 166.88 L111.86 166.80 L111.88 166.72 L111.89 166.64 L111.91 166.55 L111.92 166.46 L111.94 166.37 L111.96 166.28 L111.98 166.18 L112.00 166.08 L112.02 165.98 L112.04 165.88 L112.06 165.77 L112.09 165.66 L112.11 165.55 L112.14 165.44 L112.17 165.32 L112.20 165.21 L112.23 165.09 L112.26 164.96 L112.29 164.84 L112.33 164.71 L112.36 164.58 L112.40 164.45 L112.44 164.31 L112.48 164.18 L112.52 164.04 L112.57 163.89 L112.61 163.75 L112.66 163.60 L112.71 163.46 L112.75 163.31 L112.81 163.15 L112.86 163.00 L112.91 162.84 L112.97 162.68 L113.03 162.52 L113.09 162.35 L113.15 162.19 L113.21 162.02 L113.28 161.85 L113.34 161.68 L113.41 161.50 L113.48 161.33 L113.56 161.15 L113.63 160.97 L113.71 160.79 L113.79 160.60 L113.87 160.42 L113.95 160.23 L114.03 160.04 L114.12 159.85 L114.21 159.65 L114.30 159.46 L114.39 159.26 L114.49 159.06 L114.58 158.86 L114.68 158.66 L114.78 158.45 L114.89 158.25 L114.99 158.04 L115.10 157.83 L115.21 157.62 L115.32 157.40 L115.44 157.19 L115.56 156.97 L115.68 156.76 L115.80 156.54 L115.92 156.32 L116.05 156.09 L116.18 155.87 L116.31 155.64 L116.44 155.42 L116.58 155.19 L116.72 154.96 L116.86 154.73 L117.00 154.49 L117.15 154.26 L117.30 154.03 L117.45 153.79 L117.60 153.55 L117.76 153.31 L117.92 153.07 L118.08 152.83 L118.24 152.59 L118.41 152.34 L118.58 152.10 L118.75 151.85 L118.93 151.61 L119.10 151.36 L119.28 151.11 L119.47 150.86 L119.65 150.61 L119.84 150.36 L120.03 150.10 L120.22 149.85 L120.42 149.60 L120.62 149.34 L120.82 149.08 L121.02 148.83 L121.23 148.57 L121.44 148.31 L121.65 148.05 L121.87 147.79 L122.09 147.53 L122.31 147.27 L122.53 147.01 L122.76 146.74 L122.99 146.48 L123.22 146.22 L123.46 145.95 L123.69 145.69 L123.94 145.42 L124.18 145.16 L124.43 144.89 L124.68 144.63 L124.93 144.36 L125.18 144.09 L125.44 143.82 L125.70 143.56 L125.97 143.29 L126.23 143.02 L126.50 142.75 L126.77 142.48 L127.05 142.22 L127.33 141.95 L127.61 141.68 L127.89 141.41 L128.18 141.14 L128.47 140.87 L128.76 140.60 L129.06 140.34 L129.36 140.07 L129.66 139.80 L129.96 139.53 L130.27 139.26 L130.58 138.99 L130.89 138.73 L131.21 138.46 L131.52 138.19 L131.85 137.92 L132.17 137.66 L132.50 137.39 L132.83 137.12 L133.16 136.86 L133.50 136.59 L133.83 136.33 L134.18 136.06 L134.52 135.80 L134.87 135.54 L135.22 135.27 L135.57 135.01 L135.92 134.75 L136.28 134.49 L136.64 134.23 L137.01 133.97 L137.37 133.71 L137.74 133.45 L138.12 133.20 L138.49 132.94 L138.87 132.68 L139.25 132.43 L139.63 132.18 L140.02 131.92 L140.41 131.67 L140.80 131.42 L141.19 131.17 L141.59 130.92 L141.99 130.67 L142.39 130.43 L142.79 130.18 L143.20 129.93 L143.61 129.69 L144.02 129.45 L144.44 129.21 L144.86 128.97 L145.28 128.73 L145.70 128.49 L146.12 128.25 L146.55 128.02 L146.98 127.78 L147.42 127.55 L147.85 127.32 L148.29 127.09 L148.73 126.86 L149.17 126.63 L149.62 126.41 L150.06 126.18 L150.51 125.96 L150.97 125.74 L151.42 125.52 L151.88 125.30 L152.34 125.08 L152.80 124.87 L153.26 124.66 L153.73 124.44 L154.20 124.23 L154.67 124.03 L155.14 123.82 L155.62 123.61 L156.10 123.41 L156.58 123.21 L157.06 123.01 L157.54 122.81 L158.03 122.62 L158.51 122.42 L159.01 122.23 L159.50 122.04 L159.99 121.85 L160.49 121.67 L160.99 121.48 L161.49 121.30 L161.99 121.12 L162.49 120.94 L163.00 120.76 L163.51 120.59 L164.02 120.42 L164.53 120.25 L165.04 120.08 L165.56 119.91 L166.07 119.75 L166.59 119.59 L167.11 119.43 L167.64 119.27 L168.16 119.11 L168.68 118.96 L169.21 118.81 L169.74 118.66 L170.27 118.51 L170.80 118.37 L171.34 118.23 L171.87 118.09 L172.41 117.95 L172.95 117.81 L173.48 117.68 L174.03 117.55 L174.57 117.42 L175.11 117.30 L175.66 117.17 L176.20 117.05 L176.75 116.93 L177.30 116.82 L177.85 116.70 L178.40 116.59 L178.95 116.48 L179.51 116.38 L180.06 116.27 L180.62 116.17 L181.17 116.07 L181.73 115.98 L182.29 115.88 L182.85 115.79 L183.41 115.70 L183.97 115.62 L184.53 115.53 L185.10 115.45 L185.66 115.37 L186.23 115.30 L186.79 115.23 L187.36 115.15 L187.93 115.09 L188.50 115.02 L189.06 114.96 L189.63 114.90 L190.20 114.84 L190.78 114.78 L191.35 114.73 L191.92 114.68 L192.49 114.63 L193.06 114.59 L193.64 114.55 L194.21 114.51 L194.79 114.47 L195.36 114.44 L195.94 114.41 L196.51 114.38 L197.09 114.35 L197.66 114.33 L198.24 114.31 L198.81 114.29 L199.39 114.28 L199.97 114.26 L200.54 114.25 L201.12 114.25 L201.70 114.24 L202.28 114.24 L202.85 114.24 L203.43 114.24 L204.01 114.25 L204.58 114.26 L205.16 114.27 L205.74 114.29 L206.31 114.30 L206.89 114.32 L207.47 114.34 L208.04 114.37 L208.62 114.40 L209.19 114.43 L209.77 114.46 L210.34 114.50 L210.91 114.54 L211.49 114.58 L212.06 114.62 L212.63 114.67 L213.21 114.72 L213.78 114.77 L214.35 114.82 L214.92 114.88 L215.49 114.94 L216.06 115.00 L216.63 115.07 L217.19 115.13 L217.76 115.20 L218.33 115.28 L218.89 115.35 L219.46 115.43 L220.02 115.51 L220.58 115.59 L221.15 115.68 L221.71 115.76 L222.27 115.86 L222.83 115.95 L223.39 116.04 L223.94 116.14 L224.50 116.24 L225.05 116.35 L225.61 116.45 L226.16 116.56 L226.71 116.67 L227.26 116.78 L227.81 116.90 L228.36 117.02 L228.91 117.14 L229.45 117.26 L229.99 117.38 L230.54 117.51 L231.08 117.64 L231.62 117.77 L232.16 117.91 L232.69 118.04 L233.23 118.18 L233.76 118.32 L234.29 118.47 L234.83 118.61 L235.35 118.76 L235.88 118.91 L236.41 119.06 L236.93 119.22 L237.46 119.38 L237.98 119.53 L238.50 119.70 L239.01 119.86 L239.53 120.02 L240.04 120.19 L240.56 120.36 L241.07 120.53 L241.57 120.71 L242.08 120.88 L242.59 121.06 L243.09 121.24 L243.59 121.42 L244.09 121.61 L244.59 121.79 L245.08 121.98 L245.57 122.17 L246.06 122.36 L246.55 122.56 L247.04 122.75 L247.52 122.95 L248.01 123.15 L248.49 123.35 L248.97 123.55 L249.44 123.75 L249.91 123.96 L250.39 124.17 L250.86 124.38 L251.32 124.59 L251.79 124.80 L252.25 125.02 L252.71 125.23 L253.17 125.45 L253.62 125.67 L254.08 125.89 L254.53 126.11 L254.98 126.34 L255.42 126.56 L255.87 126.79 L256.31 127.02 L256.74 127.24 L257.18 127.48 L257.61 127.71 L258.05 127.94 L258.47 128.18 L258.90 128.41 L259.32 128.65 L259.75 128.89 L260.16 129.13 L260.58 129.37 L260.99 129.61 L261.40 129.86 L261.81 130.10 L262.22 130.35 L262.62 130.59 L263.02 130.84 L263.42 131.09 L263.81 131.34 L264.20 131.59 L264.59 131.84 L264.98 132.10 L265.36 132.35 L265.75 132.60 L266.12 132.86 L266.50 133.12 L266.87 133.37 L267.24 133.63 L267.61 133.89 L267.98 134.15 L268.34 134.41 L268.70 134.67 L269.05 134.93 L269.41 135.19 L269.76 135.45 L270.11 135.72 L270.45 135.98 L270.79 136.24 L271.13 136.51 L271.47 136.77 L271.80 137.04 L272.13 137.31 L272.46 137.57 L272.79 137.84 L273.11 138.11 L273.43 138.37 L273.74 138.64 L274.06 138.91 L274.37 139.18 L274.68 139.44 L274.98 139.71 L275.28 139.98 L275.58 140.25 L275.88 140.52 L276.17 140.79 L276.46 141.06 L276.75 141.32 L277.04 141.59 L277.32 141.86 L277.60 142.13 L277.87 142.40 L278.15 142.67 L278.42 142.94 L278.69 143.20 L278.95 143.47 L279.21 143.74 L279.47 144.01 L279.73 144.27 L279.98 144.54 L280.23 144.81 L280.48 145.07 L280.72 145.34 L280.96 145.60 L281.20 145.87 L281.44 146.13 L281.67 146.40 L281.90 146.66 L282.13 146.92 L282.36 147.19 L282.58 147.45 L282.80 147.71 L283.01 147.97 L283.23 148.23 L283.44 148.49 L283.65 148.74 L283.85 149.00 L284.05 149.26 L284.25 149.51 L284.45 149.77 L284.64 150.02 L284.84 150.28 L285.02 150.53 L285.21 150.78 L285.39 151.03 L285.58 151.28 L285.75 151.53 L285.93 151.78 L286.10 152.02 L286.27 152.27 L286.44 152.51 L286.60 152.75 L286.77 153.00 L286.93 153.24 L287.08 153.48 L287.24 153.71 L287.39 153.95 L287.54 154.19 L287.69 154.42 L287.83 154.65 L287.97 154.88 L288.11 155.12 L288.25 155.34 L288.38 155.57 L288.52 155.80 L288.65 156.02 L288.77 156.24 L288.90 156.47 L289.02 156.69 L289.14 156.90 L289.26 157.12 L289.37 157.34 L289.49 157.55 L289.60 157.76 L289.71 157.97 L289.81 158.18 L289.92 158.39 L290.02 158.59 L290.12 158.80 L290.22 159.00 L290.31 159.20 L290.41 159.40 L290.50 159.59 L290.59 159.79 L290.67 159.98 L290.76 160.17 L290.84 160.36 L290.92 160.54 L291.00 160.73 L291.08 160.91 L291.16 161.09 L291.23 161.27 L291.30 161.45 L291.37 161.62 L291.44 161.80 L291.50 161.97 L291.57 162.14 L291.63 162.30 L291.69 162.47 L291.75 162.63 L291.80 162.79 L291.86 162.95 L291.91 163.10 L291.96 163.26 L292.01 163.41 L292.06 163.56 L292.11 163.70 L292.15 163.85 L292.20 163.99 L292.24 164.13 L292.28 164.27 L292.32 164.40 L292.36 164.54 L292.40 164.67 L292.43 164.80 L292.46 164.92 L292.50 165.05 L292.53 165.17 L292.56 165.29 L292.59 165.40 L292.61 165.52 L292.64 165.63 L292.66 165.74 L292.69 165.84 L292.71 165.95 L292.73 166.05 L292.75 166.15 L292.77 166.25 L292.79 166.34 L292.81 166.43 L292.82 166.52 L292.84 166.61 L292.85 166.69 L292.87 166.77 L292.88 166.85 L292.89 166.93 L292.90 167.00 L292.91 167.07 L292.92 167.14 L292.93 167.21 L292.94 167.27 L292.95 167.33 L292.95 167.39 L292.96 167.45 L292.97 167.50 L292.97 167.55 L292.98 167.60 L292.98 167.64 L292.98 167.69 L292.99 167.72 L292.99 167.76 L292.99 167.80 L292.99 167.83 L292.99 167.86 L293.00 167.88 L293.00 167.91 L293.00 167.93 L293.00 167.95 L293.00 167.96 L293.00 167.97 L293.00 167.99 L293.00 167.99 L293.00 168.00 L293.00 168.00 L293.00 168.00 L293.00 168.00 L293.00 167.99 L293.00 167.98 L293.00 167.97 L293.00 167.96 L293.00 167.94 L293.00 167.92 L293.00 167.90 L293.00 167.87 L293.01 167.85 L293.01 167.82 L293.01 167.78 L293.01 167.75 L293.02 167.71 L293.02 167.67 L293.02 167.63 L293.03 167.58 L293.03 167.53 L293.04 167.48 L293.04 167.43 L293.05 167.37 L293.06 167.31 L293.06 167.25 L293.07 167.19 L293.08 167.12 L293.09 167.05 L293.10 166.98 L293.11 166.90 L293.13 166.82 L293.14 166.74 L293.15 166.66 L293.17 166.58 L293.18 166.49 L293.20 166.40 L293.22 166.31 L293.24 166.21 L293.26 166.11 L293.28 166.01 L293.30 165.91 L293.32 165.81 L293.35 165.70 L293.37 165.59 L293.40 165.48 L293.42 165.36 L293.45 165.24 L293.48 165.12 L293.52 165.00 L293.55 164.88 L293.58 164.75 L293.62 164.62 L293.65 164.49 L293.69 164.36 L293.73 164.22 L293.77 164.08 L293.82 163.94 L293.86 163.80 L293.91 163.65 L293.96 163.50 L294.00 163.35 L294.05 163.20 L294.11 163.05 L294.16 162.89 L294.22 162.73 L294.27 162.57 L294.33 162.41 L294.39 162.24 L294.46 162.07 L294.52 161.91 L294.59 161.73 L294.66 161.56 L294.73 161.38 L294.80 161.21 L294.87 161.03 L294.95 160.85 L295.03 160.66 L295.11 160.48 L295.19 160.29 L295.27 160.10 L295.36 159.91 L295.44 159.72 L295.53 159.52 L295.63 159.32 L295.72 159.13 L295.82 158.92 L295.92 158.72 L296.02 158.52 L296.12 158.31 L296.22 158.11 L296.33 157.90 L296.44 157.69 L296.55 157.47 L296.67 157.26 L296.78 157.04 L296.90 156.83 L297.02 156.61 L297.15 156.39 L297.27 156.16 L297.40 155.94 L297.53 155.72 L297.66 155.49 L297.80 155.26 L297.94 155.03 L298.08 154.80 L298.22 154.57 L298.37 154.34 L298.51 154.10 L298.66 153.86 L298.82 153.63 L298.97 153.39 L299.13 153.15 L299.29 152.91 L299.46 152.67 L299.62 152.42 L299.79 152.18 L299.96 151.93 L300.13 151.69 L300.31 151.44 L300.49 151.19 L300.67 150.94 L300.86 150.69 L301.04 150.44 L301.23 150.18 L301.43 149.93 L301.62 149.68 L301.82 149.42 L302.02 149.17 L302.22 148.91 L302.43 148.65 L302.64 148.39 L302.85 148.13 L303.07 147.87 L303.28 147.61 L303.50 147.35 L303.73 147.09 L303.95 146.83 L304.18 146.57 L304.41 146.30 L304.65 146.04 L304.88 145.77 L305.12 145.51 L305.37 145.24 L305.61 144.98 L305.86 144.71 L306.11 144.44 L306.37 144.18 L306.62 143.91 L306.88 143.64 L307.15 143.37 L307.41 143.11 L307.68 142.84 L307.95 142.57 L308.23 142.30 L308.50 142.03 L308.78 141.76 L309.07 141.50 L309.35 141.23 L309.64 140.96 L309.93 140.69 L310.23 140.42 L310.52 140.15 L310.83 139.88 L311.13 139.62 L311.43 139.35 L311.74 139.08 L312.06 138.81 L312.37 138.54 L312.69 138.28 L313.01 138.01 L313.33 137.74 L313.66 137.48 L313.99 137.21 L314.32 136.94 L314.65 136.68 L314.99 136.41 L315.33 136.15 L315.67 135.88 L316.02 135.62 L316.37 135.36 L316.72 135.10 L317.08 134.83 L317.43 134.57 L317.79 134.31 L318.16 134.05 L318.52 133.79 L318.89 133.54 L319.26 133.28 L319.64 133.02 L320.01 132.77 L320.39 132.51 L320.77 132.26 L321.16 132.00 L321.55 131.75 L321.94 131.50 L322.33 131.25 L322.73 131.00 L323.12 130.75 L323.53 130.50 L323.93 130.26 L324.34 130.01 L324.74 129.77 L325.16 129.52 L325.57 129.28 L325.99 129.04 L326.41 128.80 L326.83 128.56 L327.25 128.33 L327.68 128.09 L328.11 127.86 L328.54 127.62 L328.98 127.39 L329.41 127.16 L329.85 126.93 L330.30 126.70 L330.74 126.48 L331.19 126.25 L331.64 126.03 L332.09 125.81 L332.54 125.59 L333.00 125.37 L333.46 125.15 L333.92 124.94 L334.38 124.72 L334.85 124.51 L335.31 124.30 L335.78 124.09 L336.26 123.89 L336.73 123.68 L337.21 123.48 L337.69 123.27 L338.17 123.07 L338.65 122.88 L339.14 122.68 L339.62 122.48 L340.11 122.29 L340.61 122.10 L341.10 121.91 L341.59 121.73 L342.09 121.54 L342.59 121.36 L343.09 121.18 L343.60 121.00 L344.10 120.82 L344.61 120.64 L345.12 120.47 L345.63 120.30 L346.14 120.13 L346.66 119.96 L347.17 119.80 L347.69 119.64 L348.21 119.48 L348.73 119.32 L349.26 119.16 L349.78 119.01 L350.31 118.86 L350.84 118.71 L351.37 118.56 L351.90 118.41 L352.43 118.27 L352.97 118.13 L353.50 117.99 L354.04 117.86 L354.58 117.72 L355.12 117.59 L355.66 117.46 L356.20 117.34 L356.75 117.21 L357.29 117.09 L357.84 116.97 L358.39 116.86 L358.94 116.74 L359.49 116.63 L360.04 116.52 L360.59 116.41 L361.15 116.31 L361.70 116.21 L362.26 116.11 L362.82 116.01 L363.38 115.91 L363.94 115.82 L364.50 115.73 L365.06 115.65 L365.62 115.56 L366.18 115.48 L366.75 115.40 L367.31 115.32 L367.88 115.25 L368.44 115.18 L369.01 115.11 L369.58 115.04 L370.15 114.98 L370.72 114.92 L371.29 114.86 L371.86 114.80 L372.43 114.75 L373.00 114.70 L373.57 114.65 L374.15 114.60 L374.72 114.56 L375.29 114.52 L375.87 114.48 L376.44 114.45 L377.02 114.42 L377.59 114.39 L378.17 114.36 L378.74 114.34 L379.32 114.32 L379.90 114.30 L380.47 114.28 L381.05 114.27 L381.63 114.26 L382.20 114.25 L382.78 114.24 L383.36 114.24 L383.93 114.24 L384.51 114.24 L385.09 114.25 L385.66 114.26 L386.24 114.27 L386.82 114.28 L387.39 114.30 L387.97 114.32 L388.55 114.34 L389.12 114.36 L389.70 114.39 L390.27 114.42 L390.85 114.45 L391.42 114.49 L392.00 114.52 L392.57 114.56 L393.14 114.61 L393.72 114.65 L394.29 114.70 L394.86 114.75 L395.43 114.80 L396.00 114.86 L396.57 114.92 L397.14 114.98 L397.71 115.04 L398.28 115.11 L398.85 115.18 L399.41 115.25 L399.98 115.33 L400.54 115.40 L401.11 115.48 L401.67 115.56 L402.23 115.65 L402.79 115.74 L403.35 115.83 L403.91 115.92 L404.47 116.01 L405.03 116.11 L405.59 116.21 L406.14 116.31 L406.70 116.42 L407.25 116.52 L407.80 116.63 L408.35 116.75 L408.90 116.86 L409.45 116.98 L410.00 117.10 L410.54 117.22 L411.09 117.34 L411.63 117.47 L412.17 117.60 L412.71 117.73 L413.25 117.86 L413.79 118.00 L414.32 118.14 L414.86 118.28 L415.39 118.42 L415.92 118.57 L416.45 118.71 L416.98 118.86 L417.51 119.01 L418.03 119.17 L418.55 119.32 L419.08 119.48 L419.60 119.64 L420.11 119.81 L420.63 119.97 L421.14 120.14 L421.66 120.31 L422.17 120.48 L422.68 120.65 L423.19 120.83 L423.69 121.00 L424.19 121.18 L424.70 121.36 L425.19 121.55 L425.69 121.73 L426.19 121.92 L426.68 122.11 L427.17 122.30 L427.66 122.49 L428.15 122.69 L428.64 122.88 L429.12 123.08 L429.60 123.28 L430.08 123.49 L430.55 123.69 L431.03 123.89 L431.50 124.10 L431.97 124.31 L432.44 124.52 L432.90 124.73 L433.37 124.95 L433.83 125.16 L434.29 125.38 L434.74 125.60 L435.20 125.82 L435.65 126.04 L436.10 126.26 L436.54 126.49 L436.99 126.71 L437.43 126.94 L437.87 127.17 L438.31 127.40 L438.74 127.63 L439.17 127.87 L439.60 128.10 L440.03 128.34 L440.45 128.57 L440.88 128.81 L441.30 129.05 L441.71 129.29 L442.13 129.54 L442.54 129.78 L442.95 130.02 L443.35 130.27 L443.76 130.51 L444.16 130.76 L444.56 131.01 L444.95 131.26 L445.35 131.51 L445.74 131.76 L446.12 132.01 L446.51 132.27 L446.89 132.52 L447.27 132.78 L447.65 133.03 L448.02 133.29 L448.39 133.55 L448.76 133.81 L449.13 134.06 L449.49 134.32 L449.85 134.59 L450.21 134.85 L450.56 135.11 L450.91 135.37 L451.26 135.63 L451.61 135.90 L451.95 136.16 L452.29 136.42 L452.63 136.69 L452.96 136.96 L453.29 137.22 L453.62 137.49 L453.95 137.75 L454.27 138.02 L454.59 138.29 L454.91 138.55 L455.22 138.82 L455.54 139.09 L455.84 139.36 L456.15 139.63 L456.45 139.90 L456.75 140.16 L457.05 140.43 L457.35 140.70 L457.64 140.97 L457.93 141.24 L458.21 141.51 L458.49 141.78 L458.77 142.05 L459.05 142.31 L459.33 142.58 L459.60 142.85 L459.87 143.12 L460.13 143.39 L460.39 143.65 L460.65 143.92 L460.91 144.19 L461.16 144.46 L461.42 144.72 L461.66 144.99 L461.91 145.25 L462.15 145.52 L462.39 145.78 L462.63 146.05 L462.86 146.31 L463.09 146.58 L463.32 146.84 L463.55 147.10 L463.77 147.36 L463.99 147.62 L464.21 147.89 L464.42 148.15 L464.64 148.40 L464.84 148.66 L465.05 148.92 L465.25 149.18 L465.45 149.43 L465.65 149.69 L465.85 149.94 L466.04 150.20 L466.23 150.45 L466.42 150.70 L466.60 150.95 L466.78 151.20 L466.96 151.45 L467.14 151.70 L467.31 151.94 L467.48 152.19 L467.65 152.43 L467.82 152.68 L467.98 152.92 L468.14 153.16 L468.30 153.40 L468.45 153.64 L468.61 153.88 L468.76 154.11 L468.91 154.35 L469.05 154.58 L469.19 154.81 L469.33 155.04 L469.47 155.27 L469.61 155.50 L469.74 155.73 L469.87 155.95 L470.00 156.17 L470.12 156.40 L470.25 156.62 L470.37 156.83 L470.49 157.05 L470.60 157.27 L470.72 157.48 L470.83 157.69 L470.94 157.91 L471.05 158.11 L471.15 158.32 L471.25 158.53 L471.35 158.73 L471.45 158.93 L471.55 159.13 L471.64 159.33 L471.73 159.53 L471.82 159.72 L471.91 159.92 L472.00 160.11 L472.08 160.30 L472.16 160.49 L472.24 160.67 L472.32 160.85 L472.40 161.04 L472.47 161.22 L472.54 161.39 L472.61 161.57 L472.68 161.74 L472.75 161.91 L472.81 162.08 L472.87 162.25 L472.93 162.41 L472.99 162.58 L473.05 162.74 L473.11 162.90 L473.16 163.05 L473.21 163.21 L473.26 163.36 L473.31 163.51 L473.36 163.66 L473.41 163.80 L473.45 163.95 L473.49 164.09 L473.53 164.23 L473.57 164.36 L473.61 164.50 L473.65 164.63 L473.68 164.76 L473.72 164.88 L473.75 165.01 L473.78 165.13 L473.81 165.25 L473.84 165.37 L473.87 165.48 L473.90 165.59 L473.92 165.70 L473.95 165.81 L473.97 165.92 L473.99 166.02 L474.01 166.12 L474.03 166.22 L474.05 166.31 L474.07 166.40 L474.08 166.49 L474.10 166.58 L474.11 166.67 L474.13 166.75 L474.14 166.83 L474.15 166.91 L474.16 166.98 L474.17 167.05 L474.18 167.12 L474.19 167.19 L474.20 167.25 L474.21 167.31 L474.22 167.37 L474.22 167.43 L474.23 167.48 L474.23 167.53 L474.24 167.58 L474.24 167.63 L474.25 167.67 L474.25 167.71 L474.25 167.75 L474.26 167.79 L474.26 167.82 L474.26 167.85 L474.26 167.88 L474.26 167.90 L474.26 167.92 L474.26 167.94 L474.26 167.96 L474.26 167.97 L474.26 167.98 L474.26 167.99 L474.27 168.00 L474.27 168.00 " style="fill:none;stroke:#ff0000;stroke-width:1;" /></g></svg>