<?xml version="1.0" standalone="no"?><!DOCTYPE svg PUBLIC "-//W3C//DTD SVG 1.1//EN" "http://www.w3.org/Graphics/SVG/1.1/DTD/svg11.dtd"><svg xmlns="http://www.w3.org/2000/svg" viewBox="0 0 618 368" version="1.1"><clipPath id="box"><rect x="0" y="0" width="618" height="368" style="fill:none;stroke:none;" /></clipPath><g clip-path="url(#box)"><rect x="0.00" y="0.00" width="618.00" height="368.00" style="fill:#FFFFFF;stroke:none;" /><path d="M0.00 319.00 L618.00 319.00 M0.00 268.00 L618.00 268.00 M0.00 218.00 L618.00 218.00 M0.00 167.00 L618.00 167.00 M0.00 116.00 L618.00 116.00 M0.00 66.00 L618.00 66.00 M0.00 15.00 L618.00 15.00 M47.00 0.00 L47.00 368.00 M100.00 0.00 L100.00 368.00 M152.00 0.00 L152.00 368.00 M204.00 0.00 L204.00 368.00 M256.00 0.00 L256.00 368.00 M309.00 0.00 L309.00 368.00 M361.00 0.00 L361.00 368.00 M413.00 0.00 L413.00 368.00 M465.00 0.00 L465.00 368.00 M518.00 0.00 L518.00 368.00 M570.00 0.00 L570.00 368.00 " style="fill:none;stroke:#D0D0D0;stroke-width:1;" /><path d="M309.15 0.00 L309.15 368.00 " style="fill:none;stroke:#000000;stroke-width:1;" /><path d="M302.97 369.88 L315.33 369.88 M302.97 319.30 L315.33 319.30 M302.97 268.73 L315.33 268.73 M302.97 218.15 L315.33 218.15 M302.97 167.57 L315.33 167.57 M302.97 116.99 L315.33 116.99 M302.97 66.42 L315.33 66.42 M302.97 15.84 L315.33 15.84 " style="fill:none;stroke:#000000;stroke-width:1;" /><path d="M0.00 167.57 L618.00 167.57 " style="fill:none;stroke:#000000;stroke-width:1;" /><path d="M-4.46 161.39 L-4.46 173.75 M47.81 161.39 L47.81 173.75 M100.08 161.39 L100.08 173.75 M152.34 161.39 L152.34 173.75 M204.61 161.39 L204.61 173.75 M256.88 161.39 L256.88 173.75 M309.15 161.39 L309.15 173.75 M361.42 161.39 L361.42 173.75 M413.69 161.39 L413.69 173.75 M465.96 161.39 L465.96 173.75 M518.23 161.39 L518.23 173.75 M570.50 161.39 L570.50 173.75 " style="fill:none;stroke:#000000;stroke-width:1;" /><text x="316.87670930278404" y="321.8032395169793" text-anchor="start" style="font:10px Droid Sans,Trebuchet MS,Arial,Helvetica,sans-serif;stroke:none;fill:#000000">-60</text><text x="316.87670930278404" y="271.2257046392833" text-anchor="start" style="font:10px Droid Sans,Trebuchet MS,Arial,Helvetica,sans-serif;stroke:none;fill:#000000">-40</text><text x="316.87670930278404" y="220.64816976158724" text-anchor="start" style="font:10px Droid Sans,Trebuchet MS,Arial,Helvetica,sans-serif;stroke:none;fill:#000000">-20</text><text x="316.87670930278404" y="170.07063488389122" text-anchor="start" style="font:10px Droid Sans,Trebuchet MS,Arial,Helvetica,sans-serif;stroke:none;fill:#000000">0</text><text x="316.87670930278404" y="119.49310000619515" text-anchor="start" style="font:10px Droid Sans,Trebuchet MS,Arial,Helvetica,sans-serif;stroke:none;fill:#000000">20</text><text x="316.87670930278404" y="68.9155651284991" text-anchor="start" style="font:10px Droid Sans,Trebuchet MS,Arial,Helvetica,sans-serif;stroke:none;fill:#000000">40</text><text x="316.87670930278404" y="18.33803025080305" text-anchor="start" style="font:10px Droid Sans,Trebuchet MS,Arial,Helvetica,sans-serif;stroke:none;fill:#000000">60</text><text x="47.806253162180596" y="183.2956348838912" text-anchor="middle" style="font:10px Droid Sans,Trebuchet MS,Arial,Helvetica,sans-serif;stroke:none;fill:#000000">-100</text><text x="100.07534439030128" y="183.2956348838912" text-anchor="middle" style="font:10px Droid Sans,Trebuchet MS,Arial,Helvetica,sans-serif;stroke:none;fill:#000000">-80</text><text x="152.34443561842195" y="183.2956348838912" text-anchor="middle" style="font:10px Droid Sans,Trebuchet MS,Arial,Helvetica,sans-serif;stroke:none;fill:#000000">-60</text><text x="204.61352684654264" y="183.2956348838912" text-anchor="middle" style="font:10px Droid Sans,Trebuchet MS,Arial,Helvetica,sans-serif;stroke:none;fill:#000000">-40</text><text x="256.8826180746633" y="183.2956348838912" text-anchor="middle" style="font:10px Droid Sans,Trebuchet MS,Arial,Helvetica,sans-serif;stroke:none;fill:#000000">-20</text><text x="309.151709302784" y="183.2956348838912" text-anchor="middle" style="font:10px Droid Sans,Trebuchet MS,Arial,Helvetica,sans-serif;stroke:none;fill:#000000">0</text><text x="361.42080053090467" y="183.2956348838912" text-anchor="middle" style="font:10px Droid Sans,Trebuchet MS,Arial,Helvetica,sans-serif;stroke:none;fill:#000000">20</text><text x="413.68989175902533" y="183.2956348838912" text-anchor="middle" style="font:10px Droid Sans,Trebuchet MS,Arial,Helvetica,sans-serif;stroke:none;fill:#000000">40</text><text x="465.958982987146" y="183.2956348838912" text-anchor="middle" style="font:10px Droid Sans,Trebuchet MS,Arial,Helvetica,sans-serif;stroke:none;fill:#000000">60</text><text x="518.2280742152667" y="183.2956348838912" text-anchor="middle" style="font:10px Droid Sans,Trebuchet MS,Arial,Helvetica,sans-serif;stroke:none;fill:#000000">80</text><text x="570.4971654433873" y="183.2956348838912" text-anchor="middle" style="font:10px Droid Sans,Trebuchet MS,Arial,Helvetica,sans-serif;stroke:none;fill:#000000">100</text><path d="M309.15 167.57 L309.15 167.57 L309.18 167.57 L309.20 167.57 L309.23 167.57 L309.26 167.57 L309.28 167.56 L309.31 167.56 L309.33 167.56 L309.36 167.55 L309.39 167.55 L309.41 167.55 L309.44 167.54 L309.46 167.53 L309.49 167.53 L309.51 167.52 L309.54 167.51 L309.56 167.51 L309.59 167.50 L309.61 167.49 L309.64 167.48 L309.66 167.47 L309.69 167.46 L309.71 167.45 L309.74 167.44 L309.76 167.43 L309.78 167.41 L309.81 167.40 L309.83 167.39 L309.85 167.37 L309.88 167.36 L309.90 167.35 L309.92 167.33 L309.95 167.32 L309.97 167.30 L309.99 167.28 L310.01 167.27 L310.03 167.25 L310.05 167.23 L310.07 167.21 L310.09 167.20 L310.11 167.18 L310.13 167.16 L310.15 167.14 L310.17 167.12 L310.19 167.10 L310.21 167.08 L310.23 167.05 L310.25 167.03 L310.26 167.01 L310.28 166.99 L310.30 166.96 L310.31 166.94 L310.33 166.92 L310.35 166.89 L310.36 166.87 L310.38 166.84 L310.39 166.82 L310.41 166.79 L310.42 166.77 L310.43 166.74 L310.45 166.71 L310.46 166.69 L310.47 166.66 L310.48 166.63 L310.49 166.60 L310.50 166.58 L310.51 166.55 L310.52 166.52 L310.53 166.49 L310.54 166.46 L310.55 166.43 L310.56 166.40 L310.57 166.37 L310.57 166.34 L310.58 166.31 L310.59 166.28 L310.59 166.25 L310.60 166.22 L310.60 166.18 L310.60 166.15 L310.61 166.12 L310.61 166.09 L310.61 166.05 L310.62 166.02 L310.62 165.99 L310.62 165.96 L310.62 165.92 L310.62 165.89 L310.62 165.86 L310.62 165.82 L310.61 165.79 L310.61 165.75 L310.61 165.72 L310.60 165.69 L310.60 165.65 L310.60 165.62 L310.59 165.58 L310.58 165.55 L310.58 165.51 L310.57 165.48 L310.56 165.44 L310.56 165.41 L310.55 165.37 L310.54 165.34 L310.53 165.30 L310.52 165.27 L310.51 165.23 L310.49 165.20 L310.48 165.16 L310.47 165.13 L310.46 165.09 L310.44 165.06 L310.43 165.02 L310.41 164.99 L310.40 164.95 L310.38 164.92 L310.36 164.88 L310.34 164.85 L310.33 164.81 L310.31 164.78 L310.29 164.74 L310.27 164.71 L310.25 164.67 L310.23 164.64 L310.20 164.60 L310.18 164.57 L310.16 164.54 L310.14 164.50 L310.11 164.47 L310.09 164.44 L310.06 164.40 L310.03 164.37 L310.01 164.34 L309.98 164.30 L309.95 164.27 L309.92 164.24 L309.90 164.21 L309.87 164.18 L309.84 164.14 L309.80 164.11 L309.77 164.08 L309.74 164.05 L309.71 164.02 L309.68 163.99 L309.64 163.96 L309.61 163.93 L309.57 163.90 L309.54 163.87 L309.50 163.84 L309.47 163.81 L309.43 163.79 L309.39 163.76 L309.35 163.73 L309.31 163.70 L309.28 163.68 L309.24 163.65 L309.20 163.63 L309.15 163.60 L309.11 163.58 L309.07 163.55 L309.03 163.53 L308.99 163.50 L308.94 163.48 L308.90 163.46 L308.86 163.43 L308.81 163.41 L308.77 163.39 L308.72 163.37 L308.67 163.35 L308.63 163.33 L308.58 163.31 L308.53 163.29 L308.48 163.27 L308.43 163.25 L308.39 163.23 L308.34 163.22 L308.29 163.20 L308.24 163.18 L308.19 163.17 L308.13 163.15 L308.08 163.14 L308.03 163.12 L307.98 163.11 L307.93 163.10 L307.87 163.09 L307.82 163.07 L307.77 163.06 L307.71 163.05 L307.66 163.04 L307.60 163.03 L307.55 163.02 L307.49 163.02 L307.43 163.01 L307.38 163.00 L307.32 163.00 L307.27 162.99 L307.21 162.98 L307.15 162.98 L307.09 162.98 L307.03 162.97 L306.98 162.97 L306.92 162.97 L306.86 162.97 L306.80 162.97 L306.74 162.97 L306.68 162.97 L306.62 162.97 L306.56 162.97 L306.50 162.98 L306.44 162.98 L306.38 162.99 L306.32 162.99 L306.26 163.00 L306.20 163.00 L306.14 163.01 L306.08 163.02 L306.01 163.03 L305.95 163.04 L305.89 163.05 L305.83 163.06 L305.77 163.07 L305.71 163.09 L305.64 163.10 L305.58 163.11 L305.52 163.13 L305.46 163.14 L305.40 163.16 L305.33 163.18 L305.27 163.20 L305.21 163.21 L305.15 163.23 L305.08 163.25 L305.02 163.27 L304.96 163.30 L304.90 163.32 L304.84 163.34 L304.77 163.37 L304.71 163.39 L304.65 163.42 L304.59 163.44 L304.53 163.47 L304.46 163.50 L304.40 163.53 L304.34 163.56 L304.28 163.59 L304.22 163.62 L304.16 163.65 L304.10 163.68 L304.04 163.72 L303.98 163.75 L303.92 163.79 L303.86 163.82 L303.80 163.86 L303.74 163.90 L303.68 163.94 L303.62 163.97 L303.56 164.01 L303.50 164.05 L303.44 164.10 L303.39 164.14 L303.33 164.18 L303.27 164.22 L303.21 164.27 L303.16 164.31 L303.10 164.36 L303.05 164.41 L302.99 164.45 L302.94 164.50 L302.88 164.55 L302.83 164.60 L302.77 164.65 L302.72 164.70 L302.67 164.76 L302.61 164.81 L302.56 164.86 L302.51 164.92 L302.46 164.97 L302.41 165.03 L302.36 165.08 L302.31 165.14 L302.26 165.20 L302.21 165.26 L302.16 165.32 L302.11 165.38 L302.06 165.44 L302.02 165.50 L301.97 165.56 L301.93 165.62 L301.88 165.69 L301.84 165.75 L301.79 165.82 L301.75 165.88 L301.71 165.95 L301.67 166.01 L301.62 166.08 L301.58 166.15 L301.54 166.22 L301.50 166.29 L301.47 166.36 L301.43 166.43 L301.39 166.50 L301.35 166.57 L301.32 166.64 L301.28 166.72 L301.25 166.79 L301.21 166.87 L301.18 166.94 L301.15 167.02 L301.12 167.09 L301.09 167.17 L301.06 167.24 L301.03 167.32 L301.00 167.40 L300.97 167.48 L300.95 167.56 L300.92 167.64 L300.89 167.72 L300.87 167.80 L300.85 167.88 L300.82 167.96 L300.80 168.04 L300.78 168.13 L300.76 168.21 L300.74 168.29 L300.73 168.38 L300.71 168.46 L300.69 168.54 L300.68 168.63 L300.66 168.72 L300.65 168.80 L300.64 168.89 L300.62 168.97 L300.61 169.06 L300.60 169.15 L300.59 169.24 L300.59 169.32 L300.58 169.41 L300.57 169.50 L300.57 169.59 L300.56 169.68 L300.56 169.77 L300.56 169.86 L300.56 169.95 L300.56 170.04 L300.56 170.13 L300.56 170.22 L300.56 170.31 L300.57 170.40 L300.57 170.49 L300.58 170.58 L300.59 170.68 L300.59 170.77 L300.60 170.86 L300.61 170.95 L300.62 171.04 L300.64 171.14 L300.65 171.23 L300.66 171.32 L300.68 171.41 L300.70 171.51 L300.71 171.60 L300.73 171.69 L300.75 171.79 L300.77 171.88 L300.80 171.97 L300.82 172.06 L300.84 172.16 L300.87 172.25 L300.89 172.34 L300.92 172.44 L300.95 172.53 L300.98 172.62 L301.01 172.71 L301.04 172.81 L301.08 172.90 L301.11 172.99 L301.14 173.08 L301.18 173.18 L301.22 173.27 L301.26 173.36 L301.30 173.45 L301.34 173.54 L301.38 173.63 L301.42 173.72 L301.47 173.81 L301.51 173.91 L301.56 174.00 L301.60 174.09 L301.65 174.18 L301.70 174.26 L301.75 174.35 L301.80 174.44 L301.86 174.53 L301.91 174.62 L301.97 174.71 L302.02 174.79 L302.08 174.88 L302.14 174.97 L302.20 175.05 L302.26 175.14 L302.32 175.23 L302.38 175.31 L302.44 175.40 L302.51 175.48 L302.58 175.56 L302.64 175.65 L302.71 175.73 L302.78 175.81 L302.85 175.89 L302.92 175.97 L302.99 176.05 L303.07 176.13 L303.14 176.21 L303.22 176.29 L303.29 176.37 L303.37 176.45 L303.45 176.53 L303.53 176.60 L303.61 176.68 L303.69 176.75 L303.77 176.83 L303.85 176.90 L303.94 176.97 L304.02 177.05 L304.11 177.12 L304.20 177.19 L304.29 177.26 L304.37 177.33 L304.46 177.40 L304.56 177.47 L304.65 177.53 L304.74 177.60 L304.83 177.67 L304.93 177.73 L305.02 177.79 L305.12 177.86 L305.22 177.92 L305.32 177.98 L305.42 178.04 L305.52 178.10 L305.62 178.16 L305.72 178.22 L305.82 178.27 L305.93 178.33 L306.03 178.38 L306.14 178.44 L306.24 178.49 L306.35 178.54 L306.46 178.60 L306.56 178.65 L306.67 178.69 L306.78 178.74 L306.89 178.79 L307.00 178.84 L307.12 178.88 L307.23 178.93 L307.34 178.97 L307.46 179.01 L307.57 179.05 L307.69 179.09 L307.80 179.13 L307.92 179.17 L308.04 179.20 L308.16 179.24 L308.27 179.27 L308.39 179.31 L308.51 179.34 L308.63 179.37 L308.76 179.40 L308.88 179.43 L309.00 179.46 L309.12 179.48 L309.25 179.51 L309.37 179.53 L309.49 179.55 L309.62 179.57 L309.74 179.59 L309.87 179.61 L310.00 179.63 L310.12 179.65 L310.25 179.66 L310.38 179.68 L310.50 179.69 L310.63 179.70 L310.76 179.71 L310.89 179.72 L311.02 179.73 L311.15 179.73 L311.28 179.74 L311.41 179.74 L311.54 179.74 L311.67 179.75 L311.80 179.75 L311.93 179.74 L312.06 179.74 L312.20 179.74 L312.33 179.73 L312.46 179.72 L312.59 179.72 L312.73 179.71 L312.86 179.70 L312.99 179.68 L313.12 179.67 L313.26 179.65 L313.39 179.64 L313.52 179.62 L313.66 179.60 L313.79 179.58 L313.92 179.56 L314.06 179.54 L314.19 179.51 L314.32 179.49 L314.46 179.46 L314.59 179.43 L314.72 179.40 L314.86 179.37 L314.99 179.33 L315.12 179.30 L315.25 179.26 L315.39 179.23 L315.52 179.19 L315.65 179.15 L315.78 179.11 L315.91 179.06 L316.05 179.02 L316.18 178.97 L316.31 178.93 L316.44 178.88 L316.57 178.83 L316.70 178.78 L316.83 178.73 L316.96 178.67 L317.09 178.62 L317.22 178.56 L317.35 178.50 L317.47 178.44 L317.60 178.38 L317.73 178.32 L317.86 178.25 L317.98 178.19 L318.11 178.12 L318.23 178.06 L318.36 177.99 L318.48 177.92 L318.61 177.84 L318.73 177.77 L318.85 177.70 L318.98 177.62 L319.10 177.54 L319.22 177.46 L319.34 177.38 L319.46 177.30 L319.58 177.22 L319.69 177.14 L319.81 177.05 L319.93 176.96 L320.05 176.88 L320.16 176.79 L320.28 176.70 L320.39 176.60 L320.50 176.51 L320.61 176.42 L320.73 176.32 L320.84 176.22 L320.95 176.12 L321.06 176.03 L321.16 175.92 L321.27 175.82 L321.38 175.72 L321.48 175.61 L321.59 175.51 L321.69 175.40 L321.79 175.29 L321.89 175.18 L321.99 175.07 L322.09 174.96 L322.19 174.85 L322.29 174.73 L322.39 174.62 L322.48 174.50 L322.57 174.39 L322.67 174.27 L322.76 174.15 L322.85 174.03 L322.94 173.90 L323.03 173.78 L323.12 173.66 L323.20 173.53 L323.29 173.40 L323.37 173.28 L323.45 173.15 L323.53 173.02 L323.61 172.89 L323.69 172.76 L323.77 172.63 L323.85 172.49 L323.92 172.36 L324.00 172.22 L324.07 172.09 L324.14 171.95 L324.21 171.81 L324.28 171.67 L324.34 171.53 L324.41 171.39 L324.47 171.25 L324.54 171.11 L324.60 170.96 L324.66 170.82 L324.71 170.67 L324.77 170.53 L324.83 170.38 L324.88 170.23 L324.93 170.09 L324.98 169.94 L325.03 169.79 L325.08 169.64 L325.13 169.48 L325.17 169.33 L325.22 169.18 L325.26 169.03 L325.30 168.87 L325.34 168.72 L325.37 168.56 L325.41 168.41 L325.44 168.25 L325.48 168.10 L325.51 167.94 L325.54 167.78 L325.56 167.62 L325.59 167.46 L325.61 167.30 L325.64 167.14 L325.66 166.98 L325.68 166.82 L325.69 166.66 L325.71 166.50 L325.72 166.34 L325.74 166.17 L325.75 166.01 L325.76 165.85 L325.76 165.68 L325.77 165.52 L325.77 165.36 L325.78 165.19 L325.78 165.03 L325.77 164.86 L325.77 164.70 L325.77 164.53 L325.76 164.37 L325.75 164.20 L325.74 164.03 L325.73 163.87 L325.72 163.70 L325.70 163.54 L325.68 163.37 L325.66 163.20 L325.64 163.04 L325.62 162.87 L325.60 162.70 L325.57 162.54 L325.54 162.37 L325.51 162.20 L325.48 162.04 L325.45 161.87 L325.41 161.71 L325.38 161.54 L325.34 161.37 L325.30 161.21 L325.25 161.04 L325.21 160.88 L325.16 160.71 L325.11 160.55 L325.07 160.38 L325.01 160.22 L324.96 160.05 L324.91 159.89 L324.85 159.72 L324.79 159.56 L324.73 159.40 L324.67 159.24 L324.60 159.07 L324.54 158.91 L324.47 158.75 L324.40 158.59 L324.33 158.43 L324.25 158.27 L324.18 158.11 L324.10 157.95 L324.02 157.79 L323.94 157.63 L323.86 157.48 L323.78 157.32 L323.69 157.16 L323.60 157.01 L323.52 156.85 L323.42 156.70 L323.33 156.55 L323.24 156.39 L323.14 156.24 L323.04 156.09 L322.94 155.94 L322.84 155.79 L322.74 155.64 L322.63 155.49 L322.53 155.35 L322.42 155.20 L322.31 155.05 L322.20 154.91 L322.09 154.77 L321.97 154.62 L321.85 154.48 L321.74 154.34 L321.62 154.20 L321.49 154.06 L321.37 153.92 L321.25 153.79 L321.12 153.65 L320.99 153.52 L320.86 153.38 L320.73 153.25 L320.60 153.12 L320.46 152.99 L320.33 152.86 L320.19 152.73 L320.05 152.61 L319.91 152.48 L319.77 152.36 L319.63 152.23 L319.48 152.11 L319.34 151.99 L319.19 151.87 L319.04 151.75 L318.89 151.64 L318.74 151.52 L318.58 151.41 L318.43 151.29 L318.27 151.18 L318.11 151.07 L317.96 150.96 L317.79 150.86 L317.63 150.75 L317.47 150.65 L317.31 150.55 L317.14 150.44 L316.97 150.35 L316.81 150.25 L316.64 150.15 L316.47 150.06 L316.29 149.96 L316.12 149.87 L315.95 149.78 L315.77 149.69 L315.59 149.60 L315.42 149.52 L315.24 149.44 L315.06 149.35 L314.88 149.27 L314.69 149.19 L314.51 149.12 L314.33 149.04 L314.14 148.97 L313.96 148.90 L313.77 148.83 L313.58 148.76 L313.39 148.69 L313.20 148.63 L313.01 148.56 L312.82 148.50 L312.63 148.44 L312.43 148.38 L312.24 148.33 L312.04 148.27 L311.85 148.22 L311.65 148.17 L311.45 148.12 L311.25 148.08 L311.05 148.03 L310.86 147.99 L310.65 147.95 L310.45 147.91 L310.25 147.87 L310.05 147.84 L309.85 147.81 L309.64 147.78 L309.44 147.75 L309.23 147.72 L309.03 147.69 L308.82 147.67 L308.62 147.65 L308.41 147.63 L308.20 147.61 L307.99 147.60 L307.79 147.59 L307.58 147.57 L307.37 147.57 L307.16 147.56 L306.95 147.55 L306.74 147.55 L306.53 147.55 L306.32 147.55 L306.11 147.55 L305.90 147.56 L305.69 147.57 L305.48 147.58 L305.27 147.59 L305.05 147.60 L304.84 147.62 L304.63 147.64 L304.42 147.66 L304.21 147.68 L304.00 147.70 L303.78 147.73 L303.57 147.76 L303.36 147.79 L303.15 147.82 L302.94 147.86 L302.73 147.89 L302.52 147.93 L302.30 147.97 L302.09 148.02 L301.88 148.06 L301.67 148.11 L301.46 148.16 L301.25 148.21 L301.04 148.27 L300.83 148.32 L300.63 148.38 L300.42 148.44 L300.21 148.50 L300.00 148.57 L299.79 148.63 L299.59 148.70 L299.38 148.77 L299.18 148.85 L298.97 148.92 L298.77 149.00 L298.56 149.08 L298.36 149.16 L298.16 149.24 L297.95 149.33 L297.75 149.42 L297.55 149.51 L297.35 149.60 L297.15 149.69 L296.95 149.79 L296.75 149.89 L296.56 149.99 L296.36 150.09 L296.17 150.19 L295.97 150.30 L295.78 150.41 L295.59 150.52 L295.39 150.63 L295.20 150.74 L295.01 150.86 L294.82 150.98 L294.64 151.10 L294.45 151.22 L294.26 151.34 L294.08 151.47 L293.90 151.60 L293.71 151.73 L293.53 151.86 L293.35 151.99 L293.18 152.13 L293.00 152.27 L292.82 152.41 L292.65 152.55 L292.47 152.69 L292.30 152.84 L292.13 152.98 L291.96 153.13 L291.79 153.28 L291.62 153.44 L291.46 153.59 L291.30 153.75 L291.13 153.90 L290.97 154.06 L290.81 154.23 L290.65 154.39 L290.50 154.55 L290.34 154.72 L290.19 154.89 L290.04 155.06 L289.89 155.23 L289.74 155.40 L289.59 155.58 L289.45 155.75 L289.30 155.93 L289.16 156.11 L289.02 156.29 L288.88 156.48 L288.75 156.66 L288.61 156.85 L288.48 157.03 L288.35 157.22 L288.22 157.41 L288.09 157.61 L287.97 157.80 L287.84 157.99 L287.72 158.19 L287.60 158.39 L287.48 158.59 L287.37 158.79 L287.25 158.99 L287.14 159.19 L287.03 159.40 L286.92 159.60 L286.82 159.81 L286.71 160.02 L286.61 160.23 L286.51 160.44 L286.42 160.65 L286.32 160.86 L286.23 161.08 L286.14 161.29 L286.05 161.51 L285.96 161.73 L285.88 161.94 L285.79 162.16 L285.71 162.38 L285.63 162.61 L285.56 162.83 L285.49 163.05 L285.41 163.28 L285.35 163.50 L285.28 163.73 L285.21 163.96 L285.15 164.18 L285.09 164.41 L285.04 164.64 L284.98 164.87 L284.93 165.11 L284.88 165.34 L284.83 165.57 L284.78 165.80 L284.74 166.04 L284.70 166.27 L284.66 166.51 L284.63 166.74 L284.59 166.98 L284.56 167.22 L284.53 167.46 L284.51 167.70 L284.48 167.93 L284.46 168.17 L284.44 168.41 L284.43 168.65 L284.41 168.89 L284.40 169.13 L284.39 169.38 L284.39 169.62 L284.38 169.86 L284.38 170.10 L284.38 170.34 L284.39 170.59 L284.40 170.83 L284.40 171.07 L284.42 171.32 L284.43 171.56 L284.45 171.80 L284.47 172.05 L284.49 172.29 L284.51 172.53 L284.54 172.78 L284.57 173.02 L284.60 173.26 L284.64 173.51 L284.67 173.75 L284.71 173.99 L284.76 174.24 L284.80 174.48 L284.85 174.72 L284.90 174.96 L284.95 175.21 L285.01 175.45 L285.06 175.69 L285.12 175.93 L285.19 176.17 L285.25 176.41 L285.32 176.65 L285.39 176.89 L285.47 177.13 L285.54 177.37 L285.62 177.61 L285.70 177.85 L285.79 178.08 L285.87 178.32 L285.96 178.56 L286.05 178.79 L286.15 179.03 L286.24 179.26 L286.34 179.49 L286.44 179.72 L286.55 179.96 L286.65 180.19 L286.76 180.42 L286.87 180.65 L286.99 180.87 L287.10 181.10 L287.22 181.33 L287.34 181.55 L287.47 181.78 L287.59 182.00 L287.72 182.22 L287.85 182.45 L287.99 182.67 L288.12 182.89 L288.26 183.10 L288.40 183.32 L288.55 183.54 L288.69 183.75 L288.84 183.96 L288.99 184.18 L289.15 184.39 L289.30 184.60 L289.46 184.80 L289.62 185.01 L289.78 185.22 L289.94 185.42 L290.11 185.62 L290.28 185.82 L290.45 186.02 L290.63 186.22 L290.80 186.42 L290.98 186.61 L291.16 186.81 L291.34 187.00 L291.53 187.19 L291.71 187.38 L291.90 187.57 L292.09 187.75 L292.29 187.94 L292.48 188.12 L292.68 188.30 L292.88 188.48 L293.08 188.65 L293.28 188.83 L293.49 189.00 L293.69 189.17 L293.90 189.34 L294.12 189.51 L294.33 189.68 L294.54 189.84 L294.76 190.00 L294.98 190.16 L295.20 190.32 L295.42 190.47 L295.65 190.63 L295.87 190.78 L296.10 190.93 L296.33 191.08 L296.56 191.22 L296.80 191.37 L297.03 191.51 L297.27 191.65 L297.51 191.78 L297.75 191.92 L297.99 192.05 L298.23 192.18 L298.48 192.31 L298.72 192.43 L298.97 192.56 L299.22 192.68 L299.47 192.79 L299.72 192.91 L299.98 193.02 L300.23 193.14 L300.49 193.25 L300.75 193.35 L301.01 193.46 L301.27 193.56 L301.53 193.66 L301.79 193.75 L302.06 193.85 L302.32 193.94 L302.59 194.03 L302.86 194.12 L303.13 194.20 L303.40 194.28 L303.67 194.36 L303.94 194.44 L304.21 194.51 L304.49 194.58 L304.76 194.65 L305.04 194.72 L305.32 194.78 L305.59 194.84 L305.87 194.90 L306.15 194.96 L306.43 195.01 L306.71 195.06 L307.00 195.11 L307.28 195.15 L307.56 195.19 L307.85 195.23 L308.13 195.27 L308.42 195.30 L308.70 195.33 L308.99 195.36 L309.28 195.39 L309.57 195.41 L309.86 195.43 L310.14 195.45 L310.43 195.46 L310.72 195.47 L311.01 195.48 L311.30 195.49 L311.59 195.49 L311.88 195.49 L312.18 195.49 L312.47 195.48 L312.76 195.47 L313.05 195.46 L313.34 195.45 L313.63 195.43 L313.93 195.41 L314.22 195.39 L314.51 195.36 L314.80 195.34 L315.09 195.30 L315.39 195.27 L315.68 195.23 L315.97 195.19 L316.26 195.15 L316.55 195.10 L316.84 195.06 L317.13 195.00 L317.42 194.95 L317.71 194.89 L318.00 194.83 L318.29 194.77 L318.58 194.70 L318.87 194.64 L319.16 194.56 L319.45 194.49 L319.73 194.41 L320.02 194.33 L320.31 194.25 L320.59 194.16 L320.88 194.07 L321.16 193.98 L321.44 193.89 L321.72 193.79 L322.01 193.69 L322.29 193.59 L322.57 193.48 L322.85 193.37 L323.12 193.26 L323.40 193.15 L323.68 193.03 L323.95 192.91 L324.23 192.79 L324.50 192.66 L324.77 192.53 L325.04 192.40 L325.31 192.27 L325.58 192.13 L325.85 191.99 L326.12 191.85 L326.38 191.71 L326.64 191.56 L326.91 191.41 L327.17 191.26 L327.43 191.10 L327.68 190.95 L327.94 190.78 L328.20 190.62 L328.45 190.46 L328.70 190.29 L328.95 190.12 L329.20 189.94 L329.45 189.77 L329.70 189.59 L329.94 189.41 L330.18 189.22 L330.42 189.04 L330.66 188.85 L330.90 188.66 L331.14 188.46 L331.37 188.27 L331.60 188.07 L331.83 187.87 L332.06 187.66 L332.28 187.46 L332.51 187.25 L332.73 187.04 L332.95 186.83 L333.17 186.61 L333.38 186.39 L333.60 186.17 L333.81 185.95 L334.02 185.73 L334.23 185.50 L334.43 185.27 L334.64 185.04 L334.84 184.81 L335.03 184.57 L335.23 184.33 L335.42 184.10 L335.62 183.85 L335.81 183.61 L335.99 183.36 L336.18 183.12 L336.36 182.87 L336.54 182.62 L336.71 182.36 L336.89 182.11 L337.06 181.85 L337.23 181.59 L337.40 181.33 L337.56 181.07 L337.72 180.80 L337.88 180.54 L338.04 180.27 L338.19 180.00 L338.34 179.73 L338.49 179.45 L338.64 179.18 L338.78 178.90 L338.92 178.62 L339.06 178.34 L339.19 178.06 L339.32 177.78 L339.45 177.49 L339.58 177.21 L339.70 176.92 L339.82 176.63 L339.94 176.34 L340.05 176.05 L340.16 175.76 L340.27 175.46 L340.38 175.17 L340.48 174.87 L340.58 174.57 L340.68 174.28 L340.77 173.98 L340.86 173.67 L340.95 173.37 L341.03 173.07 L341.11 172.76 L341.19 172.46 L341.26 172.15 L341.34 171.84 L341.40 171.54 L341.47 171.23 L341.53 170.92 L341.59 170.60 L341.65 170.29 L341.70 169.98 L341.75 169.67 L341.79 169.35 L341.84 169.04 L341.88 168.72 L341.91 168.41 L341.95 168.09 L341.98 167.77 L342.00 167.46 L342.03 167.14 L342.05 166.82 L342.06 166.50 L342.08 166.18 L342.09 165.86 L342.09 165.54 L342.10 165.22 L342.10 164.90 L342.09 164.58 L342.09 164.26 L342.08 163.93 L342.06 163.61 L342.05 163.29 L342.03 162.97 L342.00 162.65 L341.98 162.33 L341.95 162.00 L341.91 161.68 L341.88 161.36 L341.84 161.04 L341.79 160.72 L341.75 160.40 L341.70 160.08 L341.64 159.76 L341.58 159.44 L341.52 159.12 L341.46 158.80 L341.39 158.48 L341.32 158.16 L341.25 157.84 L341.17 157.52 L341.09 157.20 L341.01 156.89 L340.92 156.57 L340.83 156.26 L340.73 155.94 L340.64 155.63 L340.54 155.31 L340.43 155.00 L340.32 154.69 L340.21 154.38 L340.10 154.07 L339.98 153.76 L339.86 153.45 L339.74 153.14 L339.61 152.83 L339.48 152.53 L339.35 152.22 L339.21 151.92 L339.07 151.62 L338.92 151.32 L338.78 151.02 L338.63 150.72 L338.47 150.42 L338.32 150.13 L338.16 149.83 L338.00 149.54 L337.83 149.25 L337.66 148.95 L337.49 148.67 L337.31 148.38 L337.13 148.09 L336.95 147.81 L336.77 147.52 L336.58 147.24 L336.39 146.96 L336.20 146.68 L336.00 146.41 L335.80 146.13 L335.60 145.86 L335.39 145.59 L335.18 145.32 L334.97 145.05 L334.75 144.78 L334.54 144.52 L334.32 144.26 L334.09 144.00 L333.87 143.74 L333.64 143.48 L333.40 143.23 L333.17 142.98 L332.93 142.73 L332.69 142.48 L332.45 142.24 L332.20 141.99 L331.95 141.75 L331.70 141.51 L331.45 141.28 L331.19 141.04 L330.93 140.81 L330.67 140.58 L330.41 140.35 L330.14 140.13 L329.87 139.91 L329.60 139.69 L329.33 139.47 L329.05 139.26 L328.77 139.04 L328.49 138.83 L328.20 138.63 L327.92 138.42 L327.63 138.22 L327.34 138.02 L327.05 137.83 L326.75 137.63 L326.45 137.44 L326.15 137.25 L325.85 137.07 L325.55 136.88 L325.24 136.71 L324.93 136.53 L324.62 136.35 L324.31 136.18 L324.00 136.02 L323.68 135.85 L323.36 135.69 L323.04 135.53 L322.72 135.37 L322.40 135.22 L322.07 135.07 L321.74 134.92 L321.41 134.78 L321.08 134.64 L320.75 134.50 L320.42 134.36 L320.08 134.23 L319.74 134.11 L319.40 133.98 L319.06 133.86 L318.72 133.74 L318.38 133.62 L318.03 133.51 L317.69 133.40 L317.34 133.30 L316.99 133.20 L316.64 133.10 L316.29 133.00 L315.94 132.91 L315.58 132.82 L315.23 132.73 L314.87 132.65 L314.51 132.57 L314.15 132.50 L313.80 132.43 L313.43 132.36 L313.07 132.29 L312.71 132.23 L312.35 132.17 L311.98 132.12 L311.62 132.07 L311.25 132.02 L310.89 131.98 L310.52 131.94 L310.15 131.90 L309.79 131.87 L309.42 131.84 L309.05 131.81 L308.68 131.79 L308.31 131.77 L307.94 131.76 L307.56 131.74 L307.19 131.74 L306.82 131.73 L306.45 131.73 L306.08 131.73 L305.70 131.74 L305.33 131.75 L304.96 131.76 L304.59 131.78 L304.21 131.80 L303.84 131.83 L303.47 131.85 L303.09 131.89 L302.72 131.92 L302.35 131.96 L301.97 132.00 L301.60 132.05 L301.23 132.10 L300.86 132.15 L300.49 132.21 L300.12 132.27 L299.74 132.34 L299.37 132.41 L299.00 132.48 L298.63 132.55 L298.27 132.63 L297.90 132.72 L297.53 132.80 L297.16 132.89 L296.80 132.99 L296.43 133.08 L296.07 133.18 L295.70 133.29 L295.34 133.40 L294.98 133.51 L294.62 133.62 L294.25 133.74 L293.90 133.87 L293.54 133.99 L293.18 134.12 L292.82 134.26 L292.47 134.39 L292.12 134.53 L291.76 134.68 L291.41 134.83 L291.06 134.98 L290.71 135.13 L290.37 135.29 L290.02 135.45 L289.68 135.61 L289.33 135.78 L288.99 135.96 L288.65 136.13 L288.31 136.31 L287.98 136.49 L287.64 136.68 L287.31 136.87 L286.98 137.06 L286.65 137.25 L286.32 137.45 L286.00 137.65 L285.67 137.86 L285.35 138.07 L285.03 138.28 L284.71 138.50 L284.40 138.71 L284.08 138.94 L283.77 139.16 L283.46 139.39 L283.15 139.62 L282.85 139.85 L282.55 140.09 L282.24 140.33 L281.95 140.58 L281.65 140.82 L281.36 141.07 L281.07 141.32 L280.78 141.58 L280.49 141.84 L280.21 142.10 L279.93 142.37 L279.65 142.63 L279.37 142.90 L279.10 143.18 L278.83 143.45 L278.56 143.73 L278.29 144.01 L278.03 144.30 L277.77 144.58 L277.51 144.87 L277.26 145.17 L277.01 145.46 L276.76 145.76 L276.51 146.06 L276.27 146.36 L276.03 146.67 L275.80 146.98 L275.56 147.29 L275.33 147.60 L275.11 147.91 L274.88 148.23 L274.66 148.55 L274.44 148.87 L274.23 149.20 L274.02 149.53 L273.81 149.85 L273.60 150.19 L273.40 150.52 L273.21 150.86 L273.01 151.19 L272.82 151.53 L272.63 151.88 L272.45 152.22 L272.27 152.57 L272.09 152.91 L271.92 153.26 L271.74 153.62 L271.58 153.97 L271.41 154.33 L271.26 154.68 L271.10 155.04 L270.95 155.40 L270.80 155.77 L270.65 156.13 L270.51 156.50 L270.37 156.86 L270.24 157.23 L270.11 157.60 L269.98 157.98 L269.86 158.35 L269.74 158.72 L269.63 159.10 L269.52 159.48 L269.41 159.86 L269.31 160.24 L269.21 160.62 L269.11 161.00 L269.02 161.38 L268.93 161.77 L268.85 162.16 L268.77 162.54 L268.69 162.93 L268.62 163.32 L268.55 163.71 L268.49 164.10 L268.43 164.49 L268.37 164.88 L268.32 165.28 L268.27 165.67 L268.23 166.07 L268.19 166.46 L268.15 166.86 L268.12 167.25 L268.09 167.65 L268.07 168.05 L268.05 168.45 L268.04 168.85 L268.03 169.24 L268.02 169.64 L268.02 170.04 L268.02 170.44 L268.02 170.84 L268.03 171.24 L268.05 171.64 L268.07 172.04 L268.09 172.44 L268.11 172.84 L268.15 173.24 L268.18 173.65 L268.22 174.05 L268.26 174.45 L268.31 174.85 L268.36 175.24 L268.42 175.64 L268.48 176.04 L268.54 176.44 L268.61 176.84 L268.68 177.24 L268.76 177.64 L268.84 178.03 L268.92 178.43 L269.01 178.82 L269.11 179.22 L269.20 179.61 L269.31 180.01 L269.41 180.40 L269.52 180.79 L269.64 181.18 L269.75 181.57 L269.88 181.96 L270.00 182.35 L270.13 182.74 L270.27 183.13 L270.41 183.51 L270.55 183.90 L270.70 184.28 L270.85 184.66 L271.00 185.04 L271.16 185.42 L271.32 185.80 L271.49 186.18 L271.66 186.55 L271.84 186.92 L272.02 187.30 L272.20 187.67 L272.38 188.04 L272.58 188.40 L272.77 188.77 L272.97 189.13 L273.17 189.50 L273.38 189.86 L273.59 190.22 L273.80 190.57 L274.02 190.93 L274.24 191.28 L274.47 191.63 L274.70 191.98 L274.93 192.33 L275.17 192.68 L275.41 193.02 L275.65 193.36 L275.90 193.70 L276.15 194.04 L276.41 194.37 L276.67 194.70 L276.93 195.03 L277.19 195.36 L277.46 195.68 L277.74 196.01 L278.01 196.33 L278.29 196.64 L278.58 196.96 L278.86 197.27 L279.15 197.58 L279.45 197.89 L279.74 198.19 L280.04 198.49 L280.35 198.79 L280.65 199.09 L280.96 199.38 L281.28 199.67 L281.59 199.96 L281.91 200.25 L282.24 200.53 L282.56 200.81 L282.89 201.08 L283.22 201.35 L283.56 201.62 L283.90 201.89 L284.24 202.15 L284.58 202.41 L284.93 202.67 L285.28 202.93 L285.63 203.18 L285.99 203.42 L286.34 203.67 L286.71 203.91 L287.07 204.14 L287.43 204.38 L287.80 204.61 L288.17 204.84 L288.55 205.06 L288.93 205.28 L289.30 205.50 L289.69 205.71 L290.07 205.92 L290.46 206.12 L290.84 206.33 L291.23 206.52 L291.63 206.72 L292.02 206.91 L292.42 207.10 L292.82 207.28 L293.22 207.46 L293.63 207.64 L294.03 207.81 L294.44 207.98 L294.85 208.14 L295.26 208.30 L295.67 208.46 L296.09 208.61 L296.51 208.76 L296.93 208.90 L297.35 209.04 L297.77 209.18 L298.19 209.31 L298.62 209.44 L299.05 209.56 L299.48 209.69 L299.91 209.80 L300.34 209.91 L300.77 210.02 L301.21 210.13 L301.64 210.23 L302.08 210.32 L302.52 210.41 L302.96 210.50 L303.40 210.58 L303.84 210.66 L304.28 210.73 L304.72 210.81 L305.17 210.87 L305.62 210.93 L306.06 210.99 L306.51 211.04 L306.96 211.09 L307.41 211.14 L307.86 211.18 L308.31 211.21 L308.76 211.24 L309.21 211.27 L309.66 211.29 L310.11 211.31 L310.56 211.32 L311.02 211.33 L311.47 211.34 L311.93 211.34 L312.38 211.34 L312.83 211.33 L313.29 211.31 L313.74 211.30 L314.20 211.28 L314.65 211.25 L315.11 211.22 L315.56 211.18 L316.01 211.15 L316.47 211.10 L316.92 211.05 L317.38 211.00 L317.83 210.94 L318.28 210.88 L318.74 210.82 L319.19 210.75 L319.64 210.67 L320.09 210.59 L320.54 210.51 L320.99 210.42 L321.44 210.33 L321.89 210.23 L322.34 210.13 L322.78 210.03 L323.23 209.92 L323.67 209.80 L324.12 209.68 L324.56 209.56 L325.00 209.43 L325.45 209.30 L325.89 209.16 L326.32 209.02 L326.76 208.88 L327.20 208.73 L327.63 208.58 L328.07 208.42 L328.50 208.26 L328.93 208.09 L329.36 207.92 L329.79 207.74 L330.21 207.57 L330.64 207.38 L331.06 207.19 L331.48 207.00 L331.90 206.81 L332.32 206.61 L332.73 206.40 L333.15 206.19 L333.56 205.98 L333.97 205.76 L334.37 205.54 L334.78 205.32 L335.18 205.09 L335.58 204.86 L335.98 204.62 L336.38 204.38 L336.77 204.13 L337.17 203.89 L337.56 203.63 L337.94 203.38 L338.33 203.12 L338.71 202.85 L339.09 202.58 L339.47 202.31 L339.84 202.04 L340.21 201.76 L340.58 201.47 L340.95 201.18 L341.31 200.89 L341.67 200.60 L342.03 200.30 L342.39 200.00 L342.74 199.69 L343.09 199.38 L343.43 199.07 L343.78 198.76 L344.12 198.44 L344.45 198.11 L344.79 197.79 L345.12 197.46 L345.44 197.12 L345.77 196.79 L346.09 196.45 L346.41 196.10 L346.72 195.76 L347.03 195.41 L347.34 195.06 L347.64 194.70 L347.94 194.34 L348.24 193.98 L348.53 193.61 L348.82 193.24 L349.10 192.87 L349.38 192.50 L349.66 192.12 L349.94 191.74 L350.21 191.36 L350.47 190.97 L350.73 190.59 L350.99 190.19 L351.25 189.80 L351.50 189.40 L351.75 189.00 L351.99 188.60 L352.23 188.20 L352.46 187.79 L352.69 187.38 L352.92 186.97 L353.14 186.56 L353.36 186.14 L353.57 185.72 L353.78 185.30 L353.99 184.88 L354.19 184.45 L354.38 184.02 L354.58 183.59 L354.76 183.16 L354.95 182.73 L355.13 182.29 L355.30 181.85 L355.47 181.41 L355.64 180.97 L355.80 180.53 L355.96 180.08 L356.11 179.64 L356.26 179.19 L356.40 178.74 L356.54 178.29 L356.67 177.83 L356.80 177.38 L356.93 176.92 L357.05 176.46 L357.16 176.00 L357.27 175.54 L357.38 175.08 L357.48 174.62 L357.57 174.15 L357.67 173.69 L357.75 173.22 L357.83 172.75 L357.91 172.28 L357.98 171.81 L358.05 171.34 L358.11 170.87 L358.17 170.40 L358.22 169.93 L358.27 169.45 L358.32 168.98 L358.35 168.50 L358.39 168.03 L358.42 167.55 L358.44 167.07 L358.46 166.60 L358.47 166.12 L358.48 165.64 L358.48 165.16 L358.48 164.68 L358.48 164.20 L358.46 163.72 L358.45 163.24 L358.43 162.77 L358.40 162.29 L358.37 161.81 L358.33 161.33 L358.29 160.85 L358.25 160.37 L358.20 159.89 L358.14 159.41 L358.08 158.93 L358.01 158.46 L357.94 157.98 L357.87 157.50 L357.78 157.03 L357.70 156.55 L357.61 156.07 L357.51 155.60 L357.41 155.13 L357.30 154.65 L357.19 154.18 L357.08 153.71 L356.96 153.24 L356.83 152.77 L356.70 152.30 L356.57 151.83 L356.43 151.37 L356.28 150.90 L356.13 150.44 L355.97 149.97 L355.82 149.51 L355.65 149.05 L355.48 148.59 L355.31 148.14 L355.13 147.68 L354.94 147.23 L354.75 146.77 L354.56 146.32 L354.36 145.87 L354.16 145.42 L353.95 144.98 L353.74 144.53 L353.52 144.09 L353.30 143.65 L353.07 143.21 L352.84 142.78 L352.60 142.34 L352.36 141.91 L352.12 141.48 L351.87 141.05 L351.61 140.62 L351.36 140.20 L351.09 139.78 L350.82 139.36 L350.55 138.94 L350.28 138.53 L349.99 138.12 L349.71 137.71 L349.42 137.30 L349.12 136.90 L348.83 136.50 L348.52 136.10 L348.22 135.70 L347.90 135.31 L347.59 134.92 L347.27 134.53 L346.94 134.15 L346.62 133.77 L346.28 133.39 L345.95 133.01 L345.61 132.64 L345.26 132.27 L344.91 131.91 L344.56 131.55 L344.21 131.19 L343.85 130.83 L343.48 130.48 L343.11 130.13 L342.74 129.78 L342.37 129.44 L341.99 129.10 L341.61 128.77 L341.22 128.43 L340.83 128.11 L340.43 127.78 L340.04 127.46 L339.64 127.14 L339.23 126.83 L338.83 126.52 L338.41 126.21 L338.00 125.91 L337.58 125.61 L337.16 125.32 L336.74 125.03 L336.31 124.74 L335.88 124.46 L335.45 124.18 L335.01 123.91 L334.57 123.64 L334.13 123.37 L333.68 123.11 L333.23 122.85 L332.78 122.60 L332.33 122.35 L331.87 122.10 L331.41 121.86 L330.95 121.63 L330.48 121.40 L330.01 121.17 L329.54 120.95 L329.07 120.73 L328.60 120.51 L328.12 120.30 L327.64 120.10 L327.15 119.90 L326.67 119.70 L326.18 119.51 L325.69 119.33 L325.20 119.14 L324.71 118.97 L324.21 118.80 L323.72 118.63 L323.22 118.46 L322.71 118.31 L322.21 118.15 L321.71 118.00 L321.20 117.86 L320.69 117.72 L320.18 117.59 L319.67 117.46 L319.16 117.34 L318.64 117.22 L318.12 117.10 L317.61 116.99 L317.09 116.89 L316.57 116.79 L316.04 116.70 L315.52 116.61 L315.00 116.52 L314.47 116.44 L313.95 116.37 L313.42 116.30 L312.89 116.24 L312.36 116.18 L311.83 116.12 L311.30 116.07 L310.77 116.03 L310.24 115.99 L309.70 115.96 L309.17 115.93 L308.64 115.91 L308.10 115.89 L307.57 115.88 L307.03 115.87 L306.50 115.87 L305.96 115.87 L305.43 115.88 L304.89 115.89 L304.35 115.91 L303.82 115.94 L303.28 115.96 L302.74 116.00 L302.21 116.04 L301.67 116.08 L301.14 116.13 L300.60 116.19 L300.07 116.25 L299.53 116.31 L299.00 116.38 L298.46 116.46 L297.93 116.54 L297.40 116.63 L296.87 116.72 L296.34 116.82 L295.81 116.92 L295.28 117.03 L294.75 117.14 L294.22 117.26 L293.69 117.38 L293.17 117.51 L292.64 117.64 L292.12 117.78 L291.60 117.92 L291.08 118.07 L290.56 118.22 L290.04 118.38 L289.52 118.55 L289.01 118.72 L288.49 118.89 L287.98 119.07 L287.47 119.25 L286.96 119.44 L286.45 119.64 L285.95 119.83 L285.44 120.04 L284.94 120.25 L284.44 120.46 L283.95 120.68 L283.45 120.91 L282.96 121.13 L282.47 121.37 L281.98 121.61 L281.49 121.85 L281.00 122.10 L280.52 122.35 L280.04 122.61 L279.57 122.87 L279.09 123.14 L278.62 123.41 L278.15 123.69 L277.68 123.97 L277.22 124.26 L276.76 124.55 L276.30 124.84 L275.84 125.14 L275.39 125.45 L274.94 125.75 L274.49 126.07 L274.05 126.39 L273.61 126.71 L273.17 127.04 L272.74 127.37 L272.31 127.70 L271.88 128.04 L271.45 128.39 L271.03 128.73 L270.61 129.09 L270.20 129.44 L269.79 129.80 L269.38 130.17 L268.98 130.54 L268.58 130.91 L268.18 131.29 L267.79 131.67 L267.40 132.06 L267.02 132.45 L266.64 132.84 L266.26 133.24 L265.89 133.64 L265.52 134.04 L265.15 134.45 L264.79 134.86 L264.44 135.28 L264.08 135.70 L263.73 136.12 L263.39 136.55 L263.05 136.98 L262.71 137.41 L262.38 137.85 L262.06 138.29 L261.73 138.73 L261.42 139.18 L261.10 139.63 L260.79 140.08 L260.49 140.54 L260.19 141.00 L259.89 141.46 L259.60 141.93 L259.32 142.40 L259.04 142.87 L258.76 143.34 L258.49 143.82 L258.22 144.30 L257.96 144.78 L257.71 145.27 L257.45 145.76 L257.21 146.25 L256.96 146.75 L256.73 147.24 L256.50 147.74 L256.27 148.24 L256.05 148.75 L255.83 149.25 L255.62 149.76 L255.41 150.27 L255.21 150.79 L255.02 151.30 L254.83 151.82 L254.64 152.34 L254.46 152.86 L254.29 153.38 L254.12 153.91 L253.95 154.43 L253.80 154.96 L253.64 155.49 L253.49 156.03 L253.35 156.56 L253.22 157.10 L253.08 157.63 L252.96 158.17 L252.84 158.71 L252.72 159.25 L252.62 159.80 L252.51 160.34 L252.41 160.89 L252.32 161.43 L252.24 161.98 L252.15 162.53 L252.08 163.08 L252.01 163.63 L251.95 164.18 L251.89 164.73 L251.83 165.29 L251.79 165.84 L251.75 166.40 L251.71 166.95 L251.68 167.51 L251.66 168.06 L251.64 168.62 L251.63 169.18 L251.62 169.73 L251.62 170.29 L251.62 170.85 L251.64 171.41 L251.65 171.97 L251.67 172.53 L251.70 173.08 L251.74 173.64 L251.78 174.20 L251.82 174.76 L251.87 175.32 L251.93 175.87 L251.99 176.43 L252.06 176.99 L252.14 177.54 L252.22 178.10 L252.30 178.66 L252.39 179.21 L252.49 179.76 L252.59 180.32 L252.70 180.87 L252.82 181.42 L252.94 181.97 L253.07 182.52 L253.20 183.07 L253.34 183.62 L253.48 184.17 L253.63 184.71 L253.78 185.26 L253.95 185.80 L254.11 186.34 L254.28 186.88 L254.46 187.42 L254.65 187.96 L254.83 188.49 L255.03 189.03 L255.23 189.56 L255.44 190.09 L255.65 190.62 L255.86 191.15 L256.09 191.67 L256.31 192.20 L256.55 192.72 L256.79 193.24 L257.03 193.75 L257.28 194.27 L257.54 194.78 L257.80 195.29 L258.07 195.80 L258.34 196.30 L258.61 196.81 L258.90 197.31 L259.18 197.81 L259.48 198.30 L259.78 198.80 L260.08 199.29 L260.39 199.77 L260.70 200.26 L261.02 200.74 L261.34 201.22 L261.67 201.69 L262.01 202.17 L262.35 202.64 L262.69 203.10 L263.04 203.57 L263.39 204.03 L263.75 204.49 L264.12 204.94 L264.49 205.39 L264.86 205.84 L265.24 206.28 L265.62 206.72 L266.01 207.16 L266.40 207.59 L266.80 208.02 L267.20 208.45 L267.61 208.87 L268.02 209.29 L268.43 209.70 L268.85 210.11 L269.28 210.52 L269.70 210.92 L270.14 211.32 L270.58 211.71 L271.02 212.10 L271.46 212.49 L271.91 212.87 L272.37 213.25 L272.82 213.62 L273.29 213.99 L273.75 214.36 L274.22 214.72 L274.70 215.08 L275.17 215.43 L275.66 215.78 L276.14 216.12 L276.63 216.46 L277.12 216.79 L277.62 217.12 L278.12 217.44 L278.62 217.76 L279.13 218.08 L279.64 218.39 L280.16 218.69 L280.67 218.99 L281.19 219.29 L281.72 219.58 L282.25 219.86 L282.78 220.15 L283.31 220.42 L283.85 220.69 L284.38 220.96 L284.93 221.22 L285.47 221.47 L286.02 221.72 L286.57 221.97 L287.13 222.21 L287.68 222.44 L288.24 222.67 L288.80 222.89 L289.37 223.11 L289.93 223.32 L290.50 223.53 L291.07 223.73 L291.65 223.93 L292.22 224.12 L292.80 224.30 L293.38 224.48 L293.97 224.66 L294.55 224.83 L295.14 224.99 L295.72 225.15 L296.31 225.30 L296.91 225.44 L297.50 225.59 L298.10 225.72 L298.69 225.85 L299.29 225.97 L299.89 226.09 L300.49 226.20 L301.10 226.31 L301.70 226.41 L302.31 226.50 L302.91 226.59 L303.52 226.67 L304.13 226.75 L304.74 226.82 L305.35 226.89 L305.96 226.94 L306.57 227.00 L307.19 227.04 L307.80 227.09 L308.42 227.12 L309.03 227.15 L309.65 227.17 L310.26 227.19 L310.88 227.20 L311.50 227.21 L312.12 227.21 L312.73 227.20 L313.35 227.19 L313.97 227.17 L314.59 227.15 L315.21 227.12 L315.82 227.08 L316.44 227.04 L317.06 226.99 L317.68 226.93 L318.29 226.87 L318.91 226.81 L319.53 226.74 L320.14 226.66 L320.76 226.57 L321.37 226.48 L321.98 226.39 L322.60 226.28 L323.21 226.17 L323.82 226.06 L324.43 225.94 L325.04 225.81 L325.65 225.68 L326.25 225.54 L326.86 225.40 L327.46 225.25 L328.07 225.09 L328.67 224.93 L329.27 224.76 L329.87 224.59 L330.46 224.41 L331.06 224.23 L331.65 224.03 L332.25 223.84 L332.84 223.63 L333.42 223.43 L334.01 223.21 L334.59 222.99 L335.18 222.76 L335.76 222.53 L336.34 222.30 L336.91 222.05 L337.48 221.80 L338.06 221.55 L338.62 221.29 L339.19 221.02 L339.75 220.75 L340.32 220.48 L340.87 220.19 L341.43 219.91 L341.98 219.61 L342.53 219.31 L343.08 219.01 L343.62 218.70 L344.16 218.38 L344.70 218.06 L345.24 217.74 L345.77 217.41 L346.30 217.07 L346.82 216.73 L347.34 216.38 L347.86 216.03 L348.38 215.67 L348.89 215.31 L349.40 214.94 L349.90 214.57 L350.40 214.19 L350.90 213.81 L351.39 213.42 L351.88 213.03 L352.37 212.63 L352.85 212.23 L353.33 211.83 L353.80 211.41 L354.27 211.00 L354.73 210.58 L355.20 210.15 L355.65 209.72 L356.11 209.28 L356.55 208.85 L357.00 208.40 L357.44 207.95 L357.87 207.50 L358.30 207.04 L358.73 206.58 L359.15 206.12 L359.57 205.65 L359.98 205.17 L360.38 204.69 L360.79 204.21 L361.18 203.72 L361.58 203.23 L361.96 202.74 L362.35 202.24 L362.72 201.74 L363.10 201.23 L363.46 200.72 L363.82 200.21 L364.18 199.69 L364.53 199.17 L364.88 198.64 L365.22 198.11 L365.56 197.58 L365.89 197.05 L366.21 196.51 L366.53 195.97 L366.85 195.42 L367.15 194.87 L367.46 194.32 L367.75 193.77 L368.05 193.21 L368.33 192.65 L368.61 192.08 L368.89 191.52 L369.15 190.95 L369.42 190.37 L369.67 189.80 L369.93 189.22 L370.17 188.64 L370.41 188.06 L370.64 187.47 L370.87 186.88 L371.09 186.29 L371.31 185.70 L371.52 185.10 L371.72 184.51 L371.92 183.91 L372.11 183.30 L372.29 182.70 L372.47 182.09 L372.64 181.49 L372.81 180.88 L372.97 180.27 L373.12 179.65 L373.27 179.04 L373.41 178.42 L373.55 177.80 L373.68 177.18 L373.80 176.56 L373.91 175.94 L374.02 175.31 L374.13 174.69 L374.22 174.06 L374.31 173.43 L374.39 172.81 L374.47 172.18 L374.54 171.55 L374.61 170.91 L374.66 170.28 L374.71 169.65 L374.76 169.01 L374.80 168.38 L374.83 167.74 L374.85 167.11 L374.87 166.47 L374.88 165.84 L374.89 165.20 L374.89 164.56 L374.88 163.93 L374.86 163.29 L374.84 162.65 L374.81 162.01 L374.78 161.37 L374.74 160.74 L374.69 160.10 L374.63 159.46 L374.57 158.83 L374.50 158.19 L374.43 157.55 L374.35 156.92 L374.26 156.28 L374.17 155.65 L374.07 155.02 L373.96 154.38 L373.85 153.75 L373.72 153.12 L373.60 152.49 L373.46 151.86 L373.32 151.23 L373.18 150.61 L373.02 149.98 L372.86 149.36 L372.70 148.73 L372.52 148.11 L372.34 147.49 L372.16 146.87 L371.97 146.26 L371.77 145.64 L371.56 145.03 L371.35 144.42 L371.13 143.81 L370.91 143.20 L370.68 142.59 L370.44 141.99 L370.20 141.39 L369.95 140.79 L369.69 140.19 L369.43 139.59 L369.16 139.00 L368.88 138.41 L368.60 137.82 L368.32 137.24 L368.02 136.65 L367.72 136.07 L367.42 135.49 L367.11 134.92 L366.79 134.35 L366.46 133.78 L366.13 133.21 L365.80 132.65 L365.46 132.09 L365.11 131.53 L364.75 130.98 L364.40 130.43 L364.03 129.88 L363.66 129.34 L363.28 128.80 L362.90 128.26 L362.51 127.72 L362.12 127.19 L361.72 126.67 L361.31 126.15 L360.90 125.63 L360.49 125.11 L360.06 124.60 L359.64 124.09 L359.20 123.59 L358.77 123.09 L358.32 122.60 L357.87 122.10 L357.42 121.62 L356.96 121.13 L356.50 120.66 L356.03 120.18 L355.56 119.71 L355.08 119.25 L354.59 118.79 L354.10 118.33 L353.61 117.88 L353.11 117.43 L352.61 116.99 L352.10 116.55 L351.58 116.12 L351.07 115.69 L350.54 115.27 L350.02 114.85 L349.49 114.44 L348.95 114.03 L348.41 113.63 L347.87 113.23 L347.32 112.83 L346.76 112.45 L346.21 112.06 L345.64 111.69 L345.08 111.32 L344.51 110.95 L343.94 110.59 L343.36 110.23 L342.78 109.88 L342.19 109.54 L341.60 109.20 L341.01 108.87 L340.41 108.54 L339.81 108.22 L339.21 107.90 L338.60 107.59 L337.99 107.28 L337.38 106.98 L336.76 106.69 L336.14 106.40 L335.52 106.12 L334.89 105.85 L334.26 105.58 L333.63 105.31 L332.99 105.06 L332.36 104.80 L331.71 104.56 L331.07 104.32 L330.42 104.09 L329.77 103.86 L329.12 103.64 L328.47 103.43 L327.81 103.22 L327.15 103.02 L326.49 102.82 L325.83 102.63 L325.16 102.45 L324.49 102.27 L323.82 102.10 L323.15 101.94 L322.48 101.78 L321.80 101.63 L321.12 101.49 L320.44 101.35 L319.76 101.22 L319.08 101.09 L318.40 100.98 L317.71 100.87 L317.02 100.76 L316.34 100.66 L315.65 100.57 L314.96 100.49 L314.27 100.41 L313.57 100.34 L312.88 100.27 L312.18 100.21 L311.49 100.16 L310.79 100.12 L310.10 100.08 L309.40 100.05 L308.70 100.03 L308.00 100.01 L307.30 100.00 L306.60 99.99 L305.90 100.00 L305.21 100.01 L304.51 100.02 L303.81 100.05 L303.11 100.08 L302.41 100.11 L301.71 100.16 L301.01 100.21 L300.31 100.26 L299.61 100.33 L298.91 100.40 L298.21 100.47 L297.52 100.56 L296.82 100.65 L296.12 100.75 L295.43 100.85 L294.73 100.96 L294.04 101.08 L293.35 101.21 L292.66 101.34 L291.97 101.48 L291.28 101.62 L290.59 101.77 L289.91 101.93 L289.22 102.10 L288.54 102.27 L287.86 102.45 L287.18 102.63 L286.50 102.83 L285.82 103.02 L285.15 103.23 L284.47 103.44 L283.80 103.66 L283.13 103.88 L282.47 104.12 L281.80 104.35 L281.14 104.60 L280.48 104.85 L279.82 105.11 L279.17 105.37 L278.51 105.64 L277.86 105.92 L277.22 106.20 L276.57 106.49 L275.93 106.79 L275.29 107.09 L274.66 107.40 L274.02 107.71 L273.39 108.03 L272.77 108.36 L272.14 108.69 L271.52 109.03 L270.91 109.38 L270.29 109.73 L269.68 110.09 L269.07 110.45 L268.47 110.82 L267.87 111.20 L267.28 111.58 L266.68 111.97 L266.10 112.36 L265.51 112.76 L264.93 113.17 L264.35 113.58 L263.78 113.99 L263.21 114.42 L262.65 114.84 L262.09 115.28 L261.54 115.72 L260.98 116.16 L260.44 116.61 L259.90 117.07 L259.36 117.53 L258.82 117.99 L258.30 118.47 L257.77 118.94 L257.25 119.42 L256.74 119.91 L256.23 120.40 L255.73 120.90 L255.23 121.40 L254.73 121.91 L254.24 122.42 L253.76 122.94 L253.28 123.46 L252.81 123.99 L252.34 124.52 L251.88 125.06 L251.42 125.60 L250.97 126.15 L250.52 126.70 L250.08 127.25 L249.65 127.81 L249.22 128.37 L248.79 128.94 L248.37 129.51 L247.96 130.09 L247.56 130.67 L247.15 131.26 L246.76 131.84 L246.37 132.44 L245.99 133.03 L245.61 133.64 L245.24 134.24 L244.88 134.85 L244.52 135.46 L244.17 136.08 L243.82 136.70 L243.48 137.32 L243.15 137.94 L242.82 138.57 L242.50 139.21 L242.19 139.84 L241.88 140.48 L241.58 141.13 L241.29 141.77 L241.00 142.42 L240.72 143.07 L240.44 143.73 L240.17 144.39 L239.91 145.05 L239.66 145.71 L239.41 146.38 L239.17 147.04 L238.94 147.71 L238.71 148.39 L238.49 149.06 L238.28 149.74 L238.07 150.42 L237.87 151.11 L237.68 151.79 L237.50 152.48 L237.32 153.17 L237.15 153.86 L236.98 154.55 L236.83 155.24 L236.68 155.94 L236.53 156.64 L236.40 157.34 L236.27 158.04 L236.15 158.74 L236.04 159.45 L235.93 160.15 L235.83 160.86 L235.74 161.57 L235.66 162.27 L235.58 162.98 L235.51 163.70 L235.45 164.41 L235.39 165.12 L235.34 165.83 L235.30 166.55 L235.27 167.26 L235.24 167.98 L235.23 168.69 L235.22 169.41 L235.21 170.12 L235.22 170.84 L235.23 171.56 L235.25 172.27 L235.27 172.99 L235.31 173.71 L235.35 174.42 L235.40 175.14 L235.45 175.86 L235.51 176.57 L235.59 177.29 L235.66 178.00 L235.75 178.72 L235.84 179.43 L235.94 180.14 L236.05 180.86 L236.17 181.57 L236.29 182.28 L236.42 182.99 L236.56 183.70 L236.70 184.40 L236.85 185.11 L237.01 185.82 L237.18 186.52 L237.35 187.22 L237.54 187.92 L237.73 188.62 L237.92 189.32 L238.12 190.02 L238.34 190.71 L238.55 191.40 L238.78 192.09 L239.01 192.78 L239.25 193.47 L239.50 194.15 L239.75 194.84 L240.01 195.51 L240.28 196.19 L240.56 196.87 L240.84 197.54 L241.13 198.21 L241.42 198.88 L241.73 199.54 L242.04 200.21 L242.36 200.86 L242.68 201.52 L243.01 202.17 L243.35 202.83 L243.69 203.47 L244.05 204.12 L244.40 204.76 L244.77 205.40 L245.14 206.03 L245.52 206.66 L245.91 207.29 L246.30 207.91 L246.70 208.53 L247.10 209.15 L247.51 209.76 L247.93 210.37 L248.35 210.98 L248.79 211.58 L249.22 212.18 L249.67 212.77 L250.12 213.36 L250.57 213.94 L251.03 214.52 L251.50 215.10 L251.98 215.67 L252.46 216.24 L252.94 216.80 L253.44 217.36 L253.93 217.92 L254.44 218.46 L254.95 219.01 L255.46 219.55 L255.99 220.08 L256.51 220.61 L257.05 221.14 L257.58 221.66 L258.13 222.17 L258.68 222.68 L259.23 223.19 L259.79 223.69 L260.36 224.18 L260.93 224.67 L261.51 225.16 L262.09 225.63 L262.67 226.11 L263.26 226.57 L263.86 227.03 L264.46 227.49 L265.07 227.94 L265.68 228.38 L266.30 228.82 L266.92 229.26 L267.54 229.68 L268.17 230.10 L268.81 230.52 L269.45 230.93 L270.09 231.33 L270.74 231.73 L271.39 232.12 L272.05 232.50 L272.71 232.88 L273.37 233.25 L274.04 233.62 L274.71 233.98 L275.39 234.33 L276.07 234.67 L276.75 235.01 L277.44 235.35 L278.13 235.67 L278.83 235.99 L279.53 236.31 L280.23 236.61 L280.93 236.91 L281.64 237.21 L282.35 237.49 L283.07 237.77 L283.79 238.05 L284.51 238.31 L285.23 238.57 L285.96 238.82 L286.69 239.07 L287.42 239.31 L288.16 239.54 L288.89 239.76 L289.64 239.98 L290.38 240.19 L291.12 240.39 L291.87 240.59 L292.62 240.77 L293.37 240.96 L294.13 241.13 L294.88 241.30 L295.64 241.45 L296.40 241.61 L297.16 241.75 L297.93 241.89 L298.69 242.02 L299.46 242.14 L300.23 242.26 L301.00 242.36 L301.77 242.46 L302.54 242.56 L303.31 242.64 L304.09 242.72 L304.86 242.79 L305.64 242.85 L306.42 242.91 L307.19 242.96 L307.97 243.00 L308.75 243.03 L309.53 243.06 L310.31 243.07 L311.09 243.08 L311.87 243.09 L312.66 243.08 L313.44 243.07 L314.22 243.05 L315.00 243.02 L315.78 242.99 L316.56 242.94 L317.35 242.89 L318.13 242.84 L318.91 242.77 L319.69 242.70 L320.47 242.62 L321.25 242.53 L322.02 242.43 L322.80 242.33 L323.58 242.22 L324.35 242.10 L325.13 241.97 L325.90 241.84 L326.67 241.70 L327.45 241.55 L328.22 241.39 L328.98 241.23 L329.75 241.06 L330.52 240.88 L331.28 240.69 L332.04 240.50 L332.80 240.30 L333.56 240.09 L334.32 239.88 L335.07 239.65 L335.83 239.42 L336.58 239.18 L337.32 238.94 L338.07 238.69 L338.81 238.43 L339.55 238.16 L340.29 237.88 L341.03 237.60 L341.76 237.31 L342.49 237.02 L343.22 236.71 L343.94 236.40 L344.66 236.09 L345.38 235.76 L346.10 235.43 L346.81 235.09 L347.52 234.75 L348.22 234.39 L348.92 234.03 L349.62 233.67 L350.32 233.29 L351.01 232.91 L351.70 232.53 L352.38 232.13 L353.06 231.73 L353.73 231.33 L354.41 230.91 L355.07 230.49 L355.74 230.07 L356.39 229.63 L357.05 229.19 L357.70 228.75 L358.35 228.29 L358.99 227.83 L359.62 227.37 L360.26 226.90 L360.88 226.42 L361.51 225.93 L362.12 225.44 L362.74 224.95 L363.34 224.44 L363.95 223.93 L364.55 223.42 L365.14 222.90 L365.73 222.37 L366.31 221.84 L366.88 221.30 L367.46 220.76 L368.02 220.21 L368.58 219.65 L369.14 219.09 L369.69 218.52 L370.23 217.95 L370.77 217.38 L371.30 216.79 L371.83 216.20 L372.35 215.61 L372.86 215.01 L373.37 214.41 L373.87 213.80 L374.36 213.19 L374.85 212.57 L375.34 211.94 L375.81 211.32 L376.28 210.68 L376.75 210.05 L377.21 209.40 L377.66 208.76 L378.10 208.10 L378.54 207.45 L378.97 206.79 L379.40 206.12 L379.81 205.45 L380.22 204.78 L380.63 204.10 L381.03 203.42 L381.42 202.73 L381.80 202.04 L382.18 201.35 L382.54 200.65 L382.91 199.95 L383.26 199.25 L383.61 198.54 L383.95 197.82 L384.28 197.11 L384.61 196.39 L384.93 195.67 L385.24 194.94 L385.54 194.21 L385.84 193.48 L386.13 192.74 L386.41 192.01 L386.68 191.27 L386.95 190.52 L387.21 189.77 L387.46 189.02 L387.70 188.27 L387.93 187.52 L388.16 186.76 L388.38 186.00 L388.59 185.24 L388.80 184.48 L388.99 183.71 L389.18 182.94 L389.36 182.17 L389.54 181.40 L389.70 180.62 L389.86 179.85 L390.01 179.07 L390.15 178.29 L390.28 177.51 L390.40 176.73 L390.52 175.94 L390.63 175.16 L390.73 174.37 L390.82 173.58 L390.91 172.79 L390.98 172.00 L391.05 171.21 L391.11 170.42 L391.16 169.63 L391.20 168.84 L391.24 168.04 L391.27 167.25 L391.28 166.45 L391.29 165.66 L391.30 164.86 L391.29 164.07 L391.28 163.27 L391.25 162.47 L391.22 161.68 L391.18 160.88 L391.14 160.09 L391.08 159.29 L391.02 158.49 L390.95 157.70 L390.87 156.91 L390.78 156.11 L390.68 155.32 L390.58 154.53 L390.46 153.73 L390.34 152.94 L390.21 152.15 L390.07 151.37 L389.93 150.58 L389.77 149.79 L389.61 149.01 L389.44 148.22 L389.26 147.44 L389.08 146.66 L388.88 145.88 L388.68 145.10 L388.47 144.33 L388.25 143.55 L388.02 142.78 L387.78 142.01 L387.54 141.24 L387.29 140.48 L387.03 139.71 L386.76 138.95 L386.49 138.19 L386.20 137.44 L385.91 136.68 L385.61 135.93 L385.31 135.18 L384.99 134.44 L384.67 133.70 L384.34 132.96 L384.00 132.22 L383.66 131.49 L383.30 130.75 L382.94 130.03 L382.57 129.30 L382.20 128.58 L381.81 127.87 L381.42 127.15 L381.02 126.44 L380.62 125.73 L380.20 125.03 L379.78 124.33 L379.35 123.64 L378.92 122.95 L378.48 122.26 L378.03 121.58 L377.57 120.90 L377.10 120.22 L376.63 119.55 L376.15 118.89 L375.67 118.23 L375.17 117.57 L374.67 116.92 L374.17 116.27 L373.66 115.63 L373.13 114.99 L372.61 114.36 L372.07 113.73 L371.53 113.11 L370.99 112.49 L370.43 111.87 L369.87 111.27 L369.31 110.66 L368.74 110.07 L368.16 109.48 L367.57 108.89 L366.98 108.31 L366.38 107.73 L365.78 107.16 L365.17 106.60 L364.55 106.04 L363.93 105.49 L363.30 104.94 L362.67 104.40 L362.03 103.87 L361.39 103.34 L360.74 102.82 L360.08 102.30 L359.42 101.79 L358.75 101.29 L358.08 100.79 L357.40 100.30 L356.72 99.82 L356.03 99.34 L355.34 98.87 L354.64 98.40 L353.94 97.94 L353.23 97.49 L352.52 97.05 L351.80 96.61 L351.07 96.18 L350.35 95.75 L349.62 95.34 L348.88 94.93 L348.14 94.52 L347.39 94.13 L346.64 93.74 L345.89 93.36 L345.13 92.98 L344.37 92.61 L343.61 92.25 L342.84 91.90 L342.06 91.56 L341.28 91.22 L340.50 90.89 L339.72 90.56 L338.93 90.25 L338.14 89.94 L337.34 89.64 L336.55 89.35 L335.74 89.06 L334.94 88.78 L334.13 88.51 L333.32 88.25 L332.51 88.00 L331.69 87.75 L330.87 87.51 L330.05 87.28 L329.22 87.06 L328.40 86.84 L327.57 86.64 L326.74 86.44 L325.90 86.25 L325.06 86.07 L324.23 85.89 L323.39 85.72 L322.54 85.57 L321.70 85.41 L320.85 85.27 L320.01 85.14 L319.16 85.01 L318.31 84.89 L317.45 84.78 L316.60 84.68 L315.74 84.59 L314.89 84.51 L314.03 84.43 L313.17 84.36 L312.31 84.30 L311.45 84.25 L310.59 84.21 L309.73 84.17 L308.87 84.14 L308.01 84.13 L307.14 84.12 L306.28 84.11 L305.42 84.12 L304.55 84.14 L303.69 84.16 L302.83 84.19 L301.96 84.23 L301.10 84.28 L300.24 84.34 L299.37 84.40 L298.51 84.47 L297.65 84.56 L296.79 84.65 L295.93 84.75 L295.07 84.85 L294.21 84.97 L293.35 85.09 L292.50 85.22 L291.64 85.37 L290.79 85.51 L289.93 85.67 L289.08 85.84 L288.23 86.01 L287.38 86.19 L286.54 86.38 L285.69 86.58 L284.85 86.79 L284.01 87.00 L283.17 87.23 L282.33 87.46 L281.50 87.70 L280.66 87.94 L279.83 88.20 L279.01 88.46 L278.18 88.74 L277.36 89.02 L276.54 89.30 L275.72 89.60 L274.91 89.91 L274.10 90.22 L273.29 90.54 L272.48 90.87 L271.68 91.20 L270.88 91.54 L270.09 91.90 L269.29 92.26 L268.50 92.62 L267.72 93.00 L266.94 93.38 L266.16 93.77 L265.39 94.17 L264.62 94.57 L263.85 94.99 L263.09 95.41 L262.33 95.83 L261.58 96.27 L260.83 96.71 L260.09 97.16 L259.35 97.62 L258.61 98.08 L257.88 98.56 L257.15 99.04 L256.43 99.52 L255.72 100.02 L255.01 100.52 L254.30 101.02 L253.60 101.54 L252.90 102.06 L252.21 102.59 L251.52 103.12 L250.84 103.66 L250.17 104.21 L249.50 104.77 L248.84 105.33 L248.18 105.90 L247.52 106.47 L246.88 107.06 L246.24 107.64 L245.60 108.24 L244.97 108.84 L244.35 109.44 L243.73 110.06 L243.12 110.68 L242.52 111.30 L241.92 111.93 L241.33 112.57 L240.74 113.21 L240.16 113.86 L239.59 114.52 L239.03 115.18 L238.47 115.84 L237.92 116.51 L237.37 117.19 L236.83 117.87 L236.30 118.56 L235.78 119.25 L235.26 119.95 L234.75 120.66 L234.25 121.37 L233.75 122.08 L233.26 122.80 L232.78 123.52 L232.31 124.25 L231.84 124.98 L231.38 125.72 L230.93 126.46 L230.48 127.21 L230.05 127.96 L229.62 128.72 L229.20 129.48 L228.79 130.24 L228.38 131.01 L227.98 131.79 L227.59 132.56 L227.21 133.34 L226.84 134.13 L226.47 134.92 L226.11 135.71 L225.76 136.50 L225.42 137.30 L225.09 138.11 L224.77 138.91 L224.45 139.72 L224.14 140.54 L223.84 141.35 L223.55 142.17 L223.27 142.99 L222.99 143.82 L222.72 144.65 L222.47 145.48 L222.22 146.31 L221.98 147.15 L221.74 147.99 L221.52 148.83 L221.31 149.67 L221.10 150.52 L220.90 151.37 L220.71 152.22 L220.53 153.07 L220.36 153.92 L220.20 154.78 L220.05 155.64 L219.90 156.50 L219.77 157.36 L219.64 158.22 L219.52 159.09 L219.41 159.95 L219.31 160.82 L219.22 161.69 L219.14 162.56 L219.06 163.43 L219.00 164.30 L218.94 165.17 L218.90 166.04 L218.86 166.91 L218.83 167.79 L218.81 168.66 L218.80 169.54 L218.80 170.41 L218.81 171.29 L218.82 172.16 L218.85 173.04 L218.89 173.91 L218.93 174.79 L218.98 175.66 L219.04 176.54 L219.12 177.41 L219.20 178.29 L219.29 179.16 L219.38 180.03 L219.49 180.90 L219.61 181.77 L219.73 182.64 L219.87 183.51 L220.01 184.38 L220.16 185.25 L220.33 186.11 L220.50 186.98 L220.68 187.84 L220.86 188.70 L221.06 189.56 L221.27 190.42 L221.48 191.28 L221.71 192.13 L221.94 192.98 L222.18 193.83 L222.43 194.68 L222.69 195.53 L222.96 196.37 L223.24 197.21 L223.53 198.05 L223.82 198.88 L224.12 199.72 L224.44 200.55 L224.76 201.38 L225.09 202.20 L225.42 203.02 L225.77 203.84 L226.13 204.66 L226.49 205.47 L226.86 206.28 L227.24 207.08 L227.63 207.89 L228.03 208.68 L228.44 209.48 L228.85 210.27 L229.27 211.06 L229.70 211.84 L230.14 212.62 L230.59 213.40 L231.04 214.17 L231.51 214.93 L231.98 215.70 L232.46 216.45 L232.95 217.21 L233.44 217.96 L233.94 218.70 L234.46 219.44 L234.97 220.18 L235.50 220.91 L236.03 221.63 L236.58 222.35 L237.13 223.07 L237.68 223.78 L238.25 224.48 L238.82 225.18 L239.40 225.88 L239.98 226.57 L240.58 227.25 L241.18 227.93 L241.79 228.60 L242.40 229.27 L243.02 229.93 L243.65 230.58 L244.29 231.23 L244.93 231.87 L245.58 232.51 L246.24 233.14 L246.90 233.76 L247.57 234.38 L248.25 234.99 L248.93 235.60 L249.62 236.20 L250.32 236.79 L251.02 237.37 L251.73 237.95 L252.44 238.52 L253.16 239.09 L253.89 239.65 L254.62 240.20 L255.36 240.75 L256.10 241.28 L256.85 241.81 L257.61 242.34 L258.37 242.85 L259.13 243.36 L259.91 243.86 L260.68 244.36 L261.46 244.84 L262.25 245.32 L263.05 245.80 L263.84 246.26 L264.65 246.72 L265.45 247.17 L266.27 247.61 L267.08 248.04 L267.91 248.47 L268.73 248.88 L269.56 249.29 L270.40 249.70 L271.24 250.09 L272.08 250.48 L272.93 250.85 L273.79 251.22 L274.64 251.59 L275.50 251.94 L276.37 252.28 L277.24 252.62 L278.11 252.95 L278.98 253.27 L279.86 253.58 L280.74 253.88 L281.63 254.18 L282.52 254.46 L283.41 254.74 L284.31 255.01 L285.20 255.27 L286.11 255.52 L287.01 255.77 L287.92 256.00 L288.83 256.23 L289.74 256.44 L290.65 256.65 L291.57 256.85 L292.49 257.04 L293.41 257.22 L294.33 257.40 L295.26 257.56 L296.18 257.72 L297.11 257.86 L298.04 258.00 L298.98 258.13 L299.91 258.25 L300.84 258.36 L301.78 258.46 L302.72 258.55 L303.66 258.63 L304.60 258.71 L305.54 258.77 L306.48 258.83 L307.42 258.87 L308.37 258.91 L309.31 258.94 L310.26 258.96 L311.20 258.97 L312.15 258.97 L313.09 258.96 L314.04 258.94 L314.98 258.92 L315.93 258.88 L316.87 258.84 L317.82 258.78 L318.76 258.72 L319.71 258.65 L320.65 258.56 L321.59 258.47 L322.54 258.37 L323.48 258.26 L324.42 258.15 L325.36 258.02 L326.30 257.88 L327.24 257.74 L328.17 257.58 L329.11 257.42 L330.04 257.25 L330.97 257.06 L331.90 256.87 L332.83 256.67 L333.76 256.46 L334.68 256.25 L335.60 256.02 L336.52 255.78 L337.44 255.54 L338.36 255.28 L339.27 255.02 L340.18 254.75 L341.09 254.47 L341.99 254.18 L342.90 253.88 L343.80 253.57 L344.69 253.26 L345.59 252.93 L346.48 252.60 L347.36 252.26 L348.25 251.90 L349.13 251.54 L350.01 251.18 L350.88 250.80 L351.75 250.41 L352.61 250.02 L353.48 249.62 L354.34 249.21 L355.19 248.79 L356.04 248.36 L356.88 247.93 L357.73 247.48 L358.56 247.03 L359.39 246.57 L360.22 246.10 L361.05 245.62 L361.86 245.14 L362.68 244.64 L363.49 244.14 L364.29 243.64 L365.09 243.12 L365.88 242.59 L366.67 242.06 L367.45 241.52 L368.23 240.97 L369.00 240.42 L369.77 239.85 L370.53 239.28 L371.28 238.71 L372.03 238.12 L372.78 237.53 L373.51 236.93 L374.24 236.32 L374.97 235.70 L375.69 235.08 L376.40 234.45 L377.11 233.82 L377.81 233.17 L378.50 232.52 L379.19 231.87 L379.87 231.20 L380.54 230.53 L381.21 229.86 L381.87 229.17 L382.52 228.48 L383.17 227.79 L383.80 227.08 L384.44 226.37 L385.06 225.66 L385.68 224.94 L386.29 224.21 L386.89 223.47 L387.48 222.73 L388.07 221.99 L388.65 221.24 L389.22 220.48 L389.79 219.71 L390.35 218.94 L390.89 218.17 L391.44 217.39 L391.97 216.60 L392.49 215.81 L393.01 215.02 L393.52 214.22 L394.02 213.41 L394.51 212.60 L395.00 211.78 L395.47 210.96 L395.94 210.14 L396.40 209.30 L396.85 208.47 L397.29 207.63 L397.72 206.79 L398.15 205.94 L398.56 205.08 L398.97 204.23 L399.37 203.36 L399.76 202.50 L400.14 201.63 L400.51 200.76 L400.88 199.88 L401.23 199.00 L401.57 198.11 L401.91 197.23 L402.24 196.34 L402.55 195.44 L402.86 194.54 L403.16 193.64 L403.45 192.74 L403.73 191.83 L404.00 190.92 L404.27 190.01 L404.52 189.09 L404.76 188.17 L405.00 187.25 L405.22 186.33 L405.43 185.40 L405.64 184.47 L405.84 183.54 L406.02 182.61 L406.20 181.68 L406.36 180.74 L406.52 179.80 L406.67 178.86 L406.81 177.92 L406.94 176.98 L407.05 176.03 L407.16 175.09 L407.26 174.14 L407.35 173.19 L407.43 172.24 L407.50 171.29 L407.56 170.34 L407.61 169.39 L407.65 168.44 L407.68 167.49 L407.70 166.53 L407.71 165.58 L407.71 164.62 L407.70 163.67 L407.68 162.71 L407.65 161.76 L407.61 160.81 L407.57 159.85 L407.51 158.90 L407.44 157.94 L407.36 156.99 L407.27 156.04 L407.17 155.08 L407.06 154.13 L406.95 153.18 L406.82 152.23 L406.68 151.28 L406.53 150.34 L406.38 149.39 L406.21 148.45 L406.03 147.50 L405.85 146.56 L405.65 145.62 L405.44 144.68 L405.23 143.74 L405.00 142.81 L404.77 141.88 L404.52 140.95 L404.27 140.02 L404.00 139.09 L403.73 138.17 L403.44 137.24 L403.15 136.33 L402.85 135.41 L402.53 134.50 L402.21 133.58 L401.88 132.68 L401.54 131.77 L401.19 130.87 L400.83 129.97 L400.46 129.08 L400.08 128.18 L399.69 127.30 L399.30 126.41 L398.89 125.53 L398.48 124.65 L398.05 123.78 L397.62 122.91 L397.17 122.04 L396.72 121.18 L396.26 120.32 L395.79 119.47 L395.31 118.62 L394.82 117.78 L394.33 116.94 L393.82 116.10 L393.31 115.27 L392.79 114.45 L392.25 113.63 L391.71 112.81 L391.17 112.00 L390.61 111.19 L390.04 110.39 L389.47 109.60 L388.89 108.81 L388.30 108.03 L387.70 107.25 L387.09 106.47 L386.47 105.71 L385.85 104.95 L385.22 104.19 L384.58 103.44 L383.93 102.70 L383.28 101.96 L382.62 101.23 L381.95 100.50 L381.27 99.78 L380.58 99.07 L379.89 98.37 L379.19 97.67 L378.48 96.97 L377.77 96.29 L377.04 95.61 L376.31 94.94 L375.58 94.27 L374.83 93.61 L374.08 92.96 L373.32 92.32 L372.56 91.68 L371.79 91.05 L371.01 90.43 L370.23 89.82 L369.44 89.21 L368.64 88.61 L367.83 88.02 L367.02 87.43 L366.21 86.85 L365.39 86.29 L364.56 85.72 L363.72 85.17 L362.88 84.63 L362.04 84.09 L361.18 83.56 L360.33 83.04 L359.46 82.53 L358.59 82.02 L357.72 81.52 L356.84 81.04 L355.96 80.56 L355.07 80.09 L354.17 79.62 L353.27 79.17 L352.37 78.72 L351.46 78.29 L350.54 77.86 L349.63 77.44 L348.70 77.03 L347.77 76.63 L346.84 76.23 L345.91 75.85 L344.97 75.48 L344.02 75.11 L343.07 74.75 L342.12 74.41 L341.16 74.07 L340.20 73.74 L339.24 73.42 L338.27 73.11 L337.30 72.81 L336.33 72.52 L335.35 72.23 L334.37 71.96 L333.39 71.70 L332.40 71.44 L331.41 71.20 L330.42 70.96 L329.43 70.74 L328.43 70.52 L327.43 70.31 L326.43 70.12 L325.43 69.93 L324.42 69.75 L323.41 69.58 L322.40 69.42 L321.39 69.28 L320.38 69.14 L319.36 69.01 L318.35 68.89 L317.33 68.78 L316.31 68.68 L315.29 68.59 L314.27 68.51 L313.24 68.44 L312.22 68.38 L311.19 68.33 L310.17 68.29 L309.14 68.26 L308.12 68.24 L307.09 68.23 L306.06 68.23 L305.03 68.24 L304.01 68.26 L302.98 68.29 L301.95 68.33 L300.92 68.38 L299.90 68.44 L298.87 68.51 L297.84 68.59 L296.82 68.68 L295.79 68.77 L294.77 68.88 L293.75 69.00 L292.72 69.13 L291.70 69.27 L290.68 69.42 L289.67 69.58 L288.65 69.75 L287.63 69.93 L286.62 70.11 L285.61 70.31 L284.60 70.52 L283.59 70.74 L282.58 70.97 L281.58 71.20 L280.58 71.45 L279.58 71.71 L278.58 71.98 L277.59 72.25 L276.60 72.54 L275.61 72.83 L274.62 73.14 L273.64 73.45 L272.66 73.78 L271.68 74.11 L270.71 74.46 L269.74 74.81 L268.77 75.17 L267.81 75.55 L266.85 75.93 L265.89 76.32 L264.94 76.72 L263.99 77.13 L263.05 77.55 L262.11 77.97 L261.17 78.41 L260.24 78.86 L259.31 79.31 L258.39 79.78 L257.47 80.25 L256.56 80.73 L255.65 81.23 L254.75 81.73 L253.85 82.24 L252.96 82.75 L252.07 83.28 L251.19 83.82 L250.31 84.36 L249.44 84.91 L248.57 85.47 L247.71 86.04 L246.85 86.62 L246.01 87.21 L245.16 87.80 L244.32 88.41 L243.49 89.02 L242.67 89.64 L241.85 90.27 L241.04 90.90 L240.23 91.55 L239.43 92.20 L238.64 92.86 L237.85 93.53 L237.07 94.20 L236.30 94.88 L235.53 95.57 L234.77 96.27 L234.02 96.98 L233.28 97.69 L232.54 98.41 L231.81 99.14 L231.09 99.87 L230.37 100.62 L229.66 101.37 L228.96 102.12 L228.27 102.89 L227.59 103.65 L226.91 104.43 L226.24 105.22 L225.58 106.01 L224.93 106.80 L224.28 107.60 L223.65 108.41 L223.02 109.23 L222.40 110.05 L221.79 110.88 L221.18 111.71 L220.59 112.56 L220.00 113.40 L219.42 114.25 L218.85 115.11 L218.29 115.98 L217.74 116.84 L217.20 117.72 L216.67 118.60 L216.14 119.48 L215.63 120.38 L215.12 121.27 L214.62 122.17 L214.14 123.08 L213.66 123.99 L213.19 124.90 L212.73 125.82 L212.28 126.75 L211.84 127.68 L211.40 128.61 L210.98 129.55 L210.57 130.49 L210.17 131.44 L209.77 132.39 L209.39 133.35 L209.02 134.31 L208.65 135.27 L208.30 136.23 L207.96 137.20 L207.62 138.18 L207.30 139.16 L206.99 140.14 L206.68 141.12 L206.39 142.11 L206.10 143.09 L205.83 144.09 L205.57 145.08 L205.32 146.08 L205.07 147.08 L204.84 148.09 L204.62 149.09 L204.41 150.10 L204.21 151.11 L204.02 152.12 L203.84 153.14 L203.67 154.15 L203.51 155.17 L203.36 156.19 L203.22 157.21 L203.09 158.24 L202.97 159.26 L202.87 160.29 L202.77 161.31 L202.69 162.34 L202.61 163.37 L202.55 164.40 L202.49 165.43 L202.45 166.47 L202.42 167.50 L202.40 168.53 L202.39 169.56 L202.39 170.60 L202.40 171.63 L202.42 172.67 L202.45 173.70 L202.49 174.73 L202.55 175.77 L202.61 176.80 L202.68 177.83 L202.77 178.87 L202.87 179.90 L202.97 180.93 L203.09 181.96 L203.22 182.99 L203.36 184.02 L203.51 185.04 L203.67 186.07 L203.84 187.09 L204.02 188.12 L204.21 189.14 L204.41 190.16 L204.63 191.18 L204.85 192.19 L205.08 193.21 L205.33 194.22 L205.58 195.23 L205.85 196.24 L206.13 197.24 L206.41 198.25 L206.71 199.25 L207.02 200.24 L207.34 201.24 L207.67 202.23 L208.00 203.22 L208.35 204.21 L208.71 205.19 L209.08 206.17 L209.46 207.14 L209.85 208.12 L210.25 209.08 L210.66 210.05 L211.08 211.01 L211.51 211.97 L211.95 212.92 L212.40 213.87 L212.86 214.82 L213.33 215.76 L213.81 216.69 L214.30 217.63 L214.80 218.55 L215.31 219.48 L215.83 220.40 L216.36 221.31 L216.89 222.22 L217.44 223.12 L218.00 224.02 L218.56 224.91 L219.14 225.80 L219.72 226.68 L220.32 227.56 L220.92 228.43 L221.53 229.30 L222.15 230.16 L222.78 231.01 L223.42 231.86 L224.07 232.70 L224.73 233.54 L225.39 234.37 L226.07 235.19 L226.75 236.01 L227.44 236.82 L228.14 237.62 L228.85 238.42 L229.57 239.21 L230.30 239.99 L231.03 240.77 L231.77 241.54 L232.52 242.30 L233.28 243.06 L234.04 243.81 L234.82 244.55 L235.60 245.28 L236.39 246.01 L237.19 246.73 L237.99 247.44 L238.80 248.14 L239.62 248.84 L240.45 249.53 L241.28 250.21 L242.12 250.88 L242.97 251.55 L243.83 252.20 L244.69 252.85 L245.56 253.49 L246.44 254.12 L247.32 254.75 L248.21 255.36 L249.10 255.97 L250.01 256.56 L250.92 257.15 L251.83 257.73 L252.75 258.31 L253.68 258.87 L254.61 259.42 L255.55 259.97 L256.50 260.51 L257.45 261.03 L258.40 261.55 L259.37 262.06 L260.33 262.56 L261.31 263.05 L262.28 263.53 L263.27 264.00 L264.25 264.46 L265.25 264.92 L266.25 265.36 L267.25 265.79 L268.26 266.22 L269.27 266.63 L270.28 267.04 L271.30 267.43 L272.33 267.82 L273.36 268.19 L274.39 268.56 L275.43 268.91 L276.47 269.26 L277.52 269.59 L278.56 269.92 L279.62 270.23 L280.67 270.54 L281.73 270.83 L282.79 271.12 L283.86 271.39 L284.93 271.66 L286.00 271.91 L287.07 272.15 L288.15 272.39 L289.23 272.61 L290.31 272.82 L291.40 273.03 L292.48 273.22 L293.57 273.40 L294.66 273.57 L295.76 273.73 L296.85 273.88 L297.95 274.02 L299.05 274.14 L300.15 274.26 L301.25 274.37 L302.35 274.47 L303.45 274.55 L304.56 274.63 L305.66 274.69 L306.77 274.74 L307.88 274.79 L308.99 274.82 L310.09 274.84 L311.20 274.85 L312.31 274.85 L313.42 274.84 L314.53 274.82 L315.64 274.79 L316.75 274.75 L317.86 274.69 L318.97 274.63 L320.08 274.55 L321.18 274.47 L322.29 274.37 L323.40 274.26 L324.50 274.14 L325.61 274.02 L326.71 273.88 L327.81 273.73 L328.91 273.56 L330.01 273.39 L331.11 273.21 L332.21 273.02 L333.30 272.81 L334.39 272.60 L335.48 272.37 L336.57 272.14 L337.66 271.89 L338.74 271.64 L339.82 271.37 L340.90 271.09 L341.98 270.80 L343.05 270.50 L344.12 270.19 L345.19 269.88 L346.25 269.55 L347.31 269.21 L348.37 268.85 L349.43 268.49 L350.48 268.12 L351.52 267.74 L352.57 267.35 L353.61 266.95 L354.64 266.54 L355.67 266.11 L356.70 265.68 L357.72 265.24 L358.74 264.79 L359.75 264.32 L360.76 263.85 L361.77 263.37 L362.77 262.88 L363.76 262.38 L364.75 261.87 L365.74 261.35 L366.72 260.81 L367.69 260.27 L368.66 259.72 L369.62 259.17 L370.58 258.60 L371.53 258.02 L372.48 257.43 L373.42 256.84 L374.36 256.23 L375.28 255.61 L376.21 254.99 L377.12 254.36 L378.03 253.72 L378.93 253.06 L379.83 252.40 L380.72 251.74 L381.60 251.06 L382.48 250.37 L383.35 249.68 L384.21 248.98 L385.07 248.26 L385.91 247.54 L386.75 246.81 L387.59 246.08 L388.41 245.33 L389.23 244.58 L390.04 243.82 L390.85 243.05 L391.64 242.27 L392.43 241.49 L393.21 240.70 L393.98 239.90 L394.74 239.09 L395.50 238.27 L396.24 237.45 L396.98 236.62 L397.71 235.78 L398.43 234.94 L399.14 234.08 L399.85 233.23 L400.54 232.36 L401.23 231.49 L401.91 230.61 L402.57 229.72 L403.23 228.83 L403.88 227.93 L404.52 227.02 L405.16 226.11 L405.78 225.19 L406.39 224.27 L407.00 223.34 L407.59 222.40 L408.17 221.46 L408.75 220.51 L409.31 219.55 L409.87 218.59 L410.41 217.63 L410.95 216.66 L411.48 215.68 L411.99 214.70 L412.50 213.71 L412.99 212.72 L413.48 211.72 L413.95 210.72 L414.42 209.71 L414.87 208.70 L415.32 207.69 L415.75 206.67 L416.17 205.64 L416.59 204.61 L416.99 203.58 L417.38 202.54 L417.76 201.50 L418.13 200.46 L418.49 199.41 L418.84 198.36 L419.18 197.30 L419.50 196.24 L419.82 195.18 L420.13 194.11 L420.42 193.04 L420.70 191.97 L420.97 190.89 L421.24 189.82 L421.49 188.73 L421.72 187.65 L421.95 186.57 L422.17 185.48 L422.37 184.39 L422.57 183.29 L422.75 182.20 L422.92 181.10 L423.08 180.00 L423.23 178.90 L423.37 177.80 L423.49 176.70 L423.61 175.59 L423.71 174.49 L423.80 173.38 L423.88 172.27 L423.95 171.16 L424.01 170.05 L424.06 168.94 L424.09 167.83 L424.11 166.71 L424.13 165.60 L424.13 164.49 L424.11 163.37 L424.09 162.26 L424.06 161.15 L424.01 160.03 L423.95 158.92 L423.88 157.81 L423.80 156.70 L423.71 155.59 L423.61 154.47 L423.49 153.36 L423.37 152.26 L423.23 151.15 L423.08 150.04 L422.92 148.93 L422.74 147.83 L422.56 146.73 L422.36 145.63 L422.16 144.53 L421.94 143.43 L421.71 142.33 L421.47 141.24 L421.22 140.15 L420.95 139.06 L420.68 137.97 L420.39 136.89 L420.09 135.80 L419.79 134.72 L419.47 133.65 L419.13 132.57 L418.79 131.50 L418.44 130.44 L418.07 129.37 L417.70 128.31 L417.31 127.25 L416.91 126.20 L416.50 125.15 L416.08 124.10 L415.65 123.06 L415.21 122.02 L414.76 120.99 L414.30 119.96 L413.82 118.93 L413.34 117.91 L412.84 116.89 L412.34 115.88 L411.82 114.87 L411.30 113.87 L410.76 112.87 L410.21 111.88 L409.65 110.89 L409.08 109.91 L408.51 108.93 L407.92 107.96 L407.32 106.99 L406.71 106.03 L406.09 105.08 L405.46 104.13 L404.82 103.19 L404.17 102.25 L403.51 101.32 L402.85 100.39 L402.17 99.47 L401.48 98.56 L400.78 97.66 L400.08 96.76 L399.36 95.86 L398.63 94.98 L397.90 94.10 L397.16 93.23 L396.40 92.36 L395.64 91.51 L394.87 90.66 L394.09 89.81 L393.30 88.98 L392.50 88.15 L391.70 87.33 L390.88 86.52 L390.06 85.71 L389.22 84.91 L388.38 84.12 L387.54 83.34 L386.68 82.57 L385.81 81.81 L384.94 81.05 L384.06 80.30 L383.17 79.56 L382.27 78.83 L381.37 78.11 L380.46 77.39 L379.54 76.69 L378.61 75.99 L377.67 75.30 L376.73 74.62 L375.78 73.95 L374.83 73.29 L373.86 72.64 L372.89 72.00 L371.92 71.36 L370.93 70.74 L369.94 70.12 L368.95 69.52 L367.94 68.92 L366.93 68.34 L365.92 67.76 L364.89 67.19 L363.87 66.64 L362.83 66.09 L361.79 65.55 L360.75 65.03 L359.70 64.51 L358.64 64.00 L357.58 63.51 L356.51 63.02 L355.44 62.54 L354.36 62.08 L353.28 61.62 L352.19 61.18 L351.10 60.74 L350.00 60.32 L348.90 59.90 L347.79 59.50 L346.68 59.11 L345.57 58.73 L344.45 58.36 L343.33 57.99 L342.20 57.65 L341.07 57.31 L339.93 56.98 L338.80 56.66 L337.66 56.36 L336.51 56.06 L335.36 55.78 L334.21 55.50 L333.06 55.24 L331.90 54.99 L330.74 54.75 L329.58 54.53 L328.41 54.31 L327.25 54.10 L326.08 53.91 L324.90 53.72 L323.73 53.55 L322.55 53.39 L321.38 53.24 L320.20 53.11 L319.01 52.98 L317.83 52.86 L316.65 52.76 L315.46 52.67 L314.28 52.59 L313.09 52.52 L311.90 52.46 L310.71 52.42 L309.52 52.38 L308.33 52.36 L307.14 52.35 L305.95 52.35 L304.76 52.36 L303.56 52.38 L302.37 52.42 L301.18 52.46 L299.99 52.52 L298.80 52.59 L297.61 52.67 L296.42 52.76 L295.23 52.87 L294.04 52.98 L292.85 53.11 L291.67 53.25 L290.48 53.40 L289.30 53.56 L288.12 53.73 L286.94 53.91 L285.76 54.11 L284.58 54.32 L283.41 54.54 L282.24 54.77 L281.07 55.01 L279.90 55.26 L278.73 55.52 L277.57 55.80 L276.41 56.09 L275.25 56.39 L274.09 56.69 L272.94 57.02 L271.79 57.35 L270.65 57.69 L269.51 58.04 L268.37 58.41 L267.23 58.79 L266.10 59.17 L264.97 59.57 L263.85 59.98 L262.73 60.40 L261.61 60.83 L260.50 61.28 L259.40 61.73 L258.29 62.19 L257.20 62.67 L256.10 63.15 L255.01 63.65 L253.93 64.15 L252.85 64.67 L251.78 65.20 L250.71 65.74 L249.65 66.29 L248.59 66.85 L247.54 67.41 L246.50 67.99 L245.46 68.58 L244.42 69.18 L243.39 69.79 L242.37 70.41 L241.36 71.04 L240.35 71.68 L239.35 72.33 L238.35 72.99 L237.36 73.66 L236.38 74.34 L235.40 75.03 L234.43 75.73 L233.47 76.44 L232.52 77.15 L231.57 77.88 L230.63 78.62 L229.70 79.36 L228.77 80.12 L227.86 80.88 L226.95 81.65 L226.04 82.43 L225.15 83.22 L224.26 84.02 L223.39 84.83 L222.52 85.65 L221.66 86.47 L220.80 87.31 L219.96 88.15 L219.12 89.00 L218.30 89.86 L217.48 90.72 L216.67 91.60 L215.87 92.48 L215.08 93.37 L214.29 94.27 L213.52 95.17 L212.76 96.09 L212.00 97.01 L211.26 97.94 L210.52 98.87 L209.79 99.82 L209.08 100.77 L208.37 101.72 L207.67 102.69 L206.99 103.66 L206.31 104.64 L205.64 105.62 L204.98 106.62 L204.34 107.61 L203.70 108.62 L203.07 109.63 L202.46 110.65 L201.85 111.67 L201.25 112.70 L200.67 113.73 L200.10 114.78 L199.53 115.82 L198.98 116.87 L198.44 117.93 L197.91 119.00 L197.38 120.06 L196.88 121.14 L196.38 122.22 L195.89 123.30 L195.41 124.39 L194.95 125.48 L194.49 126.58 L194.05 127.69 L193.62 128.79 L193.20 129.90 L192.79 131.02 L192.40 132.14 L192.01 133.26 L191.64 134.39 L191.28 135.52 L190.92 136.66 L190.59 137.80 L190.26 138.94 L189.94 140.09 L189.64 141.24 L189.35 142.39 L189.07 143.55 L188.80 144.70 L188.54 145.86 L188.30 147.03 L188.07 148.19 L187.85 149.36 L187.64 150.53 L187.44 151.71 L187.26 152.88 L187.09 154.06 L186.93 155.24 L186.78 156.42 L186.65 157.60 L186.52 158.79 L186.41 159.97 L186.31 161.16 L186.23 162.35 L186.15 163.54 L186.09 164.73 L186.04 165.92 L186.01 167.11 L185.98 168.30 L185.97 169.49 L185.97 170.68 L185.98 171.88 L186.01 173.07 L186.04 174.26 L186.09 175.45 L186.15 176.65 L186.23 177.84 L186.31 179.03 L186.41 180.22 L186.52 181.41 L186.65 182.60 L186.78 183.79 L186.93 184.97 L187.09 186.16 L187.26 187.34 L187.45 188.53 L187.64 189.71 L187.85 190.89 L188.07 192.07 L188.31 193.24 L188.55 194.42 L188.81 195.59 L189.08 196.76 L189.37 197.92 L189.66 199.09 L189.97 200.25 L190.28 201.41 L190.62 202.56 L190.96 203.72 L191.31 204.87 L191.68 206.01 L192.06 207.16 L192.45 208.30 L192.85 209.43 L193.26 210.56 L193.69 211.69 L194.13 212.82 L194.58 213.94 L195.04 215.05 L195.51 216.17 L195.99 217.27 L196.49 218.38 L197.00 219.47 L197.52 220.57 L198.05 221.66 L198.59 222.74 L199.14 223.82 L199.70 224.89 L200.28 225.96 L200.86 227.03 L201.46 228.08 L202.07 229.13 L202.69 230.18 L203.32 231.22 L203.96 232.26 L204.61 233.28 L205.27 234.31 L205.95 235.32 L206.63 236.33 L207.33 237.34 L208.03 238.33 L208.75 239.32 L209.47 240.31 L210.21 241.28 L210.95 242.25 L211.71 243.21 L212.48 244.17 L213.25 245.12 L214.04 246.06 L214.84 246.99 L215.64 247.92 L216.46 248.83 L217.28 249.74 L218.12 250.65 L218.96 251.54 L219.81 252.43 L220.68 253.30 L221.55 254.17 L222.43 255.04 L223.32 255.89 L224.22 256.73 L225.13 257.57 L226.05 258.40 L226.97 259.22 L227.91 260.03 L228.85 260.83 L229.80 261.62 L230.76 262.40 L231.73 263.17 L232.70 263.94 L233.69 264.69 L234.68 265.44 L235.68 266.18 L236.69 266.90 L237.70 267.62 L238.72 268.33 L239.75 269.02 L240.79 269.71 L241.84 270.39 L242.89 271.06 L243.95 271.72 L245.02 272.36 L246.09 273.00 L247.17 273.63 L248.25 274.24 L249.35 274.85 L250.45 275.45 L251.55 276.03 L252.66 276.61 L253.78 277.17 L254.91 277.72 L256.04 278.26 L257.17 278.80 L258.31 279.32 L259.46 279.83 L260.61 280.32 L261.77 280.81 L262.93 281.29 L264.10 281.75 L265.28 282.21 L266.45 282.65 L267.64 283.08 L268.82 283.50 L270.02 283.91 L271.21 284.31 L272.41 284.69 L273.62 285.07 L274.83 285.43 L276.04 285.78 L277.26 286.12 L278.48 286.45 L279.70 286.76 L280.93 287.06 L282.16 287.36 L283.39 287.64 L284.63 287.90 L285.87 288.16 L287.11 288.40 L288.36 288.64 L289.61 288.86 L290.86 289.06 L292.11 289.26 L293.37 289.44 L294.62 289.62 L295.88 289.78 L297.14 289.92 L298.41 290.06 L299.67 290.18 L300.94 290.29 L302.20 290.39 L303.47 290.48 L304.74 290.55 L306.01 290.61 L307.28 290.66 L308.56 290.70 L309.83 290.73 L311.10 290.74 L312.37 290.74 L313.65 290.73 L314.92 290.70 L316.20 290.66 L317.47 290.62 L318.74 290.55 L320.01 290.48 L321.29 290.39 L322.56 290.30 L323.83 290.19 L325.10 290.06 L326.37 289.93 L327.63 289.78 L328.90 289.62 L330.17 289.45 L331.43 289.26 L332.69 289.07 L333.95 288.86 L335.21 288.64 L336.46 288.40 L337.72 288.16 L338.97 287.90 L340.21 287.63 L341.46 287.35 L342.70 287.05 L343.94 286.75 L345.18 286.43 L346.41 286.10 L347.65 285.75 L348.87 285.40 L350.10 285.03 L351.32 284.66 L352.53 284.27 L353.75 283.86 L354.96 283.45 L356.16 283.02 L357.36 282.59 L358.56 282.14 L359.75 281.68 L360.94 281.21 L362.12 280.72 L363.30 280.23 L364.47 279.72 L365.64 279.20 L366.80 278.67 L367.96 278.13 L369.11 277.58 L370.26 277.02 L371.40 276.44 L372.53 275.86 L373.66 275.26 L374.78 274.65 L375.90 274.03 L377.01 273.40 L378.11 272.76 L379.21 272.11 L380.30 271.45 L381.39 270.78 L382.47 270.09 L383.54 269.40 L384.60 268.69 L385.66 267.98 L386.71 267.25 L387.75 266.52 L388.78 265.77 L389.81 265.02 L390.83 264.25 L391.84 263.48 L392.85 262.69 L393.84 261.90 L394.83 261.09 L395.81 260.27 L396.78 259.45 L397.74 258.62 L398.70 257.77 L399.65 256.92 L400.58 256.06 L401.51 255.19 L402.43 254.31 L403.34 253.42 L404.24 252.52 L405.14 251.61 L406.02 250.69 L406.89 249.77 L407.76 248.84 L408.61 247.89 L409.46 246.94 L410.29 245.98 L411.12 245.02 L411.94 244.04 L412.74 243.06 L413.54 242.07 L414.32 241.07 L415.10 240.06 L415.86 239.05 L416.62 238.03 L417.36 237.00 L418.10 235.96 L418.82 234.92 L419.53 233.86 L420.24 232.81 L420.93 231.74 L421.61 230.67 L422.28 229.59 L422.93 228.50 L423.58 227.41 L424.22 226.31 L424.84 225.21 L425.45 224.10 L426.06 222.98 L426.65 221.86 L427.23 220.73 L427.79 219.59 L428.35 218.45 L428.89 217.31 L429.42 216.16 L429.94 215.00 L430.45 213.84 L430.95 212.67 L431.43 211.50 L431.91 210.32 L432.37 209.14 L432.82 207.95 L433.25 206.76 L433.67 205.57 L434.09 204.37 L434.49 203.17 L434.87 201.96 L435.25 200.75 L435.61 199.53 L435.96 198.31 L436.29 197.09 L436.62 195.86 L436.93 194.63 L437.23 193.40 L437.52 192.17 L437.79 190.93 L438.05 189.69 L438.30 188.44 L438.53 187.19 L438.75 185.95 L438.96 184.69 L439.16 183.44 L439.34 182.18 L439.51 180.93 L439.67 179.67 L439.82 178.41 L439.95 177.14 L440.07 175.88 L440.17 174.61 L440.26 173.34 L440.34 172.08 L440.41 170.81 L440.46 169.54 L440.50 168.27 L440.53 167.00 L440.54 165.72 L440.54 164.45 L440.53 163.18 L440.50 161.91 L440.47 160.64 L440.41 159.36 L440.35 158.09 L440.27 156.82 L440.18 155.55 L440.07 154.28 L439.96 153.01 L439.82 151.74 L439.68 150.48 L439.52 149.21 L439.35 147.95 L439.17 146.68 L438.97 145.42 L438.76 144.16 L438.54 142.91 L438.30 141.65 L438.06 140.40 L437.79 139.14 L437.52 137.89 L437.23 136.65 L436.93 135.40 L436.62 134.16 L436.29 132.92 L435.95 131.69 L435.60 130.46 L435.23 129.23 L434.86 128.00 L434.47 126.78 L434.06 125.56 L433.65 124.34 L433.22 123.13 L432.78 121.93 L432.32 120.72 L431.86 119.52 L431.38 118.33 L430.89 117.14 L430.38 115.95 L429.87 114.77 L429.34 113.60 L428.80 112.42 L428.25 111.26 L427.68 110.10 L427.11 108.94 L426.52 107.79 L425.92 106.65 L425.31 105.51 L424.68 104.38 L424.04 103.25 L423.40 102.13 L422.74 101.01 L422.07 99.90 L421.38 98.80 L420.69 97.70 L419.98 96.61 L419.27 95.53 L418.54 94.45 L417.80 93.38 L417.05 92.32 L416.28 91.27 L415.51 90.22 L414.73 89.18 L413.93 88.14 L413.13 87.12 L412.31 86.10 L411.48 85.09 L410.65 84.09 L409.80 83.09 L408.94 82.11 L408.07 81.13 L407.19 80.16 L406.30 79.20 L405.40 78.24 L404.49 77.30 L403.57 76.36 L402.65 75.44 L401.71 74.52 L400.76 73.61 L399.80 72.71 L398.83 71.82 L397.86 70.94 L396.87 70.06 L395.88 69.20 L394.87 68.35 L393.86 67.50 L392.84 66.67 L391.81 65.84 L390.77 65.03 L389.72 64.22 L388.66 63.43 L387.60 62.64 L386.52 61.87 L385.44 61.11 L384.35 60.35 L383.26 59.61 L382.15 58.88 L381.04 58.15 L379.92 57.44 L378.79 56.74 L377.65 56.05 L376.51 55.37 L375.36 54.70 L374.20 54.05 L373.04 53.40 L371.87 52.77 L370.69 52.14 L369.51 51.53 L368.32 50.93 L367.12 50.34 L365.92 49.76 L364.71 49.20 L363.49 48.64 L362.27 48.10 L361.04 47.57 L359.81 47.05 L358.57 46.54 L357.33 46.04 L356.08 45.56 L354.82 45.09 L353.56 44.63 L352.30 44.18 L351.03 43.75 L349.76 43.32 L348.48 42.91 L347.20 42.51 L345.91 42.13 L344.62 41.75 L343.32 41.39 L342.02 41.04 L340.72 40.71 L339.41 40.38 L338.10 40.07 L336.79 39.77 L335.47 39.49 L334.15 39.21 L332.83 38.95 L331.50 38.71 L330.17 38.47 L328.84 38.25 L327.51 38.04 L326.17 37.84 L324.83 37.66 L323.49 37.49 L322.15 37.33 L320.81 37.19 L319.46 37.06 L318.11 36.94 L316.76 36.83 L315.41 36.74 L314.06 36.66 L312.71 36.59 L311.36 36.54 L310.00 36.50 L308.65 36.47 L307.29 36.46 L305.94 36.46 L304.58 36.47 L303.23 36.50 L301.87 36.54 L300.51 36.59 L299.16 36.65 L297.80 36.73 L296.45 36.82 L295.10 36.93 L293.75 37.04 L292.39 37.17 L291.04 37.32 L289.69 37.47 L288.35 37.64 L287.00 37.83 L285.66 38.02 L284.31 38.23 L282.97 38.45 L281.64 38.69 L280.30 38.94 L278.97 39.20 L277.64 39.47 L276.31 39.76 L274.98 40.06 L273.66 40.37 L272.34 40.70 L271.02 41.04 L269.71 41.39 L268.40 41.75 L267.09 42.13 L265.79 42.52 L264.49 42.92 L263.20 43.33 L261.91 43.76 L260.62 44.20 L259.34 44.65 L258.06 45.12 L256.79 45.59 L255.52 46.08 L254.25 46.58 L253.00 47.10 L251.74 47.63 L250.50 48.16 L249.25 48.71 L248.02 49.28 L246.78 49.85 L245.56 50.44 L244.34 51.04 L243.13 51.65 L241.92 52.27 L240.72 52.91 L239.52 53.55 L238.33 54.21 L237.15 54.88 L235.98 55.56 L234.81 56.25 L233.65 56.96 L232.49 57.67 L231.35 58.40 L230.21 59.14 L229.08 59.89 L227.95 60.64 L226.84 61.42 L225.73 62.20 L224.63 62.99 L223.53 63.79 L222.45 64.61 L221.37 65.43 L220.30 66.27 L219.24 67.11 L218.19 67.97 L217.15 68.84 L216.12 69.71 L215.09 70.60 L214.08 71.50 L213.07 72.40 L212.07 73.32 L211.09 74.24 L210.11 75.18 L209.14 76.13 L208.18 77.08 L207.23 78.05 L206.29 79.02 L205.36 80.00 L204.44 81.00 L203.53 82.00 L202.63 83.01 L201.74 84.03 L200.86 85.05 L200.00 86.09 L199.14 87.14 L198.29 88.19 L197.46 89.25 L196.63 90.32 L195.82 91.40 L195.01 92.49 L194.22 93.58 L193.44 94.68 L192.67 95.79 L191.91 96.91 L191.17 98.03 L190.43 99.17 L189.71 100.30 L189.00 101.45 L188.30 102.61 L187.61 103.77 L186.93 104.93 L186.27 106.11 L185.61 107.29 L184.97 108.48 L184.35 109.67 L183.73 110.87 L183.13 112.07 L182.54 113.29 L181.96 114.50 L181.39 115.73 L180.84 116.96 L180.30 118.19 L179.77 119.43 L179.25 120.68 L178.75 121.93 L178.26 123.18 L177.78 124.45 L177.32 125.71 L176.87 126.98 L176.43 128.26 L176.01 129.53 L175.59 130.82 L175.20 132.11 L174.81 133.40 L174.44 134.69 L174.08 135.99 L173.74 137.29 L173.40 138.60 L173.09 139.91 L172.78 141.22 L172.49 142.54 L172.21 143.86 L171.95 145.18 L171.70 146.51 L171.46 147.83 L171.24 149.16 L171.03 150.49 L170.83 151.83 L170.65 153.17 L170.48 154.50 L170.33 155.84 L170.19 157.19 L170.06 158.53 L169.95 159.87 L169.85 161.22 L169.77 162.57 L169.70 163.92 L169.64 165.27 L169.60 166.62 L169.57 167.97 L169.55 169.32 L169.55 170.67 L169.56 172.02 L169.59 173.37 L169.63 174.72 L169.69 176.07 L169.76 177.42 L169.84 178.78 L169.94 180.12 L170.05 181.47 L170.17 182.82 L170.31 184.17 L170.46 185.52 L170.63 186.86 L170.81 188.20 L171.00 189.54 L171.21 190.88 L171.43 192.22 L171.67 193.56 L171.92 194.89 L172.18 196.23 L172.46 197.55 L172.75 198.88 L173.06 200.21 L173.38 201.53 L173.71 202.85 L174.05 204.16 L174.41 205.47 L174.79 206.78 L175.17 208.09 L175.57 209.39 L175.99 210.69 L176.42 211.98 L176.86 213.28 L177.31 214.56 L177.78 215.84 L178.26 217.12 L178.76 218.40 L179.26 219.66 L179.78 220.93 L180.32 222.19 L180.86 223.44 L181.42 224.69 L182.00 225.94 L182.58 227.17 L183.18 228.41 L183.79 229.63 L184.42 230.86 L185.06 232.07 L185.71 233.28 L186.37 234.48 L187.04 235.68 L187.73 236.87 L188.43 238.06 L189.14 239.24 L189.87 240.41 L190.60 241.57 L191.35 242.73 L192.11 243.88 L192.89 245.02 L193.67 246.16 L194.47 247.29 L195.28 248.41 L196.10 249.52 L196.93 250.62 L197.77 251.72 L198.63 252.81 L199.49 253.89 L200.37 254.96 L201.26 256.03 L202.16 257.09 L203.07 258.13 L203.99 259.17 L204.92 260.20 L205.87 261.22 L206.82 262.24 L207.79 263.24 L208.76 264.23 L209.75 265.22 L210.74 266.19 L211.75 267.16 L212.77 268.11 L213.79 269.06 L214.83 270.00 L215.87 270.92 L216.93 271.84 L218.00 272.75 L219.07 273.64 L220.15 274.53 L221.25 275.40 L222.35 276.27 L223.46 277.12 L224.58 277.97 L225.71 278.80 L226.85 279.62 L228.00 280.44 L229.15 281.24 L230.32 282.03 L231.49 282.80 L232.67 283.57 L233.86 284.33 L235.06 285.07 L236.26 285.80 L237.47 286.52 L238.69 287.23 L239.92 287.93 L241.16 288.62 L242.40 289.29 L243.65 289.95 L244.90 290.61 L246.17 291.24 L247.44 291.87 L248.71 292.48 L250.00 293.08 L251.29 293.67 L252.58 294.25 L253.88 294.82 L255.19 295.37 L256.51 295.91 L257.83 296.43 L259.15 296.95 L260.48 297.45 L261.82 297.94 L263.16 298.41 L264.50 298.87 L265.86 299.32 L267.21 299.76 L268.57 300.18 L269.94 300.59 L271.31 300.99 L272.68 301.38 L274.06 301.75 L275.44 302.10 L276.83 302.45 L278.22 302.78 L279.61 303.10 L281.01 303.40 L282.41 303.69 L283.81 303.97 L285.22 304.23 L286.63 304.48 L288.04 304.72 L289.45 304.94 L290.87 305.15 L292.29 305.34 L293.71 305.52 L295.14 305.69 L296.56 305.85 L297.99 305.99 L299.42 306.11 L300.85 306.22 L302.28 306.32 L303.72 306.41 L305.15 306.48 L306.58 306.54 L308.02 306.58 L309.46 306.61 L310.89 306.62 L312.33 306.62 L313.77 306.61 L315.21 306.59 L316.65 306.55 L318.08 306.49 L319.52 306.42 L320.96 306.34 L322.39 306.25 L323.83 306.14 L325.26 306.01 L326.69 305.87 L328.13 305.72 L329.56 305.56 L330.99 305.38 L332.41 305.18 L333.84 304.98 L335.26 304.76 L336.68 304.52 L338.10 304.27 L339.52 304.01 L340.93 303.73 L342.35 303.45 L343.75 303.14 L345.16 302.82 L346.56 302.49 L347.96 302.15 L349.36 301.79 L350.75 301.42 L352.14 301.03 L353.52 300.64 L354.91 300.22 L356.28 299.80 L357.66 299.36 L359.02 298.91 L360.39 298.44 L361.75 297.96 L363.10 297.47 L364.45 296.97 L365.80 296.45 L367.14 295.92 L368.47 295.37 L369.80 294.81 L371.12 294.24 L372.44 293.66 L373.75 293.07 L375.06 292.46 L376.36 291.83 L377.65 291.20 L378.94 290.55 L380.22 289.89 L381.49 289.22 L382.76 288.54 L384.02 287.84 L385.27 287.13 L386.52 286.41 L387.75 285.68 L388.99 284.93 L390.21 284.18 L391.42 283.41 L392.63 282.63 L393.83 281.83 L395.02 281.03 L396.21 280.21 L397.38 279.38 L398.55 278.54 L399.71 277.69 L400.86 276.83 L402.00 275.96 L403.13 275.07 L404.26 274.18 L405.37 273.27 L406.48 272.35 L407.57 271.43 L408.66 270.49 L409.73 269.54 L410.80 268.58 L411.86 267.61 L412.91 266.62 L413.94 265.63 L414.97 264.63 L415.99 263.62 L416.99 262.60 L417.99 261.57 L418.98 260.53 L419.95 259.47 L420.91 258.41 L421.87 257.34 L422.81 256.27 L423.74 255.18 L424.66 254.08 L425.57 252.97 L426.47 251.86 L427.35 250.73 L428.23 249.60 L429.09 248.46 L429.94 247.31 L430.78 246.15 L431.61 244.98 L432.43 243.81 L433.23 242.62 L434.02 241.43 L434.80 240.23 L435.57 239.03 L436.32 237.81 L437.07 236.59 L437.80 235.36 L438.51 234.12 L439.22 232.88 L439.91 231.63 L440.59 230.37 L441.26 229.11 L441.91 227.84 L442.55 226.56 L443.18 225.28 L443.79 223.99 L444.39 222.69 L444.98 221.39 L445.55 220.08 L446.11 218.77 L446.66 217.45 L447.19 216.13 L447.71 214.80 L448.22 213.46 L448.71 212.12 L449.19 210.78 L449.65 209.43 L450.10 208.07 L450.54 206.71 L450.96 205.35 L451.37 203.98 L451.76 202.61 L452.14 201.24 L452.51 199.86 L452.86 198.47 L453.20 197.09 L453.52 195.70 L453.83 194.30 L454.13 192.90 L454.41 191.51 L454.67 190.10 L454.92 188.70 L455.16 187.29 L455.38 185.88 L455.59 184.47 L455.79 183.05 L455.96 181.63 L456.13 180.21 L456.28 178.79 L456.41 177.37 L456.53 175.95 L456.64 174.52 L456.73 173.10 L456.80 171.67 L456.86 170.24 L456.91 168.81 L456.94 167.38 L456.96 165.95 L456.96 164.52 L456.95 163.09 L456.92 161.66 L456.88 160.23 L456.82 158.80 L456.75 157.37 L456.66 155.94 L456.56 154.51 L456.44 153.08 L456.31 151.65 L456.17 150.22 L456.01 148.80 L455.83 147.38 L455.64 145.95 L455.44 144.53 L455.22 143.12 L454.98 141.70 L454.73 140.28 L454.47 138.87 L454.19 137.46 L453.90 136.05 L453.59 134.65 L453.27 133.25 L452.93 131.85 L452.58 130.45 L452.22 129.06 L451.84 127.67 L451.44 126.28 L451.03 124.90 L450.61 123.52 L450.17 122.15 L449.72 120.78 L449.25 119.41 L448.77 118.05 L448.28 116.69 L447.77 115.34 L447.25 113.99 L446.71 112.65 L446.16 111.31 L445.60 109.98 L445.02 108.65 L444.43 107.33 L443.82 106.01 L443.20 104.70 L442.57 103.39 L441.92 102.09 L441.26 100.80 L440.59 99.51 L439.90 98.23 L439.20 96.96 L438.49 95.69 L437.76 94.43 L437.02 93.18 L436.27 91.93 L435.50 90.69 L434.72 89.46 L433.93 88.23 L433.13 87.02 L432.31 85.81 L431.48 84.60 L430.64 83.41 L429.78 82.22 L428.92 81.05 L428.04 79.88 L427.15 78.71 L426.24 77.56 L425.33 76.42 L424.40 75.28 L423.46 74.15 L422.51 73.04 L421.54 71.93 L420.57 70.83 L419.58 69.74 L418.59 68.66 L417.58 67.59 L416.56 66.52 L415.53 65.47 L414.48 64.43 L413.43 63.40 L412.37 62.38 L411.29 61.36 L410.21 60.36 L409.11 59.37 L408.01 58.39 L406.89 57.42 L405.76 56.46 L404.63 55.51 L403.48 54.57 L402.33 53.65 L401.16 52.73 L399.98 51.83 L398.80 50.93 L397.60 50.05 L396.40 49.18 L395.19 48.32 L393.97 47.47 L392.73 46.64 L391.50 45.81 L390.25 45.00 L388.99 44.20 L387.72 43.41 L386.45 42.64 L385.17 41.87 L383.88 41.12 L382.58 40.38 L381.28 39.66 L379.96 38.94 L378.64 38.24 L377.31 37.55 L375.98 36.88 L374.64 36.22 L373.29 35.57 L371.93 34.93 L370.57 34.30 L369.20 33.69 L367.82 33.10 L366.44 32.51 L365.05 31.94 L363.65 31.38 L362.25 30.84 L360.85 30.31 L359.43 29.79 L358.02 29.29 L356.59 28.80 L355.16 28.32 L353.73 27.86 L352.29 27.41 L350.85 26.98 L349.40 26.55 L347.95 26.15 L346.49 25.75 L345.03 25.38 L343.56 25.01 L342.09 24.66 L340.62 24.32 L339.15 24.00 L337.66 23.69 L336.18 23.40 L334.69 23.12 L333.20 22.86 L331.71 22.61 L330.22 22.37 L328.72 22.15 L327.22 21.94 L325.71 21.75 L324.21 21.57 L322.70 21.41 L321.19 21.26 L319.68 21.12 L318.17 21.00 L316.66 20.90 L315.14 20.81 L313.62 20.73 L312.11 20.67 L310.59 20.62 L309.07 20.59 L307.55 20.58 L306.03 20.57 L304.51 20.59 L302.99 20.61 L301.47 20.65 L299.95 20.71 L298.43 20.78 L296.92 20.87 L295.40 20.97 L293.88 21.08 L292.36 21.21 L290.85 21.36 L289.34 21.52 L287.82 21.69 L286.31 21.88 L284.81 22.08 L283.30 22.30 L281.79 22.53 L280.29 22.78 L278.79 23.04 L277.29 23.32 L275.80 23.61 L274.31 23.91 L272.82 24.23 L271.33 24.57 L269.85 24.92 L268.37 25.28 L266.89 25.66 L265.42 26.05 L263.95 26.46 L262.49 26.88 L261.03 27.31 L259.57 27.76 L258.12 28.22 L256.68 28.70 L255.24 29.19 L253.80 29.70 L252.37 30.21 L250.94 30.75 L249.52 31.29 L248.10 31.85 L246.69 32.43 L245.29 33.02 L243.89 33.62 L242.50 34.23 L241.11 34.86 L239.73 35.51 L238.36 36.16 L236.99 36.83 L235.63 37.51 L234.28 38.21 L232.93 38.92 L231.59 39.64 L230.26 40.38 L228.94 41.12 L227.62 41.88 L226.31 42.66 L225.01 43.45 L223.72 44.24 L222.43 45.06 L221.16 45.88 L219.89 46.72 L218.63 47.57 L217.38 48.43 L216.13 49.30 L214.90 50.19 L213.68 51.09 L212.46 52.00 L211.25 52.92 L210.06 53.85 L208.87 54.80 L207.69 55.76 L206.52 56.72 L205.37 57.70 L204.22 58.69 L203.08 59.70 L201.95 60.71 L200.84 61.74 L199.73 62.77 L198.63 63.82 L197.55 64.87 L196.47 65.94 L195.41 67.02 L194.36 68.11 L193.31 69.21 L192.28 70.32 L191.26 71.44 L190.26 72.57 L189.26 73.71 L188.28 74.86 L187.30 76.01 L186.34 77.18 L185.39 78.36 L184.46 79.55 L183.53 80.74 L182.62 81.95 L181.72 83.16 L180.83 84.39 L179.96 85.62 L179.09 86.86 L178.24 88.11 L177.41 89.37 L176.58 90.63 L175.77 91.91 L174.97 93.19 L174.19 94.48 L173.42 95.77 L172.66 97.08 L171.91 98.39 L171.18 99.71 L170.47 101.04 L169.76 102.37 L169.07 103.71 L168.39 105.06 L167.73 106.42 L167.08 107.78 L166.45 109.15 L165.83 110.52 L165.22 111.90 L164.63 113.29 L164.05 114.68 L163.49 116.08 L162.94 117.48 L162.40 118.89 L161.88 120.30 L161.37 121.72 L160.88 123.15 L160.41 124.58 L159.94 126.01 L159.50 127.45 L159.06 128.90 L158.65 130.34 L158.24 131.80 L157.86 133.25 L157.48 134.71 L157.13 136.18 L156.78 137.64 L156.46 139.11 L156.15 140.59 L155.85 142.07 L155.57 143.55 L155.30 145.03 L155.05 146.52 L154.81 148.01 L154.59 149.50 L154.39 150.99 L154.20 152.49 L154.02 153.98 L153.87 155.48 L153.72 156.99 L153.59 158.49 L153.48 159.99 L153.39 161.50 L153.30 163.01 L153.24 164.51 L153.19 166.02 L153.15 167.53 L153.14 169.04 L153.13 170.55 L153.15 172.06 L153.17 173.57 L153.22 175.08 L153.28 176.59 L153.35 178.10 L153.44 179.61 L153.55 181.12 L153.67 182.63 L153.81 184.13 L153.96 185.64 L154.13 187.14 L154.31 188.64 L154.51 190.15 L154.73 191.65 L154.96 193.14 L155.20 194.64 L155.47 196.13 L155.74 197.62 L156.04 199.11 L156.34 200.60 L156.67 202.08 L157.01 203.56 L157.36 205.03 L157.73 206.51 L158.12 207.98 L158.52 209.44 L158.93 210.91 L159.36 212.37 L159.81 213.82 L160.27 215.27 L160.74 216.72 L161.23 218.16 L161.74 219.60 L162.26 221.03 L162.80 222.46 L163.35 223.88 L163.91 225.30 L164.49 226.71 L165.08 228.12 L165.69 229.52 L166.32 230.91 L166.96 232.30 L167.61 233.69 L168.27 235.06 L168.96 236.44 L169.65 237.80 L170.36 239.16 L171.08 240.51 L171.82 241.86 L172.57 243.19 L173.34 244.52 L174.12 245.85 L174.91 247.16 L175.72 248.47 L176.54 249.77 L177.38 251.06 L178.22 252.35 L179.08 253.63 L179.96 254.90 L180.85 256.16 L181.75 257.41 L182.66 258.65 L183.59 259.89 L184.53 261.11 L185.48 262.33 L186.44 263.54 L187.42 264.74 L188.41 265.92 L189.42 267.10 L190.43 268.27 L191.46 269.44 L192.50 270.59 L193.55 271.73 L194.61 272.86 L195.69 273.98 L196.77 275.09 L197.87 276.19 L198.98 277.28 L200.10 278.36 L201.24 279.43 L202.38 280.48 L203.53 281.53 L204.70 282.56 L205.88 283.59 L207.06 284.60 L208.26 285.60 L209.47 286.59 L210.69 287.57 L211.92 288.54 L213.16 289.49 L214.41 290.44 L215.66 291.37 L216.93 292.29 L218.21 293.19 L219.50 294.09 L220.80 294.97 L222.10 295.84 L223.42 296.70 L224.74 297.54 L226.08 298.37 L227.42 299.19 L228.77 300.00 L230.13 300.79 L231.50 301.57 L232.87 302.34 L234.26 303.09 L235.65 303.83 L237.05 304.56 L238.46 305.27 L239.87 305.97 L241.30 306.66 L242.73 307.33 L244.16 307.99 L245.61 308.63 L247.06 309.27 L248.52 309.88 L249.98 310.49 L251.45 311.07 L252.93 311.65 L254.41 312.21 L255.90 312.76 L257.39 313.29 L258.89 313.81 L260.40 314.31 L261.91 314.80 L263.43 315.27 L264.95 315.73 L266.47 316.18 L268.00 316.61 L269.54 317.02 L271.08 317.42 L272.63 317.81 L274.17 318.18 L275.73 318.53 L277.28 318.87 L278.84 319.20 L280.41 319.51 L281.97 319.81 L283.54 320.09 L285.12 320.35 L286.69 320.60 L288.27 320.84 L289.86 321.05 L291.44 321.26 L293.03 321.45 L294.62 321.62 L296.21 321.78 L297.80 321.92 L299.39 322.05 L300.99 322.16 L302.58 322.26 L304.18 322.34 L305.78 322.40 L307.38 322.45 L308.98 322.49 L310.58 322.51 L312.19 322.51 L313.79 322.50 L315.39 322.47 L316.99 322.43 L318.59 322.37 L320.19 322.30 L321.79 322.21 L323.39 322.10 L324.99 321.98 L326.59 321.85 L328.19 321.70 L329.78 321.53 L331.38 321.35 L332.97 321.15 L334.56 320.94 L336.15 320.71 L337.73 320.46 L339.32 320.20 L340.90 319.93 L342.47 319.64 L344.05 319.33 L345.62 319.01 L347.19 318.68 L348.76 318.33 L350.32 317.96 L351.88 317.58 L353.44 317.18 L354.99 316.77 L356.53 316.34 L358.08 315.90 L359.62 315.45 L361.15 314.97 L362.68 314.49 L364.20 313.99 L365.72 313.47 L367.24 312.94 L368.75 312.39 L370.25 311.83 L371.75 311.26 L373.24 310.67 L374.73 310.06 L376.21 309.44 L377.68 308.81 L379.15 308.16 L380.61 307.50 L382.06 306.83 L383.51 306.14 L384.95 305.43 L386.38 304.71 L387.81 303.98 L389.23 303.24 L390.64 302.48 L392.04 301.70 L393.44 300.91 L394.83 300.11 L396.21 299.30 L397.58 298.47 L398.94 297.63 L400.30 296.78 L401.64 295.91 L402.98 295.03 L404.31 294.13 L405.62 293.23 L406.93 292.31 L408.23 291.38 L409.52 290.43 L410.81 289.47 L412.08 288.50 L413.34 287.52 L414.59 286.52 L415.83 285.52 L417.06 284.50 L418.28 283.47 L419.49 282.42 L420.69 281.37 L421.88 280.30 L423.06 279.22 L424.23 278.13 L425.38 277.03 L426.53 275.92 L427.66 274.80 L428.78 273.66 L429.89 272.51 L430.99 271.36 L432.07 270.19 L433.15 269.01 L434.21 267.82 L435.26 266.62 L436.30 265.41 L437.32 264.20 L438.34 262.97 L439.34 261.73 L440.32 260.48 L441.30 259.22 L442.26 257.95 L443.21 256.67 L444.15 255.38 L445.07 254.09 L445.98 252.78 L446.87 251.47 L447.76 250.14 L448.62 248.81 L449.48 247.47 L450.32 246.12 L451.15 244.76 L451.96 243.40 L452.76 242.02 L453.55 240.64 L454.32 239.25 L455.07 237.85 L455.82 236.45 L456.55 235.04 L457.26 233.62 L457.96 232.19 L458.64 230.76 L459.31 229.32 L459.97 227.87 L460.61 226.42 L461.23 224.96 L461.84 223.50 L462.44 222.02 L463.02 220.55 L463.58 219.06 L464.13 217.58 L464.66 216.08 L465.18 214.58 L465.69 213.08 L466.17 211.57 L466.64 210.05 L467.10 208.53 L467.54 207.01 L467.97 205.48 L468.38 203.95 L468.77 202.41 L469.15 200.87 L469.51 199.32 L469.85 197.78 L470.18 196.22 L470.50 194.67 L470.80 193.11 L471.08 191.55 L471.34 189.98 L471.59 188.42 L471.83 186.85 L472.04 185.27 L472.24 183.70 L472.43 182.12 L472.60 180.55 L472.75 178.96 L472.88 177.38 L473.00 175.80 L473.11 174.21 L473.19 172.63 L473.26 171.04 L473.32 169.45 L473.35 167.87 " style="fill:none;stroke:#0080cc;stroke-width:1;" /></g></svg>