<?xml version="1.0" standalone="no"?><!DOCTYPE svg PUBLIC "-//W3C//DTD SVG 1.1//EN" "http://www.w3.org/Graphics/SVG/1.1/DTD/svg11.dtd"><svg xmlns="http://www.w3.org/2000/svg" viewBox="0 0 618 368" version="1.1"><clipPath id="box"><rect x="0" y="0" width="618" height="368" style="fill:none;stroke:none;" /></clipPath><g clip-path="url(#box)"><rect x="0.00" y="0.00" width="618.00" height="368.00" style="fill:#FFFFFF;stroke:none;" /><path d="M0.00 320.00 L618.00 320.00 M0.00 246.00 L618.00 246.00 M0.00 173.00 L618.00 173.00 M0.00 99.00 L618.00 99.00 M0.00 25.00 L618.00 25.00 M37.00 0.00 L37.00 368.00 M114.00 0.00 L114.00 368.00 M190.00 0.00 L190.00 368.00 M266.00 0.00 L266.00 368.00 M342.00 0.00 L342.00 368.00 M418.00 0.00 L418.00 368.00 M494.00 0.00 L494.00 368.00 M570.00 0.00 L570.00 368.00 " style="fill:none;stroke:#D0D0D0;stroke-width:1;" /><path d="M266.14 0.00 L266.14 368.00 " style="fill:none;stroke:#000000;stroke-width:1;" /><path d="M259.96 393.84 L272.32 393.84 M259.96 320.24 L272.32 320.24 M259.96 246.64 L272.32 246.64 M259.96 173.04 L272.32 173.04 M259.96 99.44 L272.32 99.44 M259.96 25.84 L272.32 25.84 " style="fill:none;stroke:#000000;stroke-width:1;" /><path d="M0.00 246.64 L618.00 246.64 " style="fill:none;stroke:#000000;stroke-width:1;" /><path d="M-38.11 240.46 L-38.11 252.82 M37.96 240.46 L37.96 252.82 M114.02 240.46 L114.02 252.82 M190.08 240.46 L190.08 252.82 M266.14 240.46 L266.14 252.82 M342.20 240.46 L342.20 252.82 M418.26 240.46 L418.26 252.82 M494.32 240.46 L494.32 252.82 M570.39 240.46 L570.39 252.82 " style="fill:none;stroke:#000000;stroke-width:1;" /><text x="273.8649218749998" y="322.73609374999995" text-anchor="start" style="font:10px Droid Sans,Trebuchet MS,Arial,Helvetica,sans-serif;stroke:none;fill:#000000">-1</text><text x="273.8649218749998" y="249.1360937499998" text-anchor="start" style="font:10px Droid Sans,Trebuchet MS,Arial,Helvetica,sans-serif;stroke:none;fill:#000000">0</text><text x="273.8649218749998" y="175.53609374999965" text-anchor="start" style="font:10px Droid Sans,Trebuchet MS,Arial,Helvetica,sans-serif;stroke:none;fill:#000000">1</text><text x="273.8649218749998" y="101.93609374999953" text-anchor="start" style="font:10px Droid Sans,Trebuchet MS,Arial,Helvetica,sans-serif;stroke:none;fill:#000000">2</text><text x="273.8649218749998" y="28.336093749999392" text-anchor="start" style="font:10px Droid Sans,Trebuchet MS,Arial,Helvetica,sans-serif;stroke:none;fill:#000000">3</text><text x="37.95530649038391" y="262.3610937499998" text-anchor="middle" style="font:10px Droid Sans,Trebuchet MS,Arial,Helvetica,sans-serif;stroke:none;fill:#000000">-3</text><text x="114.01684495192254" y="262.3610937499998" text-anchor="middle" style="font:10px Droid Sans,Trebuchet MS,Arial,Helvetica,sans-serif;stroke:none;fill:#000000">-2</text><text x="190.07838341346118" y="262.3610937499998" text-anchor="middle" style="font:10px Droid Sans,Trebuchet MS,Arial,Helvetica,sans-serif;stroke:none;fill:#000000">-1</text><text x="266.1399218749998" y="262.3610937499998" text-anchor="middle" style="font:10px Droid Sans,Trebuchet MS,Arial,Helvetica,sans-serif;stroke:none;fill:#000000">0</text><text x="342.20146033653845" y="262.3610937499998" text-anchor="middle" style="font:10px Droid Sans,Trebuchet MS,Arial,Helvetica,sans-serif;stroke:none;fill:#000000">1</text><text x="418.26299879807704" y="262.3610937499998" text-anchor="middle" style="font:10px Droid Sans,Trebuchet MS,Arial,Helvetica,sans-serif;stroke:none;fill:#000000">2</text><text x="494.3245372596157" y="262.3610937499998" text-anchor="middle" style="font:10px Droid Sans,Trebuchet MS,Arial,Helvetica,sans-serif;stroke:none;fill:#000000">3</text><text x="570.3860757211544" y="262.3610937499998" text-anchor="middle" style="font:10px Droid Sans,Trebuchet MS,Arial,Helvetica,sans-serif;stroke:none;fill:#000000">4</text><path d="M190.08 361.95 L190.08 361.73 L190.09 361.21 L190.10 360.63 L190.12 359.95 L190.14 359.21 L190.18 358.44 L190.23 357.62 L190.29 356.79 L190.36 355.93 L190.44 355.06 L190.54 354.17 L190.64 353.28 L190.76 352.37 L190.89 351.46 L191.04 350.54 L191.20 349.62 L191.37 348.69 L191.55 347.75 L191.74 346.81 L191.95 345.87 L192.17 344.93 L192.41 343.98 L192.66 343.03 L192.92 342.08 L193.19 341.12 L193.48 340.16 L193.78 339.21 L194.09 338.25 L194.41 337.28 L194.75 336.32 L195.10 335.35 L195.46 334.39 L195.84 333.42 L196.23 332.45 L196.63 331.48 L197.04 330.51 L197.47 329.54 L197.90 328.57 L198.35 327.59 L198.82 326.62 L199.29 325.64 L199.78 324.67 L200.28 323.69 L200.79 322.71 L201.31 321.74 L201.85 320.76 L202.39 319.78 L202.95 318.80 L203.52 317.82 L204.10 316.84 L204.69 315.86 L205.30 314.87 L205.91 313.89 L206.54 312.91 L207.17 311.93 L207.82 310.94 L208.48 309.96 L209.15 308.97 L209.83 307.99 L210.52 307.00 L211.22 306.02 L211.93 305.03 L212.65 304.04 L213.38 303.06 L214.12 302.07 L214.87 301.08 L215.62 300.10 L216.39 299.11 L217.17 298.12 L217.96 297.13 L218.75 296.14 L219.55 295.15 L220.37 294.16 L221.19 293.17 L222.02 292.18 L222.86 291.19 L223.70 290.20 L224.56 289.21 L225.42 288.22 L226.29 287.23 L227.16 286.24 L228.05 285.24 L228.94 284.25 L229.84 283.26 L230.74 282.27 L231.65 281.27 L232.57 280.28 L233.49 279.29 L234.42 278.29 L235.36 277.30 L236.30 276.30 L237.25 275.31 L238.20 274.32 L239.16 273.32 L240.13 272.33 L241.09 271.33 L242.07 270.34 L243.05 269.34 L244.03 268.35 L245.02 267.35 L246.01 266.35 L247.00 265.36 L248.00 264.36 L249.00 263.36 L250.01 262.37 L251.02 261.37 L252.03 260.37 L253.04 259.38 L254.06 258.38 L255.08 257.38 L256.10 256.38 L257.12 255.38 L258.15 254.38 L259.17 253.39 L260.20 252.39 L261.23 251.39 L262.26 250.39 L263.29 249.39 L264.33 248.39 L265.36 247.39 L266.39 246.39 L267.43 245.39 L268.46 244.39 L269.49 243.39 L270.53 242.39 L271.56 241.39 L272.59 240.39 L273.62 239.39 L274.65 238.39 L275.68 237.38 L276.70 236.38 L277.73 235.38 L278.75 234.38 L279.77 233.38 L280.79 232.37 L281.80 231.37 L282.82 230.37 L283.83 229.37 L284.83 228.36 L285.84 227.36 L286.84 226.35 L287.83 225.35 L288.82 224.35 L289.81 223.34 L290.80 222.34 L291.78 221.33 L292.75 220.33 L293.72 219.32 L294.69 218.32 L295.65 217.31 L296.60 216.31 L297.55 215.30 L298.50 214.29 L299.44 213.29 L300.37 212.28 L301.29 211.27 L302.21 210.27 L303.13 209.26 L304.03 208.25 L304.93 207.24 L305.83 206.24 L306.71 205.23 L307.59 204.22 L308.46 203.21 L309.32 202.20 L310.18 201.19 L311.02 200.18 L311.86 199.17 L312.69 198.16 L313.51 197.15 L314.33 196.14 L315.13 195.13 L315.93 194.12 L316.71 193.10 L317.49 192.09 L318.26 191.08 L319.01 190.07 L319.76 189.05 L320.50 188.04 L321.23 187.03 L321.94 186.01 L322.65 185.00 L323.35 183.98 L324.04 182.96 L324.71 181.95 L325.38 180.93 L326.03 179.91 L326.67 178.90 L327.30 177.88 L327.92 176.86 L328.53 175.84 L329.13 174.82 L329.71 173.80 L330.29 172.78 L330.85 171.76 L331.40 170.73 L331.94 169.71 L332.46 168.68 L332.97 167.66 L333.47 166.63 L333.96 165.61 L334.43 164.58 L334.89 163.55 L335.34 162.52 L335.78 161.49 L336.20 160.46 L336.61 159.42 L337.01 158.39 L337.39 157.35 L337.76 156.31 L338.11 155.27 L338.45 154.23 L338.78 153.19 L339.09 152.14 L339.39 151.09 L339.68 150.04 L339.95 148.98 L340.21 147.92 L340.45 146.86 L340.68 145.79 L340.89 144.71 L341.09 143.63 L341.27 142.54 L341.44 141.45 L341.59 140.33 L341.73 139.21 L341.85 138.06 L341.96 136.88 L342.05 135.65 L342.12 134.33 L342.18 132.75 " style="fill:none;stroke:#000000;stroke-width:1;" /><path d="M190.08 15.71 L190.08 15.93 L190.09 16.45 L190.10 17.03 L190.12 17.71 L190.14 18.45 L190.18 19.23 L190.23 20.04 L190.29 20.87 L190.36 21.73 L190.44 22.60 L190.54 23.49 L190.64 24.38 L190.76 25.29 L190.89 26.20 L191.04 27.12 L191.20 28.05 L191.37 28.98 L191.55 29.91 L191.74 30.85 L191.95 31.79 L192.17 32.73 L192.41 33.68 L192.66 34.63 L192.92 35.59 L193.19 36.54 L193.48 37.50 L193.78 38.46 L194.09 39.42 L194.41 40.38 L194.75 41.34 L195.10 42.31 L195.46 43.27 L195.84 44.24 L196.23 45.21 L196.63 46.18 L197.04 47.15 L197.47 48.12 L197.90 49.09 L198.35 50.07 L198.82 51.04 L199.29 52.02 L199.78 52.99 L200.28 53.97 L200.79 54.95 L201.31 55.93 L201.85 56.90 L202.39 57.88 L202.95 58.86 L203.52 59.84 L204.10 60.82 L204.69 61.81 L205.30 62.79 L205.91 63.77 L206.54 64.75 L207.17 65.74 L207.82 66.72 L208.48 67.70 L209.15 68.69 L209.83 69.67 L210.52 70.66 L211.22 71.64 L211.93 72.63 L212.65 73.62 L213.38 74.60 L214.12 75.59 L214.87 76.58 L215.62 77.57 L216.39 78.55 L217.17 79.54 L217.96 80.53 L218.75 81.52 L219.55 82.51 L220.37 83.50 L221.19 84.49 L222.02 85.48 L222.86 86.47 L223.70 87.46 L224.56 88.45 L225.42 89.44 L226.29 90.43 L227.16 91.43 L228.05 92.42 L228.94 93.41 L229.84 94.40 L230.74 95.40 L231.65 96.39 L232.57 97.38 L233.49 98.38 L234.42 99.37 L235.36 100.36 L236.30 101.36 L237.25 102.35 L238.20 103.35 L239.16 104.34 L240.13 105.33 L241.09 106.33 L242.07 107.33 L243.05 108.32 L244.03 109.32 L245.02 110.31 L246.01 111.31 L247.00 112.30 L248.00 113.30 L249.00 114.30 L250.01 115.29 L251.02 116.29 L252.03 117.29 L253.04 118.29 L254.06 119.28 L255.08 120.28 L256.10 121.28 L257.12 122.28 L258.15 123.28 L259.17 124.28 L260.20 125.27 L261.23 126.27 L262.26 127.27 L263.29 128.27 L264.33 129.27 L265.36 130.27 L266.39 131.27 L267.43 132.27 L268.46 133.27 L269.49 134.27 L270.53 135.27 L271.56 136.27 L272.59 137.27 L273.62 138.27 L274.65 139.28 L275.68 140.28 L276.70 141.28 L277.73 142.28 L278.75 143.28 L279.77 144.29 L280.79 145.29 L281.80 146.29 L282.82 147.29 L283.83 148.30 L284.83 149.30 L285.84 150.30 L286.84 151.31 L287.83 152.31 L288.82 153.31 L289.81 154.32 L290.80 155.32 L291.78 156.33 L292.75 157.33 L293.72 158.34 L294.69 159.34 L295.65 160.35 L296.60 161.35 L297.55 162.36 L298.50 163.37 L299.44 164.37 L300.37 165.38 L301.29 166.39 L302.21 167.39 L303.13 168.40 L304.03 169.41 L304.93 170.42 L305.83 171.43 L306.71 172.43 L307.59 173.44 L308.46 174.45 L309.32 175.46 L310.18 176.47 L311.02 177.48 L311.86 178.49 L312.69 179.50 L313.51 180.51 L314.33 181.52 L315.13 182.53 L315.93 183.55 L316.71 184.56 L317.49 185.57 L318.26 186.58 L319.01 187.60 L319.76 188.61 L320.50 189.62 L321.23 190.64 L321.94 191.65 L322.65 192.67 L323.35 193.68 L324.04 194.70 L324.71 195.71 L325.38 196.73 L326.03 197.75 L326.67 198.77 L327.30 199.78 L327.92 200.80 L328.53 201.82 L329.13 202.84 L329.71 203.86 L330.29 204.88 L330.85 205.91 L331.40 206.93 L331.94 207.95 L332.46 208.98 L332.97 210.00 L333.47 211.03 L333.96 212.05 L334.43 213.08 L334.89 214.11 L335.34 215.14 L335.78 216.17 L336.20 217.21 L336.61 218.24 L337.01 219.27 L337.39 220.31 L337.76 221.35 L338.11 222.39 L338.45 223.43 L338.78 224.48 L339.09 225.52 L339.39 226.57 L339.68 227.63 L339.95 228.68 L340.21 229.74 L340.45 230.80 L340.68 231.87 L340.89 232.95 L341.09 234.03 L341.27 235.12 L341.44 236.22 L341.59 237.33 L341.73 238.45 L341.85 239.60 L341.96 240.78 L342.05 242.01 L342.12 243.33 L342.18 244.91 " style="fill:none;stroke:#000000;stroke-width:1;" /></g></svg>