<?xml version="1.0" standalone="no"?><!DOCTYPE svg PUBLIC "-//W3C//DTD SVG 1.1//EN" "http://www.w3.org/Graphics/SVG/1.1/DTD/svg11.dtd"><svg xmlns="http://www.w3.org/2000/svg" viewBox="0 0 618 368" version="1.1"><clipPath id="box"><rect x="0" y="0" width="618" height="368" style="fill:none;stroke:none;" /></clipPath><g clip-path="url(#box)"><rect x="0.00" y="0.00" width="618.00" height="368.00" style="fill:#FFFFFF;stroke:none;" /><path d="M0.00 324.00 L618.00 324.00 M0.00 278.00 L618.00 278.00 M0.00 232.00 L618.00 232.00 M0.00 186.00 L618.00 186.00 M0.00 140.00 L618.00 140.00 M0.00 94.00 L618.00 94.00 M0.00 48.00 L618.00 48.00 M0.00 2.00 L618.00 2.00 M14.00 0.00 L14.00 368.00 M62.00 0.00 L62.00 368.00 M109.00 0.00 L109.00 368.00 M157.00 0.00 L157.00 368.00 M204.00 0.00 L204.00 368.00 M252.00 0.00 L252.00 368.00 M299.00 0.00 L299.00 368.00 M347.00 0.00 L347.00 368.00 M394.00 0.00 L394.00 368.00 M442.00 0.00 L442.00 368.00 M489.00 0.00 L489.00 368.00 M537.00 0.00 L537.00 368.00 M585.00 0.00 L585.00 368.00 " style="fill:none;stroke:#D0D0D0;stroke-width:1;" /><path d="M299.82 0.00 L299.82 368.00 " style="fill:none;stroke:#000000;stroke-width:1;" /><path d="M293.64 370.60 L306.00 370.60 M293.64 324.60 L306.00 324.60 M293.64 278.60 L306.00 278.60 M293.64 232.60 L306.00 232.60 M293.64 186.60 L306.00 186.60 M293.64 140.60 L306.00 140.60 M293.64 94.60 L306.00 94.60 M293.64 48.60 L306.00 48.60 M293.64 2.60 L306.00 2.60 " style="fill:none;stroke:#000000;stroke-width:1;" /><path d="M0.00 186.60 L618.00 186.60 " style="fill:none;stroke:#000000;stroke-width:1;" /><path d="M-32.95 180.42 L-32.95 192.78 M14.59 180.42 L14.59 192.78 M62.12 180.42 L62.12 192.78 M109.66 180.42 L109.66 192.78 M157.20 180.42 L157.20 192.78 M204.74 180.42 L204.74 192.78 M252.28 180.42 L252.28 192.78 M299.82 180.42 L299.82 192.78 M347.35 180.42 L347.35 192.78 M394.89 180.42 L394.89 192.78 M442.43 180.42 L442.43 192.78 M489.97 180.42 L489.97 192.78 M537.51 180.42 L537.51 192.78 M585.05 180.42 L585.05 192.78 " style="fill:none;stroke:#000000;stroke-width:1;" /><text x="307.54132000000004" y="327.1041600000001" text-anchor="start" style="font:10px Droid Sans,Trebuchet MS,Arial,Helvetica,sans-serif;stroke:none;fill:#000000">-3</text><text x="307.54132000000004" y="281.1041600000001" text-anchor="start" style="font:10px Droid Sans,Trebuchet MS,Arial,Helvetica,sans-serif;stroke:none;fill:#000000">-2</text><text x="307.54132000000004" y="235.10416000000004" text-anchor="start" style="font:10px Droid Sans,Trebuchet MS,Arial,Helvetica,sans-serif;stroke:none;fill:#000000">-1</text><text x="307.54132000000004" y="189.10416" text-anchor="start" style="font:10px Droid Sans,Trebuchet MS,Arial,Helvetica,sans-serif;stroke:none;fill:#000000">0</text><text x="307.54132000000004" y="143.10415999999995" text-anchor="start" style="font:10px Droid Sans,Trebuchet MS,Arial,Helvetica,sans-serif;stroke:none;fill:#000000">1</text><text x="307.54132000000004" y="97.10415999999992" text-anchor="start" style="font:10px Droid Sans,Trebuchet MS,Arial,Helvetica,sans-serif;stroke:none;fill:#000000">2</text><text x="307.54132000000004" y="51.10415999999987" text-anchor="start" style="font:10px Droid Sans,Trebuchet MS,Arial,Helvetica,sans-serif;stroke:none;fill:#000000">3</text><text x="14.585550769230517" y="202.32916" text-anchor="middle" style="font:10px Droid Sans,Trebuchet MS,Arial,Helvetica,sans-serif;stroke:none;fill:#000000">-6</text><text x="62.1240123076921" y="202.32916" text-anchor="middle" style="font:10px Droid Sans,Trebuchet MS,Arial,Helvetica,sans-serif;stroke:none;fill:#000000">-5</text><text x="109.66247384615369" y="202.32916" text-anchor="middle" style="font:10px Droid Sans,Trebuchet MS,Arial,Helvetica,sans-serif;stroke:none;fill:#000000">-4</text><text x="157.20093538461526" y="202.32916" text-anchor="middle" style="font:10px Droid Sans,Trebuchet MS,Arial,Helvetica,sans-serif;stroke:none;fill:#000000">-3</text><text x="204.73939692307687" y="202.32916" text-anchor="middle" style="font:10px Droid Sans,Trebuchet MS,Arial,Helvetica,sans-serif;stroke:none;fill:#000000">-2</text><text x="252.27785846153844" y="202.32916" text-anchor="middle" style="font:10px Droid Sans,Trebuchet MS,Arial,Helvetica,sans-serif;stroke:none;fill:#000000">-1</text><text x="299.81632" y="202.32916" text-anchor="middle" style="font:10px Droid Sans,Trebuchet MS,Arial,Helvetica,sans-serif;stroke:none;fill:#000000">0</text><text x="347.35478153846157" y="202.32916" text-anchor="middle" style="font:10px Droid Sans,Trebuchet MS,Arial,Helvetica,sans-serif;stroke:none;fill:#000000">1</text><text x="394.8932430769232" y="202.32916" text-anchor="middle" style="font:10px Droid Sans,Trebuchet MS,Arial,Helvetica,sans-serif;stroke:none;fill:#000000">2</text><text x="442.43170461538483" y="202.32916" text-anchor="middle" style="font:10px Droid Sans,Trebuchet MS,Arial,Helvetica,sans-serif;stroke:none;fill:#000000">3</text><text x="489.9701661538464" y="202.32916" text-anchor="middle" style="font:10px Droid Sans,Trebuchet MS,Arial,Helvetica,sans-serif;stroke:none;fill:#000000">4</text><text x="537.508627692308" y="202.32916" text-anchor="middle" style="font:10px Droid Sans,Trebuchet MS,Arial,Helvetica,sans-serif;stroke:none;fill:#000000">5</text><text x="585.0470892307695" y="202.32916" text-anchor="middle" style="font:10px Droid Sans,Trebuchet MS,Arial,Helvetica,sans-serif;stroke:none;fill:#000000">6</text><path d="M-10.00 184.00 L-0.25 186.39 L0.75 186.55 L2.75 186.86 L4.75 187.17 L6.75 187.49 L8.75 187.80 L10.75 188.13 L12.75 188.45 L14.75 188.77 L16.75 189.10 L18.75 189.42 L20.75 189.75 L22.75 190.07 L24.75 190.39 L26.75 190.72 L28.75 191.03 L30.75 191.35 L32.75 191.66 L34.75 191.97 L36.75 192.27 L38.75 192.56 L40.75 192.85 L42.75 193.14 L44.75 193.41 L46.75 193.68 L48.75 193.94 L50.75 194.19 L52.75 194.44 L54.75 194.67 L56.75 194.89 L58.75 195.10 L60.75 195.30 L62.75 195.48 L64.75 195.66 L66.75 195.82 L68.75 195.96 L70.75 196.10 L72.75 196.21 L74.75 196.32 L76.75 196.41 L78.75 196.48 L80.75 196.53 L82.75 196.57 L84.75 196.59 L86.75 196.60 L88.75 196.58 L90.75 196.55 L92.75 196.50 L94.75 196.43 L96.75 196.34 L98.75 196.24 L100.75 196.11 L102.75 195.96 L104.75 195.80 L106.75 195.61 L108.75 195.41 L110.75 195.18 L112.75 194.94 L114.75 194.67 L116.75 194.38 L118.75 194.08 L120.75 193.75 L122.75 193.40 L124.75 193.04 L126.75 192.65 L128.75 192.24 L130.75 191.82 L132.75 191.37 L134.75 190.91 L136.75 190.42 L138.75 189.92 L140.75 189.40 L142.75 188.86 L144.75 188.30 L146.75 187.72 L148.75 187.13 L150.75 186.52 L152.75 185.89 L154.75 185.25 L156.75 184.59 L158.75 183.92 L160.75 183.23 L162.75 182.53 L164.75 181.81 L166.75 181.09 L168.75 180.35 L170.75 179.59 L172.75 178.83 L174.75 178.06 L176.75 177.27 L178.75 176.48 L180.75 175.68 L182.75 174.87 L184.75 174.06 L186.75 173.24 L188.75 172.41 L190.75 171.58 L192.75 170.74 L194.75 169.90 L196.75 169.06 L198.75 168.22 L200.75 167.37 L202.75 166.53 L204.75 165.69 L206.75 164.84 L208.75 164.00 L210.75 163.17 L212.75 162.34 L214.75 161.51 L216.75 160.69 L218.75 159.87 L220.75 159.06 L222.75 158.26 L224.75 157.47 L226.75 156.69 L228.75 155.92 L230.75 155.16 L232.75 154.41 L234.75 153.68 L236.75 152.96 L238.75 152.25 L240.75 151.56 L242.75 150.88 L244.75 150.22 L246.75 149.58 L248.75 148.95 L250.75 148.35 L252.75 147.76 L254.75 147.19 L256.75 146.64 L258.75 146.12 L260.75 145.61 L262.75 145.13 L264.75 144.66 L266.75 144.22 L268.75 143.81 L270.75 143.42 L272.75 143.05 L274.75 142.71 L276.75 142.39 L278.75 142.09 L280.75 141.83 L282.75 141.59 L284.75 141.37 L286.75 141.18 L288.75 141.02 L290.75 140.88 L292.75 140.77 L294.75 140.69 L296.75 140.64 L298.75 140.61 L300.75 140.61 L302.75 140.63 L304.75 140.69 L306.75 140.77 L308.75 140.87 L310.75 141.01 L312.75 141.17 L314.75 141.36 L316.75 141.57 L318.75 141.81 L320.75 142.08 L322.75 142.37 L324.75 142.68 L326.75 143.03 L328.75 143.39 L330.75 143.78 L332.75 144.20 L334.75 144.63 L336.75 145.09 L338.75 145.58 L340.75 146.08 L342.75 146.61 L344.75 147.15 L346.75 147.72 L348.75 148.31 L350.75 148.91 L352.75 149.54 L354.75 150.18 L356.75 150.84 L358.75 151.51 L360.75 152.21 L362.75 152.91 L364.75 153.63 L366.75 154.37 L368.75 155.11 L370.75 155.87 L372.75 156.64 L374.75 157.42 L376.75 158.21 L378.75 159.01 L380.75 159.82 L382.75 160.63 L384.75 161.45 L386.75 162.28 L388.75 163.11 L390.75 163.95 L392.75 164.79 L394.75 165.63 L396.75 166.47 L398.75 167.32 L400.75 168.16 L402.75 169.00 L404.75 169.85 L406.75 170.69 L408.75 171.52 L410.75 172.35 L412.75 173.18 L414.75 174.00 L416.75 174.82 L418.75 175.63 L420.75 176.43 L422.75 177.22 L424.75 178.01 L426.75 178.78 L428.75 179.54 L430.75 180.30 L432.75 181.04 L434.75 181.77 L436.75 182.48 L438.75 183.18 L440.75 183.87 L442.75 184.55 L444.75 185.21 L446.75 185.85 L448.75 186.48 L450.75 187.09 L452.75 187.68 L454.75 188.26 L456.75 188.82 L458.75 189.36 L460.75 189.88 L462.75 190.39 L464.75 190.87 L466.75 191.34 L468.75 191.79 L470.75 192.22 L472.75 192.62 L474.75 193.01 L476.75 193.38 L478.75 193.73 L480.75 194.06 L482.75 194.36 L484.75 194.65 L486.75 194.92 L488.75 195.17 L490.75 195.39 L492.75 195.60 L494.75 195.79 L496.75 195.95 L498.75 196.10 L500.75 196.23 L502.75 196.34 L504.75 196.43 L506.75 196.50 L508.75 196.55 L510.75 196.58 L512.75 196.60 L514.75 196.59 L516.75 196.57 L518.75 196.54 L520.75 196.48 L522.75 196.41 L524.75 196.32 L526.75 196.22 L528.75 196.11 L530.75 195.97 L532.75 195.83 L534.75 195.67 L536.75 195.50 L538.75 195.31 L540.75 195.11 L542.75 194.90 L544.75 194.68 L546.75 194.45 L548.75 194.21 L550.75 193.96 L552.75 193.70 L554.75 193.43 L556.75 193.16 L558.75 192.87 L560.75 192.58 L562.75 192.29 L564.75 191.99 L566.75 191.68 L568.75 191.37 L570.75 191.05 L572.75 190.74 L574.75 190.42 L576.75 190.09 L578.75 189.77 L580.75 189.44 L582.75 189.12 L584.75 188.79 L586.75 188.47 L588.75 188.15 L590.75 187.83 L592.75 187.51 L594.75 187.19 L596.75 186.88 L598.75 186.57 L600.75 186.26 L602.75 185.96 L604.75 185.67 L606.75 185.38 L608.75 185.09 L610.75 184.81 L612.75 184.54 L614.75 184.28 L616.75 184.02 " style="fill:none;stroke:#000000;stroke-width:1;" /></g></svg>