<?xml version="1.0" standalone="no"?><!DOCTYPE svg PUBLIC "-//W3C//DTD SVG 1.1//EN" "http://www.w3.org/Graphics/SVG/1.1/DTD/svg11.dtd"><svg xmlns="http://www.w3.org/2000/svg" viewBox="0 0 618 368" version="1.1"><clipPath id="box"><rect x="0" y="0" width="618" height="368" style="fill:none;stroke:none;" /></clipPath><g clip-path="url(#box)"><rect x="0.00" y="0.00" width="618.00" height="368.00" style="fill:#FFFFFF;stroke:none;" /><path d="M0.00 332.00 L618.00 332.00 M0.00 275.00 L618.00 275.00 M0.00 217.00 L618.00 217.00 M0.00 160.00 L618.00 160.00 M0.00 102.00 L618.00 102.00 M0.00 44.00 L618.00 44.00 M44.00 0.00 L44.00 368.00 M103.00 0.00 L103.00 368.00 M163.00 0.00 L163.00 368.00 M222.00 0.00 L222.00 368.00 M282.00 0.00 L282.00 368.00 M341.00 0.00 L341.00 368.00 M400.00 0.00 L400.00 368.00 M460.00 0.00 L460.00 368.00 M519.00 0.00 L519.00 368.00 M579.00 0.00 L579.00 368.00 " style="fill:none;stroke:#D0D0D0;stroke-width:1;" /><path d="M282.00 0.00 L282.00 368.00 " style="fill:none;stroke:#000000;stroke-width:1;" /><path d="M275.82 390.00 L288.18 390.00 M275.82 332.50 L288.18 332.50 M275.82 275.00 L288.18 275.00 M275.82 217.50 L288.18 217.50 M275.82 160.00 L288.18 160.00 M275.82 102.50 L288.18 102.50 M275.82 45.00 L288.18 45.00 " style="fill:none;stroke:#000000;stroke-width:1;" /><path d="M0.00 160.00 L618.00 160.00 " style="fill:none;stroke:#000000;stroke-width:1;" /><path d="M-15.12 153.82 L-15.12 166.18 M44.31 153.82 L44.31 166.18 M103.73 153.82 L103.73 166.18 M163.15 153.82 L163.15 166.18 M222.58 153.82 L222.58 166.18 M282.00 153.82 L282.00 166.18 M341.42 153.82 L341.42 166.18 M400.85 153.82 L400.85 166.18 M460.27 153.82 L460.27 166.18 M519.69 153.82 L519.69 166.18 M579.12 153.82 L579.12 166.18 " style="fill:none;stroke:#000000;stroke-width:1;" /><text x="289.7250000000001" y="335.0000000000001" text-anchor="start" style="font:10px Droid Sans,Trebuchet MS,Arial,Helvetica,sans-serif;stroke:none;fill:#000000">-3</text><text x="289.7250000000001" y="277.5000000000001" text-anchor="start" style="font:10px Droid Sans,Trebuchet MS,Arial,Helvetica,sans-serif;stroke:none;fill:#000000">-2</text><text x="289.7250000000001" y="220.00000000000006" text-anchor="start" style="font:10px Droid Sans,Trebuchet MS,Arial,Helvetica,sans-serif;stroke:none;fill:#000000">-1</text><text x="289.7250000000001" y="162.50000000000003" text-anchor="start" style="font:10px Droid Sans,Trebuchet MS,Arial,Helvetica,sans-serif;stroke:none;fill:#000000">0</text><text x="289.7250000000001" y="105" text-anchor="start" style="font:10px Droid Sans,Trebuchet MS,Arial,Helvetica,sans-serif;stroke:none;fill:#000000">1</text><text x="289.7250000000001" y="47.499999999999964" text-anchor="start" style="font:10px Droid Sans,Trebuchet MS,Arial,Helvetica,sans-serif;stroke:none;fill:#000000">2</text><text x="44.30769230769222" y="175.72500000000002" text-anchor="middle" style="font:10px Droid Sans,Trebuchet MS,Arial,Helvetica,sans-serif;stroke:none;fill:#000000">-4</text><text x="103.73076923076917" y="175.72500000000002" text-anchor="middle" style="font:10px Droid Sans,Trebuchet MS,Arial,Helvetica,sans-serif;stroke:none;fill:#000000">-3</text><text x="163.15384615384613" y="175.72500000000002" text-anchor="middle" style="font:10px Droid Sans,Trebuchet MS,Arial,Helvetica,sans-serif;stroke:none;fill:#000000">-2</text><text x="222.5769230769231" y="175.72500000000002" text-anchor="middle" style="font:10px Droid Sans,Trebuchet MS,Arial,Helvetica,sans-serif;stroke:none;fill:#000000">-1</text><text x="282.00000000000006" y="175.72500000000002" text-anchor="middle" style="font:10px Droid Sans,Trebuchet MS,Arial,Helvetica,sans-serif;stroke:none;fill:#000000">0</text><text x="341.423076923077" y="175.72500000000002" text-anchor="middle" style="font:10px Droid Sans,Trebuchet MS,Arial,Helvetica,sans-serif;stroke:none;fill:#000000">1</text><text x="400.8461538461539" y="175.72500000000002" text-anchor="middle" style="font:10px Droid Sans,Trebuchet MS,Arial,Helvetica,sans-serif;stroke:none;fill:#000000">2</text><text x="460.2692307692309" y="175.72500000000002" text-anchor="middle" style="font:10px Droid Sans,Trebuchet MS,Arial,Helvetica,sans-serif;stroke:none;fill:#000000">3</text><text x="519.6923076923078" y="175.72500000000002" text-anchor="middle" style="font:10px Droid Sans,Trebuchet MS,Arial,Helvetica,sans-serif;stroke:none;fill:#000000">4</text><text x="579.1153846153848" y="175.72500000000002" text-anchor="middle" style="font:10px Droid Sans,Trebuchet MS,Arial,Helvetica,sans-serif;stroke:none;fill:#000000">5</text><path d="M70.32 -0.00 L70.32 0.00 L70.72 1.00 L71.13 2.00 L71.53 3.00 L71.94 3.99 L72.35 4.99 L72.75 5.99 L73.16 6.98 L73.57 7.98 L73.98 8.98 L74.40 9.98 L74.81 10.97 L75.23 11.97 L75.64 12.97 L76.06 13.97 L76.48 14.96 L76.90 15.96 L77.32 16.96 L77.74 17.95 L78.16 18.95 L78.59 19.95 L79.02 20.95 L79.44 21.94 L79.87 22.94 L80.30 23.94 L80.73 24.93 L81.16 25.93 L81.60 26.93 L82.03 27.92 L82.47 28.92 L82.91 29.92 L83.35 30.91 L83.79 31.91 L84.23 32.91 L84.67 33.91 L85.12 34.90 L85.56 35.90 L86.01 36.90 L86.46 37.89 L86.91 38.89 L87.36 39.89 L87.81 40.88 L88.27 41.88 L88.72 42.88 L89.18 43.87 L89.64 44.87 L90.10 45.87 L90.57 46.86 L91.03 47.86 L91.50 48.85 L91.96 49.85 L92.43 50.85 L92.90 51.84 L93.38 52.84 L93.85 53.84 L94.33 54.83 L94.81 55.83 L95.29 56.83 L95.77 57.82 L96.25 58.82 L96.74 59.81 L97.22 60.81 L97.71 61.81 L98.20 62.80 L98.70 63.80 L99.19 64.79 L99.69 65.79 L100.19 66.79 L100.69 67.78 L101.19 68.78 L101.69 69.77 L102.20 70.77 L102.71 71.77 L103.22 72.76 L103.73 73.76 L104.25 74.75 L104.77 75.75 L105.29 76.74 L105.81 77.74 L106.34 78.74 L106.86 79.73 L107.39 80.73 L107.92 81.72 L108.46 82.72 L109.00 83.71 L109.53 84.71 L110.08 85.70 L110.62 86.70 L111.17 87.69 L111.72 88.69 L112.27 89.68 L112.83 90.68 L113.38 91.67 L113.95 92.67 L114.51 93.66 L115.08 94.66 L115.65 95.65 L116.22 96.65 L116.79 97.64 L117.37 98.64 L117.96 99.63 L118.54 100.63 L119.13 101.62 L119.72 102.61 L120.32 103.61 L120.92 104.60 L121.52 105.60 L122.12 106.59 L122.73 107.58 L123.35 108.58 L123.96 109.57 L124.58 110.57 L125.21 111.56 L125.84 112.55 L126.47 113.55 L127.11 114.54 L127.75 115.53 L128.39 116.53 L129.04 117.52 L129.70 118.51 L130.36 119.51 L131.02 120.50 L131.69 121.49 L132.36 122.48 L133.04 123.48 L133.72 124.47 L134.41 125.46 L135.11 126.45 L135.80 127.45 L136.51 128.44 L137.22 129.43 L137.94 130.42 L138.66 131.41 L139.39 132.40 L140.12 133.39 L140.86 134.39 L141.61 135.38 L142.37 136.37 L143.13 137.36 L143.90 138.35 L144.68 139.34 L145.46 140.33 L146.25 141.32 L147.05 142.31 L147.86 143.30 L148.68 144.29 L149.50 145.28 L150.34 146.26 L151.19 147.25 L152.04 148.24 L152.91 149.23 L153.78 150.22 L154.67 151.20 L155.57 152.19 L156.48 153.18 L157.40 154.16 L158.34 155.15 L159.29 156.14 L160.25 157.12 L161.23 158.10 L162.22 159.09 L163.23 160.07 L164.25 161.06 L165.30 162.04 L166.36 163.02 L167.44 164.00 L168.55 164.98 L169.67 165.96 L170.82 166.94 L171.99 167.92 L173.19 168.89 L174.42 169.87 L175.68 170.84 L176.97 171.82 L178.30 172.79 L179.67 173.76 L181.08 174.73 L182.53 175.69 L184.04 176.66 L185.60 177.62 L187.23 178.58 L188.92 179.53 L190.70 180.48 L192.58 181.42 L194.56 182.36 L196.56 183.24 L198.56 184.06 L200.56 184.80 L202.56 185.49 L204.56 186.11 L206.56 186.66 L208.56 187.15 L210.56 187.58 L212.56 187.93 L214.56 188.23 L216.56 188.46 L218.56 188.62 L220.56 188.72 L222.56 188.75 L224.56 188.72 L226.56 188.62 L228.56 188.46 L230.56 188.23 L232.56 187.94 L234.56 187.58 L236.56 187.16 L238.56 186.67 L240.56 186.12 L242.56 185.50 L244.56 184.81 L246.56 184.07 L248.56 183.25 L250.56 182.37 L252.56 181.43 L254.56 180.42 L256.55 179.35 L258.41 178.30 L260.17 177.24 L261.84 176.20 L263.44 175.16 L264.97 174.12 L266.45 173.08 L267.87 172.05 L269.25 171.02 L270.58 169.99 L271.88 168.96 L273.14 167.93 L274.37 166.91 L275.57 165.88 L276.74 164.86 L277.89 163.84 L279.01 162.82 L280.11 161.80 L281.19 160.78 L282.25 159.76 L283.29 158.74 L284.31 157.73 L285.31 156.71 L286.30 155.69 L287.27 154.68 L288.22 153.66 L289.17 152.65 L290.09 151.63 L291.01 150.62 L291.91 149.61 L292.81 148.59 L293.69 147.58 L294.55 146.57 L295.41 145.56 L296.26 144.54 L297.10 143.53 L297.93 142.52 L298.75 141.51 L299.56 140.50 L300.36 139.49 L301.15 138.48 L301.94 137.47 L302.72 136.46 L303.49 135.45 L304.25 134.44 L305.00 133.43 L305.75 132.42 L306.49 131.41 L307.23 130.40 L307.96 129.40 L308.68 128.39 L309.40 127.38 L310.11 126.37 L310.81 125.36 L311.51 124.35 L312.20 123.35 L312.89 122.34 L313.57 121.33 L314.25 120.32 L314.92 119.32 L315.59 118.31 L316.25 117.30 L316.91 116.29 L317.56 115.29 L318.21 114.28 L318.86 113.27 L319.50 112.27 L320.13 111.26 L320.77 110.25 L321.39 109.25 L322.02 108.24 L322.64 107.24 L323.25 106.23 L323.86 105.22 L324.47 104.22 L325.08 103.21 L325.68 102.20 L326.27 101.20 L326.87 100.19 L327.46 99.19 L328.05 98.18 L328.63 97.18 L329.21 96.17 L329.79 95.17 L330.36 94.16 L330.93 93.15 L331.50 92.15 L332.07 91.14 L332.63 90.14 L333.19 89.13 L333.75 88.13 L334.30 87.12 L334.85 86.12 L335.40 85.11 L335.94 84.11 L336.49 83.10 L337.03 82.10 L337.57 81.09 L338.10 80.09 L338.63 79.09 L339.16 78.08 L339.69 77.08 L340.22 76.07 L340.74 75.07 L341.26 74.06 L341.78 73.06 L342.30 72.05 L342.81 71.05 L343.32 70.05 L343.83 69.04 L344.34 68.04 L344.84 67.03 L345.35 66.03 L345.85 65.02 L346.35 64.02 L346.85 63.02 L347.34 62.01 L347.83 61.01 L348.33 60.00 L348.81 59.00 L349.30 58.00 L349.79 56.99 L350.27 55.99 L350.75 54.99 L351.23 53.98 L351.71 52.98 L352.19 51.97 L352.66 50.97 L353.14 49.97 L353.61 48.96 L354.08 47.96 L354.54 46.96 L355.01 45.95 L355.47 44.95 L355.94 43.95 L356.40 42.94 L356.86 41.94 L357.32 40.94 L357.77 39.93 L358.23 38.93 L358.68 37.93 L359.13 36.92 L359.58 35.92 L360.03 34.92 L360.48 33.91 L360.93 32.91 L361.37 31.91 L361.81 30.90 L362.26 29.90 L362.70 28.90 L363.14 27.89 L363.57 26.89 L364.01 25.89 L364.44 24.88 L364.88 23.88 L365.31 22.88 L365.74 21.87 L366.17 20.87 L366.60 19.87 L367.03 18.87 L367.45 17.86 L367.88 16.86 L368.30 15.86 L368.72 14.85 L369.14 13.85 L369.56 12.85 L369.98 11.85 L370.40 10.84 L370.81 9.84 L371.23 8.84 L371.64 7.83 L372.05 6.83 L372.47 5.83 L372.88 4.83 L373.29 3.82 L373.69 2.82 L374.10 1.82 L374.51 0.81 L374.91 -0.19 " style="fill:none;stroke:#000000;stroke-width:1;" /><path d="M67.04 368.00 L67.04 368.00 L68.08 367.00 L69.11 366.00 L70.14 365.00 L71.18 364.00 L72.21 363.00 L73.24 362.00 L74.28 361.00 L75.31 360.00 L76.35 359.00 L77.38 358.00 L78.41 357.00 L79.45 356.00 L80.48 355.00 L81.51 354.00 L82.55 353.00 L83.58 352.00 L84.61 351.00 L85.65 350.00 L86.68 349.00 L87.71 348.00 L88.75 347.00 L89.78 346.00 L90.81 345.00 L91.85 344.00 L92.88 343.00 L93.91 342.00 L94.95 341.00 L95.98 340.00 L97.01 339.00 L98.05 338.00 L99.08 337.00 L100.11 336.00 L101.15 335.00 L102.18 334.00 L103.21 333.00 L104.25 332.00 L105.28 331.00 L106.31 330.00 L107.35 329.00 L108.38 328.00 L109.42 327.00 L110.45 326.00 L111.48 325.00 L112.52 324.00 L113.55 323.00 L114.58 322.00 L115.62 321.00 L116.65 320.00 L117.68 319.00 L118.72 318.00 L119.75 317.00 L120.78 316.00 L121.82 315.00 L122.85 314.00 L123.88 313.00 L124.92 312.00 L125.95 311.00 L126.98 310.00 L128.02 309.00 L129.05 308.00 L130.08 307.00 L131.12 306.00 L132.15 305.00 L133.18 304.00 L134.22 303.00 L135.25 302.00 L136.28 301.00 L137.32 300.00 L138.35 299.00 L139.39 298.00 L140.42 297.00 L141.45 296.00 L142.49 295.00 L143.52 294.00 L144.55 293.00 L145.59 292.00 L146.62 291.00 L147.65 290.00 L148.69 289.00 L149.72 288.00 L150.75 287.00 L151.79 286.00 L152.82 285.00 L153.85 284.00 L154.89 283.00 L155.92 282.00 L156.95 281.00 L157.99 280.00 L159.02 279.00 L160.05 278.00 L161.09 277.00 L162.12 276.00 L163.15 275.00 L164.19 274.00 L165.22 273.00 L166.25 272.00 L167.29 271.00 L168.32 270.00 L169.36 269.00 L170.39 268.00 L171.42 267.00 L172.46 266.00 L173.49 265.00 L174.52 264.00 L175.56 263.00 L176.59 262.00 L177.62 261.00 L178.66 260.00 L179.69 259.00 L180.72 258.00 L181.76 257.00 L182.79 256.00 L183.82 255.00 L184.86 254.00 L185.89 253.00 L186.92 252.00 L187.96 251.00 L188.99 250.00 L190.02 249.00 L191.06 248.00 L192.09 247.00 L193.12 246.00 L194.16 245.00 L195.19 244.00 L196.22 243.00 L197.26 242.00 L198.29 241.00 L199.32 240.00 L200.36 239.00 L201.39 238.00 L202.43 237.00 L203.46 236.00 L204.49 235.00 L205.53 234.00 L206.56 233.00 L207.59 232.00 L208.63 231.00 L209.66 230.00 L210.69 229.00 L211.73 228.00 L212.76 227.00 L213.79 226.00 L214.83 225.00 L215.86 224.00 L216.89 223.00 L217.93 222.00 L218.96 221.00 L219.99 220.00 L221.03 219.00 L222.06 218.00 L223.09 217.00 L224.13 216.00 L225.16 215.00 L226.19 214.00 L227.23 213.00 L228.26 212.00 L229.29 211.00 L230.33 210.00 L231.36 209.00 L232.40 208.00 L233.43 207.00 L234.46 206.00 L235.50 205.00 L236.53 204.00 L237.56 203.00 L238.60 202.00 L239.63 201.00 L240.66 200.00 L241.70 199.00 L242.73 198.00 L243.76 197.00 L244.80 196.00 L245.83 195.00 L246.86 194.00 L247.90 193.00 L248.93 192.00 L249.96 191.00 L251.00 190.00 L252.03 189.00 L253.06 188.00 L254.10 187.00 L255.13 186.00 L256.16 185.00 L257.20 184.00 L258.23 183.00 L259.26 182.00 L260.30 181.00 L261.33 180.00 L262.37 179.00 L263.40 178.00 L264.43 177.00 L265.47 176.00 L266.50 175.00 L267.53 174.00 L268.57 173.00 L269.60 172.00 L270.63 171.00 L271.67 170.00 L272.70 169.00 L273.73 168.00 L274.77 167.00 L275.80 166.00 L276.83 165.00 L277.87 164.00 L278.90 163.00 L279.93 162.00 L280.97 161.00 L282.00 160.00 L283.03 159.00 L284.07 158.00 L285.10 157.00 L286.13 156.00 L287.17 155.00 L288.20 154.00 L289.23 153.00 L290.27 152.00 L291.30 151.00 L292.33 150.00 L293.37 149.00 L294.40 148.00 L295.44 147.00 L296.47 146.00 L297.50 145.00 L298.54 144.00 L299.57 143.00 L300.60 142.00 L301.64 141.00 L302.67 140.00 L303.70 139.00 L304.74 138.00 L305.77 137.00 L306.80 136.00 L307.84 135.00 L308.87 134.00 L309.90 133.00 L310.94 132.00 L311.97 131.00 L313.00 130.00 L314.04 129.00 L315.07 128.00 L316.10 127.00 L317.14 126.00 L318.17 125.00 L319.20 124.00 L320.24 123.00 L321.27 122.00 L322.30 121.00 L323.34 120.00 L324.37 119.00 L325.41 118.00 L326.44 117.00 L327.47 116.00 L328.51 115.00 L329.54 114.00 L330.57 113.00 L331.61 112.00 L332.64 111.00 L333.67 110.00 L334.71 109.00 L335.74 108.00 L336.77 107.00 L337.81 106.00 L338.84 105.00 L339.87 104.00 L340.91 103.00 L341.94 102.00 L342.97 101.00 L344.01 100.00 L345.04 99.00 L346.07 98.00 L347.11 97.00 L348.14 96.00 L349.17 95.00 L350.21 94.00 L351.24 93.00 L352.27 92.00 L353.31 91.00 L354.34 90.00 L355.38 89.00 L356.41 88.00 L357.44 87.00 L358.48 86.00 L359.51 85.00 L360.54 84.00 L361.58 83.00 L362.61 82.00 L363.64 81.00 L364.68 80.00 L365.71 79.00 L366.74 78.00 L367.78 77.00 L368.81 76.00 L369.84 75.00 L370.88 74.00 L371.91 73.00 L372.94 72.00 L373.98 71.00 L375.01 70.00 L376.04 69.00 L377.08 68.00 L378.11 67.00 L379.14 66.00 L380.18 65.00 L381.21 64.00 L382.24 63.00 L383.28 62.00 L384.31 61.00 L385.35 60.00 L386.38 59.00 L387.41 58.00 L388.45 57.00 L389.48 56.00 L390.51 55.00 L391.55 54.00 L392.58 53.00 L393.61 52.00 L394.65 51.00 L395.68 50.00 L396.71 49.00 L397.75 48.00 L398.78 47.00 L399.81 46.00 L400.85 45.00 L401.88 44.00 L402.91 43.00 L403.95 42.00 L404.98 41.00 L406.01 40.00 L407.05 39.00 L408.08 38.00 L409.11 37.00 L410.15 36.00 L411.18 35.00 L412.21 34.00 L413.25 33.00 L414.28 32.00 L415.31 31.00 L416.35 30.00 L417.38 29.00 L418.42 28.00 L419.45 27.00 L420.48 26.00 L421.52 25.00 L422.55 24.00 L423.58 23.00 L424.62 22.00 L425.65 21.00 L426.68 20.00 L427.72 19.00 L428.75 18.00 L429.78 17.00 L430.82 16.00 L431.85 15.00 L432.88 14.00 L433.92 13.00 L434.95 12.00 L435.98 11.00 L437.02 10.00 L438.05 9.00 L439.08 8.00 L440.12 7.00 L441.15 6.00 L442.18 5.00 L443.22 4.00 L444.25 3.00 L445.28 2.00 L446.32 1.00 L447.35 -0.00 " style="fill:none;stroke:#000000;stroke-width:1;" /></g></svg>