<?xml version="1.0" standalone="no"?><!DOCTYPE svg PUBLIC "-//W3C//DTD SVG 1.1//EN" "http://www.w3.org/Graphics/SVG/1.1/DTD/svg11.dtd"><svg xmlns="http://www.w3.org/2000/svg" viewBox="0 0 618 368" version="1.1"><clipPath id="box"><rect x="0" y="0" width="618" height="368" style="fill:none;stroke:none;" /></clipPath><g clip-path="url(#box)"><rect x="0.00" y="0.00" width="618.00" height="368.00" style="fill:#FFFFFF;stroke:none;" /><path d="M0.00 352.00 L618.00 352.00 M0.00 307.00 L618.00 307.00 M0.00 262.00 L618.00 262.00 M0.00 217.00 L618.00 217.00 M0.00 172.00 L618.00 172.00 M0.00 127.00 L618.00 127.00 M0.00 83.00 L618.00 83.00 M0.00 38.00 L618.00 38.00 M32.00 0.00 L32.00 368.00 M79.00 0.00 L79.00 368.00 M125.00 0.00 L125.00 368.00 M172.00 0.00 L172.00 368.00 M218.00 0.00 L218.00 368.00 M264.00 0.00 L264.00 368.00 M311.00 0.00 L311.00 368.00 M357.00 0.00 L357.00 368.00 M404.00 0.00 L404.00 368.00 M450.00 0.00 L450.00 368.00 M497.00 0.00 L497.00 368.00 M543.00 0.00 L543.00 368.00 M589.00 0.00 L589.00 368.00 " style="fill:none;stroke:#D0D0D0;stroke-width:1;" /><path d="M311.34 0.00 L311.34 368.00 " style="fill:none;stroke:#000000;stroke-width:1;" /><path d="M305.16 397.48 L317.52 397.48 M305.16 352.56 L317.52 352.56 M305.16 307.64 L317.52 307.64 M305.16 262.71 L317.52 262.71 M305.16 217.79 L317.52 217.79 M305.16 172.87 L317.52 172.87 M305.16 127.95 L317.52 127.95 M305.16 83.03 L317.52 83.03 M305.16 38.10 L317.52 38.10 " style="fill:none;stroke:#000000;stroke-width:1;" /><path d="M0.00 172.87 L618.00 172.87 " style="fill:none;stroke:#000000;stroke-width:1;" /><path d="M-13.63 166.69 L-13.63 179.05 M32.79 166.69 L32.79 179.05 M79.22 166.69 L79.22 179.05 M125.64 166.69 L125.64 179.05 M172.07 166.69 L172.07 179.05 M218.49 166.69 L218.49 179.05 M264.91 166.69 L264.91 179.05 M311.34 166.69 L311.34 179.05 M357.76 166.69 L357.76 179.05 M404.19 166.69 L404.19 179.05 M450.61 166.69 L450.61 179.05 M497.04 166.69 L497.04 179.05 M543.46 166.69 L543.46 179.05 M589.88 166.69 L589.88 179.05 " style="fill:none;stroke:#000000;stroke-width:1;" /><text x="319.0630393395211" y="355.05802630492474" text-anchor="start" style="font:10px Droid Sans,Trebuchet MS,Arial,Helvetica,sans-serif;stroke:none;fill:#000000">-2</text><text x="319.0630393395211" y="310.13615130492457" text-anchor="start" style="font:10px Droid Sans,Trebuchet MS,Arial,Helvetica,sans-serif;stroke:none;fill:#000000">-1.5</text><text x="319.0630393395211" y="265.2142763049244" text-anchor="start" style="font:10px Droid Sans,Trebuchet MS,Arial,Helvetica,sans-serif;stroke:none;fill:#000000">-1</text><text x="319.0630393395211" y="220.29240130492423" text-anchor="start" style="font:10px Droid Sans,Trebuchet MS,Arial,Helvetica,sans-serif;stroke:none;fill:#000000">-0.5</text><text x="319.0630393395211" y="175.37052630492406" text-anchor="start" style="font:10px Droid Sans,Trebuchet MS,Arial,Helvetica,sans-serif;stroke:none;fill:#000000">0</text><text x="319.0630393395211" y="130.44865130492389" text-anchor="start" style="font:10px Droid Sans,Trebuchet MS,Arial,Helvetica,sans-serif;stroke:none;fill:#000000">0.5</text><text x="319.0630393395211" y="85.52677630492371" text-anchor="start" style="font:10px Droid Sans,Trebuchet MS,Arial,Helvetica,sans-serif;stroke:none;fill:#000000">1</text><text x="319.0630393395211" y="40.60490130492353" text-anchor="start" style="font:10px Droid Sans,Trebuchet MS,Arial,Helvetica,sans-serif;stroke:none;fill:#000000">1.5</text><text x="32.79236626259695" y="188.59552630492405" text-anchor="middle" style="font:10px Droid Sans,Trebuchet MS,Arial,Helvetica,sans-serif;stroke:none;fill:#000000">-3</text><text x="79.21664510875097" y="188.59552630492405" text-anchor="middle" style="font:10px Droid Sans,Trebuchet MS,Arial,Helvetica,sans-serif;stroke:none;fill:#000000">-2.5</text><text x="125.64092395490498" y="188.59552630492405" text-anchor="middle" style="font:10px Droid Sans,Trebuchet MS,Arial,Helvetica,sans-serif;stroke:none;fill:#000000">-2</text><text x="172.06520280105897" y="188.59552630492405" text-anchor="middle" style="font:10px Droid Sans,Trebuchet MS,Arial,Helvetica,sans-serif;stroke:none;fill:#000000">-1.5</text><text x="218.48948164721304" y="188.59552630492405" text-anchor="middle" style="font:10px Droid Sans,Trebuchet MS,Arial,Helvetica,sans-serif;stroke:none;fill:#000000">-1</text><text x="264.913760493367" y="188.59552630492405" text-anchor="middle" style="font:10px Droid Sans,Trebuchet MS,Arial,Helvetica,sans-serif;stroke:none;fill:#000000">-0.5</text><text x="311.33803933952106" y="188.59552630492405" text-anchor="middle" style="font:10px Droid Sans,Trebuchet MS,Arial,Helvetica,sans-serif;stroke:none;fill:#000000">0</text><text x="357.76231818567504" y="188.59552630492405" text-anchor="middle" style="font:10px Droid Sans,Trebuchet MS,Arial,Helvetica,sans-serif;stroke:none;fill:#000000">0.5</text><text x="404.1865970318291" y="188.59552630492405" text-anchor="middle" style="font:10px Droid Sans,Trebuchet MS,Arial,Helvetica,sans-serif;stroke:none;fill:#000000">1</text><text x="450.61087587798306" y="188.59552630492405" text-anchor="middle" style="font:10px Droid Sans,Trebuchet MS,Arial,Helvetica,sans-serif;stroke:none;fill:#000000">1.5</text><text x="497.0351547241371" y="188.59552630492405" text-anchor="middle" style="font:10px Droid Sans,Trebuchet MS,Arial,Helvetica,sans-serif;stroke:none;fill:#000000">2</text><text x="543.4594335702911" y="188.59552630492405" text-anchor="middle" style="font:10px Droid Sans,Trebuchet MS,Arial,Helvetica,sans-serif;stroke:none;fill:#000000">2.5</text><text x="589.8837124164451" y="188.59552630492405" text-anchor="middle" style="font:10px Droid Sans,Trebuchet MS,Arial,Helvetica,sans-serif;stroke:none;fill:#000000">3</text><path d="M404.19 172.87 L404.19 172.87 L404.17 171.97 L404.13 171.07 L404.06 170.18 L403.96 169.28 L403.84 168.39 L403.69 167.50 L403.50 166.62 L403.30 165.74 L403.06 164.86 L402.80 163.99 L402.51 163.13 L402.19 162.27 L401.84 161.42 L401.47 160.58 L401.07 159.75 L400.64 158.92 L400.19 158.11 L399.71 157.31 L399.20 156.52 L398.67 155.74 L398.11 154.97 L397.53 154.22 L396.91 153.48 L396.28 152.76 L395.61 152.05 L394.93 151.35 L394.21 150.68 L393.47 150.02 L392.71 149.37 L391.92 148.75 L391.11 148.14 L390.27 147.56 L389.41 146.99 L388.53 146.45 L387.62 145.93 L386.68 145.43 L385.73 144.95 L384.75 144.50 L383.75 144.07 L382.72 143.67 L381.67 143.29 L380.60 142.94 L379.51 142.62 L378.39 142.32 L377.25 142.06 L376.09 141.83 L374.91 141.62 L373.71 141.45 L372.48 141.31 L371.23 141.21 L369.96 141.14 L368.67 141.11 L367.35 141.11 L366.01 141.16 L364.65 141.24 L363.26 141.37 L361.85 141.54 L360.42 141.76 L358.96 142.02 L357.47 142.33 L355.95 142.70 L354.40 143.12 L352.83 143.60 L351.22 144.14 L349.57 144.75 L347.88 145.43 L346.15 146.19 L344.36 147.03 L342.52 147.97 L340.62 149.01 L338.63 150.17 L336.55 151.48 L334.34 152.95 L331.98 154.63 L329.41 156.58 L326.50 158.92 L323.03 161.90 L318.20 166.31 L305.59 167.35 L300.28 162.46 L296.68 159.34 L293.71 156.93 L291.09 154.92 L288.70 153.20 L286.47 151.70 L284.37 150.37 L282.37 149.19 L280.45 148.12 L278.60 147.17 L276.81 146.31 L275.07 145.54 L273.37 144.85 L271.72 144.23 L270.10 143.68 L268.52 143.19 L266.97 142.76 L265.45 142.39 L263.96 142.07 L262.49 141.80 L261.05 141.57 L259.64 141.39 L258.25 141.26 L256.88 141.17 L255.54 141.12 L254.22 141.11 L252.92 141.13 L251.65 141.20 L250.39 141.29 L249.16 141.43 L247.95 141.59 L246.77 141.79 L245.61 142.02 L244.46 142.28 L243.34 142.57 L242.25 142.89 L241.17 143.23 L240.12 143.61 L239.09 144.00 L238.09 144.43 L237.10 144.88 L236.14 145.35 L235.21 145.85 L234.29 146.37 L233.41 146.91 L232.54 147.47 L231.70 148.05 L230.88 148.65 L230.09 149.27 L229.32 149.91 L228.58 150.57 L227.86 151.25 L227.17 151.94 L226.50 152.64 L225.86 153.37 L225.25 154.10 L224.66 154.85 L224.09 155.62 L223.56 156.39 L223.04 157.18 L222.56 157.98 L222.10 158.79 L221.67 159.62 L221.27 160.45 L220.89 161.29 L220.54 162.13 L220.22 162.99 L219.92 163.85 L219.66 164.72 L219.42 165.60 L219.20 166.48 L219.02 167.36 L218.86 168.25 L218.73 169.14 L218.63 170.04 L218.55 170.93 L218.51 171.83 L218.49 172.73 L218.50 173.63 L218.54 174.52 L218.60 175.42 L218.69 176.32 L218.82 177.21 L218.96 178.10 L219.14 178.98 L219.34 179.86 L219.58 180.74 L219.83 181.61 L220.12 182.48 L220.44 183.33 L220.78 184.19 L221.14 185.03 L221.54 185.86 L221.96 186.69 L222.41 187.50 L222.89 188.30 L223.39 189.10 L223.92 189.88 L224.47 190.65 L225.06 191.40 L225.66 192.14 L226.30 192.87 L226.95 193.58 L227.64 194.28 L228.35 194.96 L229.08 195.62 L229.84 196.27 L230.63 196.89 L231.44 197.50 L232.27 198.09 L233.13 198.66 L234.01 199.21 L234.91 199.73 L235.84 200.23 L236.80 200.72 L237.77 201.17 L238.77 201.60 L239.79 202.01 L240.84 202.39 L241.90 202.75 L242.99 203.07 L244.10 203.37 L245.24 203.64 L246.40 203.88 L247.57 204.09 L248.78 204.26 L250.00 204.41 L251.24 204.52 L252.51 204.59 L253.80 204.63 L255.11 204.63 L256.45 204.59 L257.81 204.51 L259.19 204.39 L260.60 204.23 L262.03 204.02 L263.49 203.77 L264.97 203.46 L266.48 203.10 L268.02 202.69 L269.60 202.22 L271.20 201.69 L272.84 201.09 L274.53 200.43 L276.25 199.68 L278.03 198.85 L279.86 197.93 L281.75 196.91 L283.72 195.76 L285.79 194.48 L287.97 193.04 L290.30 191.40 L292.84 189.49 L295.68 187.22 L299.03 184.38 L303.52 180.33 L315.72 177.09 L321.72 182.68 L325.48 185.96 L328.52 188.46 L331.19 190.52 L333.61 192.28 L335.86 193.82 L337.98 195.17 L339.99 196.38 L341.92 197.45 L343.78 198.42 L345.58 199.30 L347.33 200.08 L349.03 200.78 L350.69 201.41 L352.32 201.98 L353.91 202.47 L355.46 202.91 L356.99 203.30 L358.48 203.63 L359.95 203.91 L361.40 204.14 L362.82 204.32 L364.21 204.46 L365.58 204.56 L366.93 204.62 L368.25 204.64 L369.55 204.61 L370.83 204.56 L372.09 204.46 L373.32 204.34 L374.53 204.18 L375.72 203.98 L376.89 203.76 L378.03 203.50 L379.15 203.22 L380.26 202.91 L381.33 202.56 L382.39 202.20 L383.42 201.80 L384.43 201.38 L385.42 200.94 L386.38 200.47 L387.32 199.97 L388.24 199.46 L389.13 198.92 L390.00 198.36 L390.84 197.79 L391.67 197.19 L392.46 196.57 L393.23 195.93 L393.98 195.28 L394.70 194.60 L395.40 193.92 L396.07 193.21 L396.71 192.49 L397.33 191.76 L397.93 191.01 L398.50 190.25 L399.04 189.47 L399.55 188.68 L400.04 187.89 L400.50 187.08 L400.94 186.26 L401.35 185.43 L401.73 184.59 L402.08 183.74 L402.41 182.89 L402.71 182.03 L402.98 181.16 L403.22 180.28 L403.44 179.40 L403.63 178.52 L403.79 177.63 L403.93 176.74 L404.03 175.85 L404.11 174.95 L404.16 174.05 L404.19 173.16 " style="fill:none;stroke:#0080cc;stroke-width:1;" /></g></svg>