<?xml version="1.0" standalone="no"?><!DOCTYPE svg PUBLIC "-//W3C//DTD SVG 1.1//EN" "http://www.w3.org/Graphics/SVG/1.1/DTD/svg11.dtd"><svg xmlns="http://www.w3.org/2000/svg" viewBox="0 0 650 400" version="1.1"><clipPath id="box"><rect x="0" y="0" width="650" height="400" style="fill:none;stroke:none;" /></clipPath><g clip-path="url(#box)"><rect x="0.00" y="0.00" width="650.00" height="400.00" style="fill:#FFFFFF;stroke:none;" /><path d="M0.00 370.00 L650.00 370.00 M0.00 309.00 L650.00 309.00 M0.00 248.00 L650.00 248.00 M0.00 187.00 L650.00 187.00 M0.00 126.00 L650.00 126.00 M0.00 65.00 L650.00 65.00 M0.00 4.00 L650.00 4.00 M6.00 0.00 L6.00 400.00 M67.00 0.00 L67.00 400.00 M128.00 0.00 L128.00 400.00 M189.00 0.00 L189.00 400.00 M250.00 0.00 L250.00 400.00 M311.00 0.00 L311.00 400.00 M372.00 0.00 L372.00 400.00 M433.00 0.00 L433.00 400.00 M494.00 0.00 L494.00 400.00 M555.00 0.00 L555.00 400.00 M616.00 0.00 L616.00 400.00 " style="fill:none;stroke:#D0D0D0;stroke-width:1;" /><path d="M189.75 0.00 L189.75 400.00 " style="fill:none;stroke:#000000;stroke-width:1;" /><path d="M183.25 431.39 L196.25 431.39 M183.25 370.36 L196.25 370.36 M183.25 309.32 L196.25 309.32 M183.25 248.29 L196.25 248.29 M183.25 187.25 L196.25 187.25 M183.25 126.21 L196.25 126.21 M183.25 65.18 L196.25 65.18 M183.25 4.14 L196.25 4.14 " style="fill:none;stroke:#000000;stroke-width:1;" /><path d="M0.00 187.25 L650.00 187.25 " style="fill:none;stroke:#000000;stroke-width:1;" /><path d="M-54.39 180.75 L-54.39 193.75 M6.64 180.75 L6.64 193.75 M67.68 180.75 L67.68 193.75 M128.71 180.75 L128.71 193.75 M189.75 180.75 L189.75 193.75 M250.79 180.75 L250.79 193.75 M311.82 180.75 L311.82 193.75 M372.86 180.75 L372.86 193.75 M433.89 180.75 L433.89 193.75 M494.93 180.75 L494.93 193.75 M555.96 180.75 L555.96 193.75 M617.00 180.75 L617.00 193.75 " style="fill:none;stroke:#000000;stroke-width:1;" /><text x="197.87499999999994" y="372.85546875000006" text-anchor="start" style="font:10px Droid Sans,Trebuchet MS,Arial,Helvetica,sans-serif;stroke:none;fill:#000000">-1.5</text><text x="197.87499999999994" y="311.8203125" text-anchor="start" style="font:10px Droid Sans,Trebuchet MS,Arial,Helvetica,sans-serif;stroke:none;fill:#000000">-1</text><text x="197.87499999999994" y="250.78515625" text-anchor="start" style="font:10px Droid Sans,Trebuchet MS,Arial,Helvetica,sans-serif;stroke:none;fill:#000000">-0.5</text><text x="197.87499999999994" y="189.74999999999997" text-anchor="start" style="font:10px Droid Sans,Trebuchet MS,Arial,Helvetica,sans-serif;stroke:none;fill:#000000">0</text><text x="197.87499999999994" y="128.71484374999991" text-anchor="start" style="font:10px Droid Sans,Trebuchet MS,Arial,Helvetica,sans-serif;stroke:none;fill:#000000">0.5</text><text x="197.87499999999994" y="67.6796874999999" text-anchor="start" style="font:10px Droid Sans,Trebuchet MS,Arial,Helvetica,sans-serif;stroke:none;fill:#000000">1</text><text x="67.67968749999987" y="203.37499999999997" text-anchor="middle" style="font:10px Droid Sans,Trebuchet MS,Arial,Helvetica,sans-serif;stroke:none;fill:#000000">-1</text><text x="128.71484374999991" y="203.37499999999997" text-anchor="middle" style="font:10px Droid Sans,Trebuchet MS,Arial,Helvetica,sans-serif;stroke:none;fill:#000000">-0.5</text><text x="189.74999999999994" y="203.37499999999997" text-anchor="middle" style="font:10px Droid Sans,Trebuchet MS,Arial,Helvetica,sans-serif;stroke:none;fill:#000000">0</text><text x="250.78515625" y="203.37499999999997" text-anchor="middle" style="font:10px Droid Sans,Trebuchet MS,Arial,Helvetica,sans-serif;stroke:none;fill:#000000">0.5</text><text x="311.8203125" y="203.37499999999997" text-anchor="middle" style="font:10px Droid Sans,Trebuchet MS,Arial,Helvetica,sans-serif;stroke:none;fill:#000000">1</text><text x="372.8554687500001" y="203.37499999999997" text-anchor="middle" style="font:10px Droid Sans,Trebuchet MS,Arial,Helvetica,sans-serif;stroke:none;fill:#000000">1.5</text><text x="433.8906250000001" y="203.37499999999997" text-anchor="middle" style="font:10px Droid Sans,Trebuchet MS,Arial,Helvetica,sans-serif;stroke:none;fill:#000000">2</text><text x="494.9257812500002" y="203.37499999999997" text-anchor="middle" style="font:10px Droid Sans,Trebuchet MS,Arial,Helvetica,sans-serif;stroke:none;fill:#000000">2.5</text><text x="555.9609375000002" y="203.37499999999997" text-anchor="middle" style="font:10px Droid Sans,Trebuchet MS,Arial,Helvetica,sans-serif;stroke:none;fill:#000000">3</text><text x="616.9960937500002" y="203.37499999999997" text-anchor="middle" style="font:10px Droid Sans,Trebuchet MS,Arial,Helvetica,sans-serif;stroke:none;fill:#000000">3.5</text><path d="M433.89 187.25 L433.89 187.25 L433.87 184.81 L433.82 182.37 L433.73 179.93 L433.60 177.49 L433.43 175.06 L433.23 172.62 L432.99 170.20 L432.72 167.77 L432.41 165.35 L432.06 162.94 L431.68 160.53 L431.26 158.13 L430.81 155.73 L430.32 153.35 L429.79 150.97 L429.23 148.60 L428.64 146.24 L428.01 143.89 L427.34 141.56 L426.64 139.23 L425.90 136.92 L425.13 134.61 L424.33 132.32 L423.49 130.05 L422.62 127.79 L421.72 125.54 L420.78 123.31 L419.81 121.09 L418.81 118.89 L417.78 116.71 L416.71 114.55 L415.61 112.40 L414.49 110.27 L413.33 108.16 L412.14 106.07 L410.92 104.00 L409.67 101.95 L408.39 99.92 L407.08 97.92 L405.74 95.93 L404.38 93.97 L402.98 92.03 L401.56 90.11 L400.12 88.21 L398.64 86.34 L397.14 84.50 L395.62 82.68 L394.07 80.88 L392.49 79.11 L390.89 77.37 L389.27 75.65 L387.62 73.96 L385.95 72.30 L384.25 70.66 L382.54 69.05 L380.80 67.47 L379.04 65.92 L377.27 64.40 L375.47 62.90 L373.65 61.44 L371.81 60.00 L369.96 58.60 L368.09 57.22 L366.20 55.88 L364.29 54.56 L362.37 53.28 L360.43 52.03 L358.47 50.81 L356.51 49.62 L354.52 48.46 L352.53 47.34 L350.52 46.24 L348.50 45.18 L346.46 44.16 L344.42 43.16 L342.37 42.20 L340.30 41.27 L338.23 40.37 L336.14 39.50 L334.05 38.67 L331.95 37.87 L329.84 37.11 L327.73 36.38 L325.61 35.68 L323.49 35.01 L321.36 34.38 L319.22 33.78 L317.08 33.22 L314.94 32.69 L312.80 32.19 L310.65 31.73 L308.50 31.29 L306.36 30.90 L304.21 30.53 L302.06 30.20 L299.91 29.90 L297.77 29.63 L295.62 29.40 L293.48 29.20 L291.34 29.03 L289.21 28.90 L287.07 28.79 L284.95 28.72 L282.83 28.68 L280.71 28.68 L278.60 28.70 L276.50 28.76 L274.40 28.85 L272.32 28.96 L270.24 29.11 L268.17 29.29 L266.11 29.50 L264.05 29.74 L262.01 30.01 L259.98 30.31 L257.96 30.64 L255.96 31.00 L253.96 31.39 L251.98 31.80 L250.01 32.25 L248.06 32.72 L246.11 33.22 L244.19 33.75 L242.28 34.30 L240.38 34.88 L238.50 35.49 L236.63 36.12 L234.78 36.77 L232.95 37.46 L231.14 38.16 L229.34 38.90 L227.56 39.65 L225.80 40.43 L224.06 41.23 L222.34 42.06 L220.64 42.91 L218.95 43.77 L217.29 44.67 L215.65 45.58 L214.02 46.51 L212.42 47.46 L210.84 48.44 L209.28 49.43 L207.75 50.44 L206.23 51.47 L204.74 52.51 L203.27 53.58 L201.82 54.66 L200.40 55.76 L199.00 56.87 L197.62 58.00 L196.26 59.15 L194.93 60.31 L193.62 61.48 L192.34 62.67 L191.08 63.87 L189.85 65.08 L188.64 66.31 L187.45 67.55 L186.29 68.79 L185.15 70.05 L184.04 71.32 L182.95 72.60 L181.89 73.89 L180.86 75.19 L179.84 76.50 L178.86 77.81 L177.90 79.13 L176.96 80.46 L176.05 81.79 L175.16 83.13 L174.30 84.48 L173.47 85.83 L172.66 87.19 L171.87 88.54 L171.11 89.91 L170.37 91.27 L169.66 92.64 L168.98 94.01 L168.32 95.38 L167.68 96.75 L167.07 98.13 L166.48 99.50 L165.92 100.87 L165.38 102.25 L164.87 103.62 L164.37 104.99 L163.91 106.35 L163.46 107.72 L163.04 109.08 L162.65 110.44 L162.27 111.79 L161.92 113.14 L161.60 114.49 L161.29 115.83 L161.01 117.16 L160.75 118.49 L160.51 119.82 L160.29 121.13 L160.09 122.44 L159.92 123.75 L159.76 125.04 L159.63 126.33 L159.51 127.60 L159.42 128.87 L159.34 130.13 L159.29 131.38 L159.25 132.62 L159.23 133.85 L159.24 135.07 L159.25 136.28 L159.29 137.48 L159.35 138.67 L159.42 139.84 L159.51 141.01 L159.61 142.16 L159.73 143.30 L159.87 144.42 L160.02 145.54 L160.19 146.64 L160.37 147.72 L160.57 148.80 L160.78 149.86 L161.00 150.90 L161.24 151.93 L161.49 152.95 L161.75 153.95 L162.02 154.94 L162.31 155.91 L162.61 156.87 L162.92 157.81 L163.23 158.74 L163.56 159.65 L163.90 160.55 L164.25 161.43 L164.61 162.30 L164.97 163.14 L165.34 163.98 L165.72 164.80 L166.11 165.60 L166.51 166.38 L166.91 167.15 L167.32 167.90 L167.73 168.64 L168.15 169.36 L168.57 170.07 L169.00 170.75 L169.43 171.43 L169.86 172.08 L170.30 172.72 L170.74 173.35 L171.19 173.95 L171.63 174.55 L172.08 175.12 L172.53 175.68 L172.98 176.22 L173.43 176.75 L173.88 177.27 L174.33 177.76 L174.78 178.24 L175.23 178.71 L175.68 179.16 L176.12 179.60 L176.57 180.02 L177.01 180.43 L177.44 180.82 L177.88 181.20 L178.31 181.56 L178.74 181.91 L179.16 182.25 L179.58 182.57 L180.00 182.88 L180.41 183.17 L180.81 183.45 L181.21 183.72 L181.60 183.98 L181.99 184.22 L182.37 184.46 L182.74 184.68 L183.10 184.89 L183.46 185.09 L183.81 185.27 L184.15 185.45 L184.49 185.61 L184.81 185.77 L185.13 185.91 L185.44 186.05 L185.74 186.18 L186.03 186.29 L186.31 186.40 L186.58 186.50 L186.84 186.59 L187.09 186.68 L187.33 186.76 L187.56 186.82 L187.78 186.89 L187.98 186.94 L188.18 186.99 L188.37 187.04 L188.54 187.08 L188.70 187.11 L188.86 187.14 L189.00 187.17 L189.12 187.19 L189.24 187.20 L189.35 187.22 L189.44 187.23 L189.52 187.24 L189.59 187.24 L189.64 187.25 L189.69 187.25 L189.72 187.25 L189.74 187.25 L189.75 187.25 L189.75 187.25 L189.73 187.25 L189.70 187.25 L189.66 187.25 L189.61 187.26 L189.54 187.26 L189.47 187.27 L189.38 187.28 L189.28 187.29 L189.16 187.31 L189.04 187.33 L188.90 187.35 L188.75 187.38 L188.59 187.41 L188.42 187.45 L188.24 187.49 L188.05 187.54 L187.84 187.59 L187.63 187.65 L187.40 187.72 L187.17 187.80 L186.92 187.88 L186.66 187.97 L186.39 188.07 L186.12 188.17 L185.83 188.29 L185.54 188.41 L185.23 188.54 L184.92 188.68 L184.59 188.84 L184.26 189.00 L183.92 189.17 L183.57 189.35 L183.22 189.55 L182.86 189.75 L182.49 189.97 L182.11 190.20 L181.72 190.44 L181.33 190.69 L180.94 190.96 L180.54 191.24 L180.13 191.53 L179.72 191.83 L179.30 192.15 L178.88 192.48 L178.45 192.83 L178.02 193.19 L177.58 193.56 L177.15 193.95 L176.71 194.35 L176.26 194.77 L175.82 195.20 L175.37 195.64 L174.92 196.11 L174.47 196.58 L174.02 197.07 L173.57 197.58 L173.12 198.11 L172.67 198.64 L172.22 199.20 L171.78 199.77 L171.33 200.36 L170.89 200.96 L170.44 201.58 L170.00 202.21 L169.57 202.86 L169.13 203.53 L168.71 204.21 L168.28 204.91 L167.86 205.63 L167.45 206.36 L167.04 207.11 L166.63 207.87 L166.24 208.65 L165.85 209.45 L165.46 210.26 L165.09 211.09 L164.72 211.93 L164.36 212.79 L164.01 213.67 L163.67 214.56 L163.34 215.47 L163.02 216.39 L162.70 217.33 L162.40 218.28 L162.11 219.25 L161.84 220.23 L161.57 221.23 L161.32 222.24 L161.07 223.27 L160.85 224.31 L160.63 225.36 L160.43 226.43 L160.24 227.51 L160.07 228.61 L159.92 229.72 L159.77 230.84 L159.65 231.98 L159.54 233.12 L159.44 234.28 L159.37 235.46 L159.31 236.64 L159.26 237.83 L159.24 239.04 L159.23 240.26 L159.24 241.48 L159.27 242.72 L159.32 243.97 L159.39 245.22 L159.48 246.49 L159.59 247.77 L159.72 249.05 L159.86 250.34 L160.03 251.64 L160.22 252.95 L160.43 254.26 L160.67 255.58 L160.92 256.91 L161.20 258.24 L161.50 259.58 L161.82 260.93 L162.16 262.28 L162.53 263.63 L162.92 264.99 L163.33 266.35 L163.76 267.71 L164.22 269.08 L164.71 270.45 L165.21 271.82 L165.74 273.19 L166.30 274.56 L166.88 275.94 L167.48 277.31 L168.11 278.68 L168.76 280.05 L169.44 281.42 L170.14 282.79 L170.87 284.16 L171.62 285.52 L172.40 286.88 L173.20 288.24 L174.03 289.59 L174.89 290.94 L175.76 292.28 L176.67 293.62 L177.59 294.95 L178.55 296.27 L179.53 297.59 L180.53 298.89 L181.56 300.19 L182.61 301.49 L183.69 302.77 L184.80 304.04 L185.92 305.31 L187.08 306.56 L188.26 307.80 L189.46 309.03 L190.69 310.25 L191.94 311.45 L193.21 312.64 L194.51 313.82 L195.84 314.99 L197.18 316.13 L198.55 317.27 L199.95 318.39 L201.37 319.49 L202.81 320.58 L204.27 321.65 L205.75 322.70 L207.26 323.74 L208.79 324.75 L210.34 325.75 L211.92 326.73 L213.51 327.69 L215.13 328.63 L216.76 329.55 L218.42 330.44 L220.10 331.32 L221.79 332.17 L223.51 333.01 L225.25 333.82 L227.00 334.60 L228.77 335.37 L230.56 336.11 L232.37 336.82 L234.20 337.51 L236.04 338.18 L237.90 338.82 L239.78 339.43 L241.67 340.02 L243.58 340.58 L245.50 341.12 L247.44 341.62 L249.39 342.10 L251.35 342.56 L253.33 342.98 L255.32 343.38 L257.32 343.75 L259.34 344.08 L261.37 344.39 L263.40 344.67 L265.45 344.92 L267.51 345.14 L269.58 345.33 L271.65 345.49 L273.74 345.62 L275.83 345.72 L277.93 345.78 L280.04 345.82 L282.15 345.82 L284.27 345.79 L286.40 345.73 L288.53 345.64 L290.66 345.51 L292.80 345.36 L294.94 345.17 L297.08 344.94 L299.23 344.69 L301.38 344.40 L303.52 344.08 L305.67 343.72 L307.82 343.34 L309.97 342.92 L312.11 342.46 L314.26 341.97 L316.40 341.45 L318.54 340.90 L320.68 340.31 L322.81 339.69 L324.93 339.04 L327.06 338.35 L329.17 337.63 L331.28 336.87 L333.38 336.08 L335.48 335.26 L337.56 334.41 L339.64 333.52 L341.71 332.60 L343.77 331.65 L345.81 330.67 L347.85 329.65 L349.88 328.60 L351.89 327.51 L353.89 326.40 L355.88 325.25 L357.85 324.07 L359.81 322.86 L361.75 321.62 L363.68 320.35 L365.59 319.04 L367.49 317.71 L369.36 316.34 L371.23 314.95 L373.07 313.52 L374.89 312.07 L376.70 310.58 L378.48 309.07 L380.24 307.53 L381.99 305.96 L383.71 304.36 L385.41 302.73 L387.09 301.07 L388.74 299.39 L390.37 297.68 L391.98 295.95 L393.57 294.19 L395.13 292.40 L396.66 290.59 L398.17 288.75 L399.65 286.89 L401.11 285.00 L402.54 283.09 L403.94 281.15 L405.31 279.20 L406.66 277.22 L407.97 275.22 L409.26 273.20 L410.52 271.15 L411.75 269.09 L412.95 267.01 L414.12 264.90 L415.26 262.78 L416.37 260.64 L417.44 258.48 L418.49 256.30 L419.50 254.11 L420.48 251.90 L421.43 249.67 L422.34 247.43 L423.22 245.17 L424.07 242.90 L424.88 240.62 L425.66 238.32 L426.41 236.01 L427.12 233.69 L427.80 231.35 L428.44 229.01 L429.05 226.65 L429.62 224.28 L430.16 221.91 L430.66 219.53 L431.12 217.13 L431.55 214.74 L431.95 212.33 L432.30 209.92 L432.63 207.50 L432.91 205.08 L433.16 202.65 L433.37 200.22 L433.55 197.79 L433.69 195.35 L433.79 192.91 L433.86 190.47 L433.89 188.03 " style="fill:none;stroke:#0080cc;stroke-width:1;" /></g></svg>