<?xml version="1.0" standalone="no"?><!DOCTYPE svg PUBLIC "-//W3C//DTD SVG 1.1//EN" "http://www.w3.org/Graphics/SVG/1.1/DTD/svg11.dtd"><svg xmlns="http://www.w3.org/2000/svg" viewBox="0 0 650 400" version="1.1"><clipPath id="box"><rect x="0" y="0" width="650" height="400" style="fill:none;stroke:none;" /></clipPath><g clip-path="url(#box)"><rect x="0.00" y="0.00" width="650.00" height="400.00" style="fill:#FFFFFF;stroke:none;" /><path d="M0.00 367.00 L650.00 367.00 M0.00 328.00 L650.00 328.00 M0.00 290.00 L650.00 290.00 M0.00 252.00 L650.00 252.00 M0.00 214.00 L650.00 214.00 M0.00 176.00 L650.00 176.00 M0.00 138.00 L650.00 138.00 M0.00 100.00 L650.00 100.00 M0.00 61.00 L650.00 61.00 M0.00 23.00 L650.00 23.00 M11.00 0.00 L11.00 400.00 M49.00 0.00 L49.00 400.00 M87.00 0.00 L87.00 400.00 M125.00 0.00 L125.00 400.00 M163.00 0.00 L163.00 400.00 M201.00 0.00 L201.00 400.00 M239.00 0.00 L239.00 400.00 M278.00 0.00 L278.00 400.00 M316.00 0.00 L316.00 400.00 M354.00 0.00 L354.00 400.00 M392.00 0.00 L392.00 400.00 M430.00 0.00 L430.00 400.00 M468.00 0.00 L468.00 400.00 M506.00 0.00 L506.00 400.00 M545.00 0.00 L545.00 400.00 M583.00 0.00 L583.00 400.00 M621.00 0.00 L621.00 400.00 " style="fill:none;stroke:#D0D0D0;stroke-width:1;" /><path d="M316.24 0.00 L316.24 400.00 " style="fill:none;stroke:#000000;stroke-width:1;" /><path d="M309.74 405.21 L322.74 405.21 M309.74 367.06 L322.74 367.06 M309.74 328.92 L322.74 328.92 M309.74 290.77 L322.74 290.77 M309.74 252.62 L322.74 252.62 M309.74 214.48 L322.74 214.48 M309.74 176.33 L322.74 176.33 M309.74 138.18 L322.74 138.18 M309.74 100.03 L322.74 100.03 M309.74 61.89 L322.74 61.89 M309.74 23.74 L322.74 23.74 " style="fill:none;stroke:#000000;stroke-width:1;" /><path d="M0.00 214.48 L650.00 214.48 " style="fill:none;stroke:#000000;stroke-width:1;" /><path d="M-27.08 207.98 L-27.08 220.98 M11.07 207.98 L11.07 220.98 M49.22 207.98 L49.22 220.98 M87.36 207.98 L87.36 220.98 M125.51 207.98 L125.51 220.98 M163.66 207.98 L163.66 220.98 M201.80 207.98 L201.80 220.98 M239.95 207.98 L239.95 220.98 M278.10 207.98 L278.10 220.98 M316.24 207.98 L316.24 220.98 M354.39 207.98 L354.39 220.98 M392.54 207.98 L392.54 220.98 M430.69 207.98 L430.69 220.98 M468.83 207.98 L468.83 220.98 M506.98 207.98 L506.98 220.98 M545.13 207.98 L545.13 220.98 M583.27 207.98 L583.27 220.98 M621.42 207.98 L621.42 220.98 " style="fill:none;stroke:#000000;stroke-width:1;" /><text x="324.3699340820312" y="369.56311035156256" text-anchor="start" style="font:10px Droid Sans,Trebuchet MS,Arial,Helvetica,sans-serif;stroke:none;fill:#000000">-0.8</text><text x="324.3699340820312" y="331.41613769531256" text-anchor="start" style="font:10px Droid Sans,Trebuchet MS,Arial,Helvetica,sans-serif;stroke:none;fill:#000000">-0.6</text><text x="324.3699340820312" y="293.26916503906256" text-anchor="start" style="font:10px Droid Sans,Trebuchet MS,Arial,Helvetica,sans-serif;stroke:none;fill:#000000">-0.4</text><text x="324.3699340820312" y="255.12219238281253" text-anchor="start" style="font:10px Droid Sans,Trebuchet MS,Arial,Helvetica,sans-serif;stroke:none;fill:#000000">-0.2</text><text x="324.3699340820312" y="216.97521972656253" text-anchor="start" style="font:10px Droid Sans,Trebuchet MS,Arial,Helvetica,sans-serif;stroke:none;fill:#000000">0</text><text x="324.3699340820312" y="178.82824707031253" text-anchor="start" style="font:10px Droid Sans,Trebuchet MS,Arial,Helvetica,sans-serif;stroke:none;fill:#000000">0.2</text><text x="324.3699340820312" y="140.68127441406253" text-anchor="start" style="font:10px Droid Sans,Trebuchet MS,Arial,Helvetica,sans-serif;stroke:none;fill:#000000">0.4</text><text x="324.3699340820312" y="102.53430175781254" text-anchor="start" style="font:10px Droid Sans,Trebuchet MS,Arial,Helvetica,sans-serif;stroke:none;fill:#000000">0.6</text><text x="324.3699340820312" y="64.38732910156251" text-anchor="start" style="font:10px Droid Sans,Trebuchet MS,Arial,Helvetica,sans-serif;stroke:none;fill:#000000">0.8</text><text x="324.3699340820312" y="26.24035644531252" text-anchor="start" style="font:10px Droid Sans,Trebuchet MS,Arial,Helvetica,sans-serif;stroke:none;fill:#000000">1</text><text x="11.069152832031127" y="230.60021972656253" text-anchor="middle" style="font:10px Droid Sans,Trebuchet MS,Arial,Helvetica,sans-serif;stroke:none;fill:#000000">-1.6</text><text x="49.21612548828113" y="230.60021972656253" text-anchor="middle" style="font:10px Droid Sans,Trebuchet MS,Arial,Helvetica,sans-serif;stroke:none;fill:#000000">-1.4</text><text x="87.36309814453114" y="230.60021972656253" text-anchor="middle" style="font:10px Droid Sans,Trebuchet MS,Arial,Helvetica,sans-serif;stroke:none;fill:#000000">-1.2</text><text x="125.51007080078114" y="230.60021972656253" text-anchor="middle" style="font:10px Droid Sans,Trebuchet MS,Arial,Helvetica,sans-serif;stroke:none;fill:#000000">-1</text><text x="163.65704345703114" y="230.60021972656253" text-anchor="middle" style="font:10px Droid Sans,Trebuchet MS,Arial,Helvetica,sans-serif;stroke:none;fill:#000000">-0.8</text><text x="201.80401611328114" y="230.60021972656253" text-anchor="middle" style="font:10px Droid Sans,Trebuchet MS,Arial,Helvetica,sans-serif;stroke:none;fill:#000000">-0.6</text><text x="239.9509887695311" y="230.60021972656253" text-anchor="middle" style="font:10px Droid Sans,Trebuchet MS,Arial,Helvetica,sans-serif;stroke:none;fill:#000000">-0.4</text><text x="278.09796142578114" y="230.60021972656253" text-anchor="middle" style="font:10px Droid Sans,Trebuchet MS,Arial,Helvetica,sans-serif;stroke:none;fill:#000000">-0.2</text><text x="316.24493408203114" y="230.60021972656253" text-anchor="middle" style="font:10px Droid Sans,Trebuchet MS,Arial,Helvetica,sans-serif;stroke:none;fill:#000000">0</text><text x="354.39190673828114" y="230.60021972656253" text-anchor="middle" style="font:10px Droid Sans,Trebuchet MS,Arial,Helvetica,sans-serif;stroke:none;fill:#000000">0.2</text><text x="392.53887939453114" y="230.60021972656253" text-anchor="middle" style="font:10px Droid Sans,Trebuchet MS,Arial,Helvetica,sans-serif;stroke:none;fill:#000000">0.4</text><text x="430.6858520507812" y="230.60021972656253" text-anchor="middle" style="font:10px Droid Sans,Trebuchet MS,Arial,Helvetica,sans-serif;stroke:none;fill:#000000">0.6</text><text x="468.8328247070312" y="230.60021972656253" text-anchor="middle" style="font:10px Droid Sans,Trebuchet MS,Arial,Helvetica,sans-serif;stroke:none;fill:#000000">0.8</text><text x="506.9797973632812" y="230.60021972656253" text-anchor="middle" style="font:10px Droid Sans,Trebuchet MS,Arial,Helvetica,sans-serif;stroke:none;fill:#000000">1</text><text x="545.1267700195312" y="230.60021972656253" text-anchor="middle" style="font:10px Droid Sans,Trebuchet MS,Arial,Helvetica,sans-serif;stroke:none;fill:#000000">1.2</text><text x="583.2737426757811" y="230.60021972656253" text-anchor="middle" style="font:10px Droid Sans,Trebuchet MS,Arial,Helvetica,sans-serif;stroke:none;fill:#000000">1.4</text><text x="621.4207153320311" y="230.60021972656253" text-anchor="middle" style="font:10px Droid Sans,Trebuchet MS,Arial,Helvetica,sans-serif;stroke:none;fill:#000000">1.6</text><path d="M506.98 214.48 L506.98 214.48 L506.95 214.48 L506.87 214.47 L506.72 214.47 L506.52 214.46 L506.27 214.45 L505.95 214.43 L505.58 214.41 L505.16 214.38 L504.67 214.34 L504.14 214.29 L503.54 214.22 L502.89 214.15 L502.19 214.06 L501.44 213.96 L500.63 213.84 L499.76 213.70 L498.85 213.55 L497.88 213.38 L496.87 213.19 L495.80 212.98 L494.68 212.75 L493.52 212.49 L492.30 212.22 L491.04 211.91 L489.74 211.59 L488.39 211.23 L486.99 210.86 L485.55 210.45 L484.07 210.02 L482.55 209.55 L480.98 209.06 L479.38 208.54 L477.74 207.99 L476.06 207.40 L474.35 206.79 L472.60 206.14 L470.82 205.46 L469.00 204.74 L467.16 203.99 L465.28 203.21 L463.38 202.40 L461.45 201.54 L459.49 200.66 L457.50 199.74 L455.50 198.78 L453.47 197.79 L451.42 196.76 L449.35 195.69 L447.26 194.59 L445.16 193.46 L443.04 192.28 L440.90 191.08 L438.75 189.83 L436.60 188.55 L434.43 187.24 L432.25 185.89 L430.06 184.50 L427.87 183.08 L425.68 181.63 L423.48 180.14 L421.27 178.62 L419.07 177.06 L416.87 175.47 L414.67 173.85 L412.47 172.20 L410.28 170.52 L408.10 168.80 L405.92 167.06 L403.75 165.28 L401.58 163.48 L399.43 161.65 L397.29 159.79 L395.17 157.91 L393.06 156.00 L390.96 154.07 L388.88 152.11 L386.82 150.13 L384.77 148.13 L382.75 146.11 L380.75 144.07 L378.77 142.00 L376.81 139.93 L374.87 137.83 L372.96 135.72 L371.08 133.60 L369.22 131.46 L367.38 129.31 L365.58 127.15 L363.80 124.98 L362.06 122.80 L360.34 120.61 L358.65 118.42 L357.00 116.22 L355.38 114.02 L353.78 111.82 L352.23 109.62 L350.70 107.42 L349.21 105.22 L347.75 103.02 L346.33 100.83 L344.94 98.65 L343.59 96.47 L342.27 94.30 L340.99 92.14 L339.74 89.99 L338.53 87.85 L337.36 85.73 L336.22 83.63 L335.11 81.54 L334.05 79.47 L333.01 77.41 L332.02 75.38 L331.06 73.37 L330.13 71.39 L329.25 69.43 L328.39 67.50 L327.57 65.59 L326.79 63.71 L326.04 61.86 L325.32 60.04 L324.64 58.26 L323.99 56.51 L323.37 54.79 L322.78 53.11 L322.22 51.47 L321.70 49.86 L321.21 48.30 L320.74 46.77 L320.30 45.28 L319.90 43.84 L319.51 42.44 L319.16 41.09 L318.83 39.78 L318.53 38.51 L318.25 37.30 L317.99 36.13 L317.76 35.01 L317.55 33.94 L317.35 32.92 L317.18 31.95 L317.03 31.03 L316.89 30.16 L316.77 29.35 L316.67 28.59 L316.58 27.88 L316.50 27.23 L316.44 26.63 L316.39 26.09 L316.35 25.60 L316.31 25.17 L316.29 24.80 L316.27 24.48 L316.26 24.22 L316.25 24.01 L316.25 23.86 L316.25 23.77 L316.24 23.74 L316.24 23.76 L316.24 23.85 L316.24 23.98 L316.23 24.18 L316.22 24.43 L316.21 24.74 L316.18 25.11 L316.15 25.53 L316.11 26.01 L316.06 26.54 L316.00 27.13 L315.92 27.77 L315.84 28.47 L315.74 29.22 L315.62 30.03 L315.48 30.89 L315.33 31.80 L315.16 32.76 L314.98 33.77 L314.77 34.83 L314.54 35.95 L314.28 37.11 L314.01 38.32 L313.71 39.57 L313.38 40.88 L313.03 42.22 L312.66 43.62 L312.25 45.05 L311.82 46.53 L311.36 48.05 L310.87 49.61 L310.35 51.21 L309.80 52.85 L309.22 54.52 L308.61 56.23 L307.96 57.98 L307.28 59.76 L306.57 61.57 L305.82 63.41 L305.04 65.29 L304.23 67.19 L303.38 69.12 L302.50 71.08 L301.58 73.06 L300.63 75.06 L299.64 77.09 L298.61 79.14 L297.55 81.21 L296.45 83.29 L295.32 85.39 L294.15 87.51 L292.94 89.65 L291.70 91.79 L290.43 93.95 L289.11 96.12 L287.77 98.30 L286.38 100.48 L284.97 102.67 L283.51 104.87 L282.03 107.07 L280.51 109.27 L278.96 111.47 L277.37 113.67 L275.75 115.87 L274.10 118.07 L272.42 120.26 L270.71 122.45 L268.97 124.63 L267.19 126.80 L265.39 128.96 L263.57 131.12 L261.71 133.26 L259.83 135.38 L257.92 137.50 L255.99 139.59 L254.04 141.67 L252.06 143.74 L250.06 145.78 L248.04 147.81 L246.00 149.81 L243.94 151.80 L241.86 153.76 L239.77 155.69 L237.66 157.61 L235.54 159.49 L233.40 161.36 L231.25 163.19 L229.09 165.00 L226.92 166.78 L224.74 168.52 L222.56 170.24 L220.37 171.93 L218.17 173.59 L215.97 175.22 L213.77 176.81 L211.57 178.37 L209.36 179.90 L207.16 181.39 L204.97 182.85 L202.78 184.28 L200.59 185.67 L198.41 187.03 L196.24 188.35 L194.08 189.63 L191.93 190.88 L189.79 192.09 L187.67 193.27 L185.56 194.41 L183.47 195.52 L181.40 196.59 L179.35 197.62 L177.31 198.62 L175.30 199.59 L173.32 200.51 L171.35 201.41 L169.42 202.26 L167.51 203.08 L165.63 203.87 L163.78 204.62 L161.96 205.34 L160.17 206.03 L158.42 206.68 L156.70 207.31 L155.01 207.89 L153.37 208.45 L151.76 208.98 L150.19 209.48 L148.66 209.94 L147.17 210.38 L145.72 210.79 L144.32 211.18 L142.96 211.53 L141.65 211.86 L140.38 212.17 L139.16 212.45 L137.99 212.71 L136.86 212.94 L135.79 213.16 L134.76 213.35 L133.79 213.53 L132.87 213.68 L132.00 213.82 L131.18 213.94 L130.41 214.04 L129.70 214.13 L129.05 214.21 L128.45 214.28 L127.90 214.33 L127.41 214.37 L126.97 214.41 L126.59 214.43 L126.27 214.45 L126.00 214.46 L125.80 214.47 L125.64 214.47 L125.55 214.47 L125.51 214.48 L125.53 214.48 L125.61 214.48 L125.74 214.48 L125.93 214.49 L126.18 214.50 L126.48 214.51 L126.85 214.54 L127.26 214.57 L127.74 214.61 L128.27 214.66 L128.85 214.72 L129.49 214.79 L130.18 214.88 L130.93 214.98 L131.73 215.09 L132.58 215.22 L133.49 215.37 L134.45 215.54 L135.46 215.73 L136.52 215.94 L137.63 216.16 L138.78 216.42 L139.99 216.69 L141.24 216.99 L142.54 217.31 L143.88 217.66 L145.27 218.03 L146.71 218.43 L148.18 218.86 L149.70 219.32 L151.25 219.81 L152.85 220.33 L154.49 220.87 L156.16 221.45 L157.87 222.06 L159.61 222.71 L161.39 223.38 L163.19 224.09 L165.04 224.84 L166.91 225.61 L168.81 226.42 L170.73 227.27 L172.69 228.15 L174.67 229.07 L176.67 230.02 L178.70 231.00 L180.74 232.03 L182.81 233.08 L184.89 234.18 L187.00 235.31 L189.11 236.48 L191.25 237.68 L193.39 238.92 L195.55 240.19 L197.72 241.50 L199.89 242.84 L202.08 244.22 L204.27 245.64 L206.46 247.09 L208.66 248.57 L210.86 250.09 L213.07 251.64 L215.27 253.22 L217.47 254.84 L219.67 256.49 L221.86 258.17 L224.05 259.87 L226.23 261.61 L228.40 263.38 L230.56 265.18 L232.72 267.01 L234.86 268.86 L236.98 270.74 L239.10 272.64 L241.20 274.57 L243.28 276.53 L245.34 278.50 L247.39 280.50 L249.42 282.52 L251.42 284.56 L253.41 286.62 L255.37 288.69 L257.31 290.78 L259.23 292.89 L261.12 295.02 L262.98 297.15 L264.82 299.30 L266.62 301.46 L268.40 303.63 L270.16 305.80 L271.88 307.99 L273.57 310.18 L275.23 312.38 L276.86 314.58 L278.45 316.78 L280.02 318.98 L281.55 321.18 L283.05 323.38 L284.51 325.58 L285.94 327.77 L287.33 329.96 L288.69 332.14 L290.01 334.31 L291.30 336.47 L292.55 338.62 L293.77 340.76 L294.95 342.88 L296.09 344.99 L297.20 347.08 L298.28 349.16 L299.31 351.21 L300.31 353.25 L301.28 355.26 L302.21 357.25 L303.11 359.21 L303.96 361.15 L304.79 363.06 L305.58 364.94 L306.34 366.80 L307.06 368.62 L307.75 370.41 L308.40 372.16 L309.03 373.89 L309.62 375.57 L310.18 377.22 L310.71 378.84 L311.21 380.41 L311.68 381.94 L312.12 383.43 L312.53 384.88 L312.92 386.29 L313.27 387.65 L313.61 388.97 L313.92 390.24 L314.20 391.46 L314.46 392.64 L314.70 393.77 L314.91 394.85 L315.11 395.88 L315.28 396.85 L315.44 397.78 L315.58 398.66 L315.70 399.48 L315.81 400.25 M316.64 400.60 L316.74 399.85 L316.85 399.05 L316.98 398.21 L317.13 397.30 L317.30 396.35 L317.48 395.34 L317.69 394.29 L317.92 393.18 L318.16 392.03 L318.44 390.83 L318.73 389.58 L319.05 388.29 L319.40 386.94 L319.77 385.56 L320.17 384.13 L320.60 382.66 L321.05 381.15 L321.54 379.59 L322.05 378.00 L322.60 376.37 L323.18 374.70 L323.78 372.99 L324.43 371.25 L325.10 369.48 L325.80 367.67 L326.54 365.83 L327.32 363.96 L328.13 362.07 L328.97 360.14 L329.85 358.19 L330.76 356.21 L331.71 354.21 L332.69 352.19 L333.71 350.14 L334.77 348.08 L335.86 345.99 L336.99 343.89 L338.15 341.77 L339.35 339.64 L340.59 337.50 L341.86 335.34 L343.16 333.18 L344.51 331.00 L345.88 328.82 L347.30 326.63 L348.74 324.43 L350.22 322.23 L351.74 320.03 L353.28 317.83 L354.87 315.63 L356.48 313.43 L358.12 311.23 L359.80 309.04 L361.51 306.85 L363.24 304.67 L365.01 302.49 L366.81 300.33 L368.63 298.18 L370.48 296.03 L372.36 293.90 L374.26 291.79 L376.19 289.69 L378.14 287.61 L380.11 285.54 L382.11 283.49 L384.13 281.46 L386.17 279.45 L388.22 277.47 L390.30 275.50 L392.39 273.56 L394.49 271.65 L396.62 269.75 L398.75 267.89 L400.90 266.05 L403.06 264.24 L405.22 262.46 L407.40 260.70 L409.58 258.98 L411.78 257.28 L413.97 255.62 L416.17 253.99 L418.37 252.39 L420.57 250.83 L422.78 249.29 L424.98 247.79 L427.17 246.33 L429.37 244.90 L431.55 243.50 L433.73 242.14 L435.91 240.81 L438.07 239.52 L440.22 238.27 L442.36 237.05 L444.48 235.86 L446.59 234.72 L448.69 233.60 L450.76 232.53 L452.82 231.49 L454.85 230.48 L456.87 229.52 L458.86 228.58 L460.82 227.69 L462.77 226.82 L464.68 226.00 L466.56 225.20 L468.42 224.44 L470.24 223.72 L472.04 223.03 L473.80 222.37 L475.52 221.74 L477.21 221.15 L478.86 220.58 L480.48 220.05 L482.05 219.55 L483.59 219.08 L485.08 218.64 L486.54 218.22 L487.95 217.83 L489.31 217.47 L490.63 217.14 L491.91 216.83 L493.14 216.54 L494.32 216.28 L495.45 216.04 L496.53 215.82 L497.57 215.63 L498.55 215.45 L499.48 215.29 L500.36 215.15 L501.18 215.03 L501.96 214.92 L502.68 214.83 L503.34 214.75 L503.95 214.68 L504.51 214.63 L505.01 214.58 L505.45 214.55 L505.84 214.52 L506.17 214.50 L506.45 214.49 L506.66 214.48 L506.83 214.48 L506.93 214.48 L506.98 214.48 " style="fill:none;stroke:#ff0000;stroke-width:1;" /></g></svg>