<?xml version="1.0" standalone="no"?><!DOCTYPE svg PUBLIC "-//W3C//DTD SVG 1.1//EN" "http://www.w3.org/Graphics/SVG/1.1/DTD/svg11.dtd"><svg xmlns="http://www.w3.org/2000/svg" viewBox="0 0 618 368" version="1.1"><clipPath id="box"><rect x="0" y="0" width="618" height="368" style="fill:none;stroke:none;" /></clipPath><g clip-path="url(#box)"><rect x="0.00" y="0.00" width="618.00" height="368.00" style="fill:#FFFFFF;stroke:none;" /><path d="M0.00 356.00 L618.00 356.00 M0.00 302.00 L618.00 302.00 M0.00 247.00 L618.00 247.00 M0.00 192.00 L618.00 192.00 M0.00 137.00 L618.00 137.00 M0.00 82.00 L618.00 82.00 M0.00 27.00 L618.00 27.00 M27.00 0.00 L27.00 368.00 M84.00 0.00 L84.00 368.00 M140.00 0.00 L140.00 368.00 M197.00 0.00 L197.00 368.00 M254.00 0.00 L254.00 368.00 M310.00 0.00 L310.00 368.00 M367.00 0.00 L367.00 368.00 M424.00 0.00 L424.00 368.00 M480.00 0.00 L480.00 368.00 M537.00 0.00 L537.00 368.00 M594.00 0.00 L594.00 368.00 " style="fill:none;stroke:#D0D0D0;stroke-width:1;" /><path d="M254.21 0.00 L254.21 368.00 " style="fill:none;stroke:#000000;stroke-width:1;" /><path d="M248.03 411.82 L260.39 411.82 M248.03 356.98 L260.39 356.98 M248.03 302.14 L260.39 302.14 M248.03 247.31 L260.39 247.31 M248.03 192.47 L260.39 192.47 M248.03 137.64 L260.39 137.64 M248.03 82.80 L260.39 82.80 M248.03 27.96 L260.39 27.96 " style="fill:none;stroke:#000000;stroke-width:1;" /><path d="M0.00 302.14 L618.00 302.14 " style="fill:none;stroke:#000000;stroke-width:1;" /><path d="M-29.14 295.96 L-29.14 308.32 M27.53 295.96 L27.53 308.32 M84.20 295.96 L84.20 308.32 M140.87 295.96 L140.87 308.32 M197.54 295.96 L197.54 308.32 M254.21 295.96 L254.21 308.32 M310.88 295.96 L310.88 308.32 M367.55 295.96 L367.55 308.32 M424.22 295.96 L424.22 308.32 M480.89 295.96 L480.89 308.32 M537.56 295.96 L537.56 308.32 M594.23 295.96 L594.23 308.32 " style="fill:none;stroke:#000000;stroke-width:1;" /><text x="261.9369598388671" y="359.4811553955078" text-anchor="start" style="font:10px Droid Sans,Trebuchet MS,Arial,Helvetica,sans-serif;stroke:none;fill:#000000">-0.2</text><text x="261.9369598388671" y="304.64488220214844" text-anchor="start" style="font:10px Droid Sans,Trebuchet MS,Arial,Helvetica,sans-serif;stroke:none;fill:#000000">0</text><text x="261.9369598388671" y="249.8086090087891" text-anchor="start" style="font:10px Droid Sans,Trebuchet MS,Arial,Helvetica,sans-serif;stroke:none;fill:#000000">0.2</text><text x="261.9369598388671" y="194.97233581542972" text-anchor="start" style="font:10px Droid Sans,Trebuchet MS,Arial,Helvetica,sans-serif;stroke:none;fill:#000000">0.4</text><text x="261.9369598388671" y="140.13606262207034" text-anchor="start" style="font:10px Droid Sans,Trebuchet MS,Arial,Helvetica,sans-serif;stroke:none;fill:#000000">0.6</text><text x="261.9369598388671" y="85.29978942871098" text-anchor="start" style="font:10px Droid Sans,Trebuchet MS,Arial,Helvetica,sans-serif;stroke:none;fill:#000000">0.8</text><text x="261.9369598388671" y="30.46351623535163" text-anchor="start" style="font:10px Droid Sans,Trebuchet MS,Arial,Helvetica,sans-serif;stroke:none;fill:#000000">1</text><text x="27.530910785381526" y="317.86988220214846" text-anchor="middle" style="font:10px Droid Sans,Trebuchet MS,Arial,Helvetica,sans-serif;stroke:none;fill:#000000">-0.8</text><text x="84.2011730487529" y="317.86988220214846" text-anchor="middle" style="font:10px Droid Sans,Trebuchet MS,Arial,Helvetica,sans-serif;stroke:none;fill:#000000">-0.6</text><text x="140.8714353121243" y="317.86988220214846" text-anchor="middle" style="font:10px Droid Sans,Trebuchet MS,Arial,Helvetica,sans-serif;stroke:none;fill:#000000">-0.4</text><text x="197.5416975754957" y="317.86988220214846" text-anchor="middle" style="font:10px Droid Sans,Trebuchet MS,Arial,Helvetica,sans-serif;stroke:none;fill:#000000">-0.2</text><text x="254.21195983886707" y="317.86988220214846" text-anchor="middle" style="font:10px Droid Sans,Trebuchet MS,Arial,Helvetica,sans-serif;stroke:none;fill:#000000">0</text><text x="310.88222210223853" y="317.86988220214846" text-anchor="middle" style="font:10px Droid Sans,Trebuchet MS,Arial,Helvetica,sans-serif;stroke:none;fill:#000000">0.2</text><text x="367.5524843656099" y="317.86988220214846" text-anchor="middle" style="font:10px Droid Sans,Trebuchet MS,Arial,Helvetica,sans-serif;stroke:none;fill:#000000">0.4</text><text x="424.22274662898127" y="317.86988220214846" text-anchor="middle" style="font:10px Droid Sans,Trebuchet MS,Arial,Helvetica,sans-serif;stroke:none;fill:#000000">0.6</text><text x="480.8930088923527" y="317.86988220214846" text-anchor="middle" style="font:10px Droid Sans,Trebuchet MS,Arial,Helvetica,sans-serif;stroke:none;fill:#000000">0.8</text><text x="537.563271155724" y="317.86988220214846" text-anchor="middle" style="font:10px Droid Sans,Trebuchet MS,Arial,Helvetica,sans-serif;stroke:none;fill:#000000">1</text><text x="594.2335334190955" y="317.86988220214846" text-anchor="middle" style="font:10px Droid Sans,Trebuchet MS,Arial,Helvetica,sans-serif;stroke:none;fill:#000000">1.2</text><path d="M254.21 28.17 L254.21 29.01 L254.21 29.50 L254.22 30.19 L254.22 30.91 L254.23 31.68 L254.23 32.49 L254.24 33.32 L254.25 34.18 L254.26 35.04 L254.27 35.93 L254.29 36.82 L254.30 37.72 L254.32 38.63 L254.34 39.54 L254.36 40.47 L254.39 41.39 L254.41 42.32 L254.44 43.26 L254.47 44.19 L254.50 45.14 L254.53 46.08 L254.57 47.03 L254.60 47.98 L254.64 48.93 L254.68 49.88 L254.73 50.83 L254.77 51.79 L254.82 52.75 L254.87 53.71 L254.92 54.67 L254.97 55.63 L255.03 56.59 L255.08 57.56 L255.14 58.52 L255.21 59.49 L255.27 60.46 L255.34 61.42 L255.41 62.39 L255.48 63.36 L255.55 64.33 L255.62 65.30 L255.70 66.27 L255.78 67.25 L255.86 68.22 L255.95 69.19 L256.03 70.16 L256.12 71.14 L256.21 72.11 L256.31 73.09 L256.40 74.06 L256.50 75.04 L256.60 76.02 L256.71 76.99 L256.81 77.97 L256.92 78.95 L257.03 79.93 L257.14 80.90 L257.26 81.88 L257.38 82.86 L257.50 83.84 L257.62 84.82 L257.75 85.80 L257.88 86.78 L258.01 87.76 L258.14 88.74 L258.28 89.72 L258.42 90.70 L258.56 91.68 L258.70 92.66 L258.85 93.65 L259.00 94.63 L259.16 95.61 L259.31 96.59 L259.47 97.57 L259.63 98.56 L259.80 99.54 L259.96 100.52 L260.13 101.50 L260.31 102.49 L260.48 103.47 L260.66 104.45 L260.84 105.44 L261.03 106.42 L261.22 107.41 L261.41 108.39 L261.60 109.37 L261.80 110.36 L262.00 111.34 L262.20 112.33 L262.41 113.31 L262.62 114.30 L262.84 115.28 L263.05 116.27 L263.27 117.25 L263.50 118.24 L263.72 119.22 L263.95 120.21 L264.19 121.19 L264.42 122.18 L264.66 123.16 L264.91 124.15 L265.15 125.14 L265.41 126.12 L265.66 127.11 L265.92 128.09 L266.18 129.08 L266.45 130.07 L266.71 131.05 L266.99 132.04 L267.26 133.03 L267.54 134.01 L267.83 135.00 L268.12 135.99 L268.41 136.97 L268.71 137.96 L269.01 138.95 L269.31 139.93 L269.62 140.92 L269.93 141.91 L270.25 142.89 L270.57 143.88 L270.89 144.87 L271.22 145.85 L271.55 146.84 L271.89 147.83 L272.23 148.82 L272.58 149.80 L272.93 150.79 L273.29 151.78 L273.64 152.77 L274.01 153.75 L274.38 154.74 L274.75 155.73 L275.13 156.72 L275.51 157.70 L275.90 158.69 L276.29 159.68 L276.69 160.67 L277.09 161.65 L277.50 162.64 L277.92 163.63 L278.33 164.62 L278.76 165.61 L279.18 166.59 L279.62 167.58 L280.06 168.57 L280.50 169.56 L280.95 170.54 L281.41 171.53 L281.87 172.52 L282.33 173.51 L282.81 174.50 L283.29 175.48 L283.77 176.47 L284.26 177.46 L284.76 178.45 L285.26 179.44 L285.77 180.42 L286.28 181.41 L286.80 182.40 L287.33 183.39 L287.86 184.37 L288.40 185.36 L288.95 186.35 L289.50 187.34 L290.06 188.33 L290.63 189.31 L291.20 190.30 L291.78 191.29 L292.37 192.28 L292.97 193.27 L293.57 194.25 L294.18 195.24 L294.80 196.23 L295.42 197.22 L296.06 198.20 L296.70 199.19 L297.35 200.18 L298.01 201.17 L298.67 202.16 L299.34 203.14 L300.03 204.13 L300.72 205.12 L301.42 206.11 L302.12 207.09 L302.84 208.08 L303.57 209.07 L304.30 210.06 L305.05 211.04 L305.80 212.03 L306.57 213.02 L307.34 214.00 L308.13 214.99 L308.92 215.98 L309.73 216.97 L310.54 217.95 L311.37 218.94 L312.20 219.93 L313.05 220.91 L313.91 221.90 L314.78 222.89 L315.66 223.87 L316.56 224.86 L317.47 225.85 L318.39 226.83 L319.32 227.82 L320.26 228.81 L321.22 229.79 L322.19 230.78 L323.18 231.76 L324.18 232.75 L325.19 233.74 L326.22 234.72 L327.26 235.71 L328.32 236.69 L329.39 237.68 L330.48 238.66 L331.59 239.65 L332.71 240.63 L333.85 241.62 L335.01 242.60 L336.18 243.59 L337.38 244.57 L338.59 245.56 L339.82 246.54 L341.07 247.52 L342.34 248.51 L343.64 249.49 L344.95 250.48 L346.29 251.46 L347.65 252.44 L349.03 253.42 L350.43 254.41 L351.86 255.39 L353.32 256.37 L354.80 257.35 L356.31 258.34 L357.85 259.32 L359.42 260.30 L361.01 261.28 L362.64 262.26 L364.30 263.24 L365.99 264.22 L367.72 265.20 L369.48 266.18 L371.28 267.16 L373.12 268.14 L375.00 269.11 L376.93 270.09 L378.89 271.07 L380.89 272.04 L382.89 272.99 L384.89 273.91 L386.89 274.82 L388.89 275.70 L390.89 276.56 L392.89 277.40 L394.89 278.22 L396.89 279.02 L398.89 279.81 L400.89 280.57 L402.89 281.32 L404.89 282.04 L406.89 282.75 L408.89 283.45 L410.89 284.12 L412.89 284.78 L414.89 285.42 L416.89 286.05 L418.89 286.66 L420.89 287.26 L422.89 287.84 L424.89 288.40 L426.89 288.95 L428.89 289.49 L430.89 290.01 L432.89 290.52 L434.89 291.02 L436.89 291.50 L438.89 291.97 L440.89 292.42 L442.89 292.86 L444.89 293.29 L446.89 293.71 L448.89 294.12 L450.89 294.51 L452.89 294.89 L454.89 295.26 L456.89 295.62 L458.89 295.97 L460.89 296.31 L462.89 296.63 L464.89 296.94 L466.89 297.25 L468.89 297.54 L470.89 297.82 L472.89 298.10 L474.89 298.36 L476.89 298.61 L478.89 298.86 L480.89 299.09 L482.89 299.31 L484.89 299.53 L486.89 299.73 L488.89 299.93 L490.89 300.11 L492.89 300.29 L494.89 300.46 L496.89 300.62 L498.89 300.77 L500.89 300.92 L502.89 301.05 L504.89 301.18 L506.89 301.30 L508.89 301.41 L510.89 301.51 L512.89 301.60 L514.89 301.69 L516.89 301.77 L518.89 301.84 L520.89 301.90 L522.89 301.96 L524.89 302.00 L526.89 302.05 L528.89 302.08 L530.89 302.11 L532.89 302.13 L534.89 302.14 L536.89 302.14 L538.89 302.14 L540.89 302.14 L542.89 302.12 L544.89 302.10 L546.89 302.07 L548.89 302.04 L550.89 302.00 L552.89 301.95 L554.89 301.90 L556.89 301.84 L558.89 301.77 L560.89 301.70 L562.89 301.62 L564.89 301.54 L566.89 301.45 L568.89 301.35 L570.89 301.25 L572.89 301.14 L574.89 301.03 L576.89 300.91 L578.89 300.78 L580.89 300.65 L582.89 300.52 L584.89 300.38 L586.89 300.23 L588.89 300.08 L590.89 299.92 L592.89 299.76 L594.89 299.59 L596.89 299.42 L598.89 299.24 L600.89 299.06 L602.89 298.87 L604.89 298.68 L606.89 298.48 L608.89 298.27 L610.89 298.07 L612.89 297.85 L614.89 297.64 L616.89 297.41 " style="fill:none;stroke:#000000;stroke-width:1;" /></g></svg>